<?xml version="1.0" encoding="utf-8"?>
<!-- Generator: Adobe Illustrator 23.0.3, SVG Export Plug-In . SVG Version: 6.00 Build 0)  -->
<svg version="1.1" id="Warstwa_1" xmlns="http://www.w3.org/2000/svg" xmlns:xlink="http://www.w3.org/1999/xlink" x="0px" y="0px"
	 viewBox="0 0 792 612" style="enable-background:new 0 0 792 612;" xml:space="preserve">
<style type="text/css">
	.st0{fill:#F1F2F2;}
	.st1{fill:#FABF8E;}
	.st2{fill:none;}
	.st3{fill:none;stroke:#FFFFFF;stroke-miterlimit:10;}
	.st4{fill:#3C2415;}
	.st5{fill:#3B2416;}
	.st6{fill:url(#SVGID_1_);}
	.st7{fill:#DB1F26;}
	.st8{fill:#603E2C;}
	.st9{fill:#EAD8CA;}
	.st10{fill:#1D150E;}
	.st11{fill:#F2A86A;}
	.st12{fill:url(#SVGID_2_);}
	.st13{fill:#414042;}
	.st14{fill:#EFD0BA;}
	.st15{fill:none;stroke:#603E2C;stroke-miterlimit:10;}
	.st16{fill:url(#SVGID_3_);}
	.st17{fill:none;stroke:#603913;stroke-miterlimit:10;}
	.st18{opacity:0.3;}
	.st19{fill:none;stroke:#000000;stroke-miterlimit:10;}
	.st20{fill:#DE9762;}
	.st21{opacity:0.3;fill:#F2A86A;}
	.st22{fill:#E28058;}
	.st23{fill:#603E2C;stroke:#603E2C;stroke-miterlimit:10;}
	.st24{fill:#603913;}
	.st25{opacity:0.7;}
	.st26{fill:#CCBAB0;}
	.st27{fill:#BDABA0;}
	.st28{fill:#F7EDE7;}
	.st29{fill:url(#SVGID_4_);}
</style>
<path class="st0" d="M552.79,17.15"/>
<path class="st1" d="M422.39,155.2c-9.91-7.62-19.01-13.94-21.8-15.32c-6.32-3.14-8.14-2.2-8.14-2.2s-20.65-1.53-42.2-3.03
	c0.03,0.01,0.04,0.01,0.04,0.01s-4.15,8.42-7.63,18.4c-0.08,0.23-0.17,0.46-0.24,0.7c-1.18,3.45-2.28,7.06-3.09,10.56
	c-0.78,3.43-1.3,6.74-1.36,9.7c0.07-1.22,0.34-2.75,0.77-4.47c1.76-7.13,6.26-17.39,10.63-21.4c0.12-0.12,0.24-0.23,0.36-0.32
	c0.77-0.65,2.4-1.05,4.7-1.22c12.66-0.97,45.66,4.6,68.27,8.83C422.59,155.35,422.49,155.28,422.39,155.2z"/>
<path class="st1" d="M338.4,223.63c1.82-10.74,0-34.12,0-49.01c0-0.19,0.01-0.39,0.02-0.6c0-0.01,0-0.01,0-0.02
	c0.07-1.23,0.16-2.76,0.31-4.46c-0.36,1.43-0.6,2.72-0.71,3.82c-0.03,0.23-0.05,0.44-0.06,0.65c-0.01,0.21-0.02,0.41-0.02,0.6
	c0,14.9,1.82,38.27,0,49.01c-1.32,7.83-1.91,15.95,0.62,21.9c0.23,0.12,0.44,0.25,0.63,0.37c-0.06-0.12-0.12-0.24-0.17-0.36
	C336.49,239.58,337.08,231.46,338.4,223.63z M344.45,252.3c-0.02-0.02-0.04-0.04-0.05-0.06c-0.13,0.02-0.26,0.03-0.41,0.05
	c1.13,1.39,1.8,3.24,2.16,5.3h0.46C346.25,255.53,345.58,253.68,344.45,252.3z M349.71,147.82c-0.12,0.09-0.24,0.2-0.36,0.32
	c1.64-0.61,3.33-1.12,5.06-1.54C352.11,146.77,350.48,147.16,349.71,147.82z M406.74,262.11c0,0,0,0-0.01-0.02
	c-0.57-1-9.35-15.39-14.15-22.56c-1.02-1.51-2.11-3.02-3.19-4.46c-0.48-0.64-0.96-1.26-1.43-1.87c-0.01-0.01-0.02-0.01-0.02-0.02
	c-0.01,0-0.01-0.01-0.01-0.01l-0.01-0.01c-0.59-0.76-1.17-1.5-1.75-2.19c-0.23-0.29-0.46-0.58-0.69-0.86
	c-0.64-0.77-1.23-1.49-1.78-2.14c-0.33-0.38-0.64-0.74-0.92-1.07c-0.14-0.15-0.26-0.29-0.37-0.42c-0.36-0.41-0.67-0.76-0.92-1.06
	c-0.16-0.18-0.3-0.32-0.41-0.45c-0.2-0.23-0.35-0.39-0.41-0.45c0.02,0.04,0.05,0.08,0.09,0.15c0.05,0.06,0.1,0.13,0.16,0.22
	c0.03,0.03,0.05,0.07,0.08,0.11c0.05,0.08,0.1,0.16,0.18,0.25c0.15,0.23,0.33,0.48,0.54,0.79c0.09,0.13,0.18,0.25,0.27,0.39
	c0.1,0.14,0.19,0.29,0.31,0.43c0.07,0.12,0.14,0.23,0.23,0.35c0.19,0.28,0.4,0.58,0.62,0.9c0.13,0.18,0.26,0.37,0.39,0.56
	c1.26,1.81,2.84,4.1,4.58,6.61c0.16,0.23,0.32,0.44,0.47,0.66c0.49,0.72,1.01,1.46,1.53,2.2c0.29,0.42,0.58,0.85,0.88,1.29
	c0.29,0.42,0.59,0.84,0.89,1.28c0.4,0.57,0.8,1.15,1.2,1.73c0.2,0.29,0.4,0.57,0.6,0.86c0.7,1.02,1.41,2.04,2.1,3.03
	c0.15,0.22,0.29,0.43,0.43,0.63c0.55,0.79,1.09,1.58,1.62,2.34c0.2,0.28,0.39,0.55,0.58,0.83c1.24,1.8,2.43,3.49,3.48,5.03
	c0.14,0.2,0.29,0.41,0.43,0.61c0.31,0.44,0.6,0.88,0.89,1.29c0.14,0.2,0.28,0.4,0.42,0.6c0.22,0.31,0.42,0.61,0.62,0.89
	c0.12,0.17,0.22,0.32,0.33,0.47c0.01,0.02,0.02,0.04,0.02,0.06c0.12,0.14,0.22,0.28,0.32,0.43c0.16,0.24,0.31,0.46,0.46,0.66
	c0.04,0.07,0.09,0.14,0.14,0.21c0.73,1.06,1.17,1.69,1.21,1.75c0,0.01,0.01,0,0.01,0C406.74,262.12,406.74,262.12,406.74,262.11z"/>
<path class="st1" d="M443.14,177.52c-2.33-5.14-4.03-8.55-4.12-8.75h-0.01c-2.38-2.08-3.28-6.18-4.16-10.38
	c-0.39-1.87-0.77-3.76-1.28-5.5c-0.76-2.64-1.8-4.94-3.56-6.29c-3.44-0.65-7.17-1.31-11.05-1.98c-4.64-0.79-9.51-1.58-14.4-2.32
	c-17.9-2.71-36.1-4.79-44.53-4.15c-1.73,0.43-19.18,3.23-20.82,3.84c-2.35,2.16-4.21,7.1-5.72,12.32c-1.28,4.47-2.29,9.14-3.1,12.44
	c-0.13,1.46,5.92,4.86,7.59,6.57c0.03,0.01,0.04,0.02,0.04,0.04c0.26,0.26,0.4,0.47,0.4,0.64c0,0.01,0,0.01,0,0.02
	c-0.01,0.21-0.02,0.41-0.02,0.6c0,14.89,1.82,38.27,0,49.01c-1.32,7.83-1.91,15.95,0.62,21.9c0.05,0.12,0.11,0.24,0.17,0.36
	c0.92,2.08,2.26,3.87,4.11,5.28c0.41,0.31,0.77,0.67,1.1,1.07c0.01,0.02,0.03,0.04,0.05,0.06c1.13,1.38,1.8,3.23,2.16,5.29h0.16
	c0.2-0.01,0.41-0.01,0.62-0.01c0.42-0.01,0.86-0.01,1.28-0.01c1.21-0.01,2.44-0.01,3.7,0c7.39,0.03,15.58,0.32,21.56,1.2
	c6.67,0.98,14.25,4.1,18.49,6.3c0.2,0.1,0.39,0.21,0.57,0.3c1.2,0.65,2.06,1.19,2.47,1.55c0.01,0,0.02,0.01,0.03,0.02
	c2.82,1.33,5.69,2.95,8.17,4.86c0,0.01-0.01,0.02-0.01,0.02c-0.05,0.13,0.14-0.08,0.04,0.14c0.09,0.17,0.25,0.55,0.45,1.11
	c0.04,0.08,0.07,0.17,0.1,0.26c0.08,0.23,0.18,0.51,0.29,0.8c0.06,0.21,0.14,0.42,0.22,0.66c0.1,0.28,0.18,0.56,0.3,0.87
	c0.16,0.48,0.33,1,0.51,1.56c0.05,0.16,0.1,0.31,0.15,0.46c0.05,0.17,0.1,0.34,0.17,0.52c0.27,0.87,0.58,1.81,0.88,2.82
	c0.13,0.41,0.26,0.82,0.39,1.24c0.05,0.2,0.12,0.4,0.18,0.6c0.25,0.83,0.52,1.7,0.78,2.59c0.27,0.9,0.54,1.81,0.81,2.76
	c0.33,1.1,0.65,2.23,0.98,3.39c0.13,0.48,0.27,0.97,0.4,1.46c0.2,0.72,0.41,1.45,0.61,2.19c0.13,0.48,0.26,0.97,0.39,1.46
	c0.13,0.48,0.26,0.97,0.39,1.46s0.26,0.97,0.39,1.47c0.24,0.98,0.49,1.95,0.74,2.94c0.24,0.96,0.48,1.94,0.7,2.9
	c0.12,0.48,0.23,0.95,0.34,1.43c0.01-0.01,0.02-0.04,0.04-0.05c0.29-0.42,0.56-0.86,0.86-1.3c0.59-0.89,1.19-1.82,1.8-2.78
	c0.46-0.72,0.92-1.45,1.4-2.2c0.93-1.5,1.9-3.05,2.86-4.66c0.49-0.8,0.99-1.61,1.47-2.43c0.34-0.56,0.67-1.11,1-1.67
	c0.11-0.18,0.22-0.37,0.33-0.56c0.22-0.36,0.44-0.74,0.67-1.11c0.35-0.6,0.7-1.19,1.04-1.79c0.29-0.5,0.58-0.98,0.87-1.47
	c0.7-1.22,1.41-2.44,2.11-3.67c0.33-0.56,0.64-1.1,0.96-1.66c0.52-0.92,1.05-1.84,1.57-2.75c0.3-0.54,0.61-1.08,0.91-1.62
	c0.24-0.41,0.48-0.84,0.71-1.26c0.46-0.82,0.92-1.64,1.38-2.45c0.19-0.34,0.38-0.68,0.56-1.02c0.31-0.54,0.61-1.08,0.91-1.62
	c0.33-0.59,0.65-1.17,0.97-1.76c1.72-3.09,3.38-6.12,4.96-9.02c0.21-0.38,0.41-0.75,0.61-1.12c0.05-0.11,0.11-0.21,0.16-0.31
	c0.22-0.4,0.44-0.8,0.65-1.2c0.06-0.1,0.1-0.18,0.16-0.28c0.21-0.41,0.43-0.81,0.65-1.21c0.03-0.06,0.07-0.12,0.1-0.18
	c0.27-0.53,0.55-1.04,0.82-1.54c1.03-1.89,1.99-3.7,2.9-5.39c0.16-0.32,0.34-0.63,0.5-0.95c0.7-1.32,1.37-2.57,1.98-3.72
	c0.11-0.21,0.22-0.43,0.33-0.64c0.06-0.11,0.11-0.22,0.16-0.32c0.1-0.16,0.18-0.32,0.27-0.48c0.07-0.16,0.16-0.31,0.24-0.46
	c0.06-0.12,0.13-0.24,0.18-0.35c0.23-0.44,0.46-0.86,0.66-1.26c0.44-0.83,0.84-1.6,1.2-2.27c0.05-0.1,0.1-0.23,0.15-0.31
	c1.03-1.95,1.6-3.06,1.6-3.06l-0.19,1.18c0.53-0.61,0.94-1.02,1.02-1.09c0.01,0,0.01-0.01,0.01-0.01c0.01-0.01,0.02-0.02,0.02-0.02
	c0.01-0.04,0.03-0.06,0.03-0.06l1.84-11.22C457.61,211.48,448.63,189.65,443.14,177.52z M359.38,250.84
	c4.98-4.38,10.21-0.85,10.21-0.85L359.38,250.84z M382.17,236.06c-0.01-0.01-0.01-0.02-0.02-0.02c0.01,0.01,0.02,0.01,0.02,0.01
	C382.18,236.06,382.17,236.06,382.17,236.06z M408.11,199.48c0,0,0,0-0.01,0c-3.81,0.93-11.64,2.75-14.52,2.75
	c-3.76,0-10.87-1.58-13.68-3.94c-0.09-0.08-0.17-0.16-0.25-0.24c-0.3-0.29-0.52-0.58-0.68-0.88c-0.13-0.24,7,4.02,16.24,3.53
	c7.79-0.4,13.44-1.44,14.75-1.69C409.61,199.11,408.95,199.27,408.11,199.48z M428.71,180.84c-0.01,0.02-0.03,0.05-0.04,0.08
	c-0.07,0.1-0.16,0.18-0.29,0.26l-0.01,0.01c-0.03,0.02-0.06,0.04-0.09,0.06c-1.35,0.73-5.15,0.71-5.6,0.78
	c0.25,0.01,0.44,0.01,0.57,0.01c0.1,0,0.15,0,0.17-0.01c0.21-0.07,3.7-0.03,4.91-0.78l-2.92,6.73l-4.8,9.57h-7.29
	c0,0,0.42-0.44-0.28-1.23c-0.05-0.04-0.08-0.08-0.13-0.13c-0.79-0.81-2.73-1.93-7.24-3.27c-1.1-0.33-2.15-0.65-3.15-0.97
	c0.05,0.04,0.09,0.07,0.12,0.12l0.03,0.02c0.32,0.39,0.56,1.08,0.56,1.08c0.92,3.21,0,4.62,0,4.62l-3.24-0.19
	c-0.07,0.18-0.13,0.27-0.13,0.27h-0.06c0.03-0.07,0.07-0.16,0.11-0.28l-10.84-0.64l-0.06-0.01c-0.93-1.97-0.75-1.62-1.06-3.51
	c0-0.08-0.02-0.17-0.04-0.26c-0.3-1.87,0.52-2.92,0.76-3.2c0.05-0.05,0.07-0.07,0.07-0.07s0.05-0.07,0.18-0.17l-14.73,4.93
	l-0.3,0.11c0.06-0.09,0.17-0.22,0.32-0.4l-6.87,5.8v-25.33c0,0,13.57-5.47,24.52-5.75c1.06-0.04,2.16,0,3.3,0.07
	c0.33,0.01,0.65,0.04,0.99,0.07c3.91,0.31,8.04,1.08,11.68,1.91c0.03,0.01,0.07,0.01,0.1,0.02c4.31,0.99,7.93,2.06,9.7,2.56
	c0.68,0.2,1.09,0.31,1.15,0.29c0.42-0.09,8.04,4.2,9.72,6.11c0.14,0.16,0.21,0.29,0.23,0.42c0.01,0.05,0.02,0.09,0.02,0.13
	C428.75,180.73,428.73,180.79,428.71,180.84z"/>
<path class="st2" d="M476.88,240.81c0-0.1,0-0.19-0.02-0.28v-0.08c-0.01-0.12-0.02-0.23-0.03-0.35c-0.02-0.13-0.03-0.26-0.06-0.4
	c0-0.02-0.01-0.05-0.01-0.07c-0.02-0.14-0.05-0.29-0.08-0.43c-0.01-0.09-0.02-0.16-0.05-0.25c0-0.01-0.01-0.03-0.01-0.04
	c0.01,0.1,0.03,0.19,0.05,0.28c0.01,0.1,0.03,0.19,0.05,0.28c0.01,0.11,0.02,0.21,0.04,0.31c0.02,0.13,0.04,0.26,0.05,0.38
	c0.02,0.13,0.03,0.25,0.04,0.37c0.01,0.13,0.02,0.27,0.03,0.4c0.01,0.05,0.01,0.1,0.01,0.15v-0.16c0,0-0.01,0,0-0.01v-0.01
	C476.89,240.86,476.89,240.84,476.88,240.81z M476.6,238.81c0,0.04,0.01,0.07,0.02,0.1c0-0.02,0-0.04-0.01-0.07
	C476.61,238.83,476.6,238.82,476.6,238.81z M305.61,131.88c0.54,0.02,1.14,0.04,1.8,0.07c0.03-0.06,0.04-0.09,0.04-0.11
	C306.83,131.85,306.22,131.87,305.61,131.88z"/>
<path class="st3" d="M409.34,208.32"/>
<path class="st3" d="M371.04,202.12"/>
<path class="st1" d="M476.9,241.36c0,7.46-1.18,14.05-3,20.97c-2.92,11.07-10.7,16.02-18.72,18.93c-1.72,0.64-3,0.66-3.93,0.32
	c-3.15-1.13-2.41-6.52-2.29-7.28l0.02-0.09l6.46-39.21l1.85-11.22l1.05-6.35c5.98,0.19,7.53,4.13,13.86,13
	c1.62,2.27,3.63,5.07,4.39,8.32c0,0.02,0.01,0.03,0.01,0.04c0,0.01,0.01,0.03,0.01,0.03c0.01,0.03,0.01,0.04,0.01,0.07
	c0.03,0.1,0.04,0.19,0.06,0.29c0.05,0.29,0.1,0.58,0.12,0.88c0,0.03,0,0.05,0.01,0.08c0.02,0.13,0.03,0.25,0.03,0.37
	c0.01,0.13,0.03,0.27,0.03,0.4c0.01,0.05,0.01,0.1,0.01,0.15v0.06C476.9,241.21,476.9,241.29,476.9,241.36z"/>
<path class="st2" d="M314.63,284.28"/>
<path class="st2" d="M316.59,285.86"/>
<path class="st2" d="M342.98,272.31"/>
<path class="st2" d="M303.57,276.47"/>
<path class="st2" d="M336.15,324.43"/>
<path class="st3" d="M318.52,230.33"/>
<path class="st3" d="M290.19,257.56"/>
<path class="st2" d="M326.67,220.91"/>
<path class="st3" d="M325.21,223.92c0.21-0.19,0.39-0.34,0.54-0.49C325.6,223.57,325.42,223.73,325.21,223.92z"/>
<path class="st1" d="M291.24,196c-0.61,0.61-0.56,1.04-0.47,1.23h0.19C290.96,197.23,290.54,196.8,291.24,196z M315.61,189.65
	l-0.37-0.12c0.12,0.11,0.18,0.18,0.18,0.18s1.19,1.08,0.82,3.27c0,0.04-0.01,0.09-0.02,0.13c0,0.05-0.01,0.09-0.01,0.13
	c-0.31,1.86-0.14,1.54-1,3.4l0.06-0.01c0.58-1.24,0.73-1.56,0.83-2.09c0.03-0.1,0.05-0.23,0.07-0.36c0.01-0.13,0.04-0.28,0.07-0.45
	c0.02-0.17,0.06-0.37,0.09-0.61c0.01-0.09,0.02-0.17,0.04-0.26C316.67,190.99,315.85,189.92,315.61,189.65z M309.07,200.38
	c-7.79-0.4-13.44-1.43-14.75-1.68c0.35,0.1,1.01,0.26,1.85,0.47c0,0,0,0,0.01,0c2.56,0.41,7.1,1.04,12.76,1.34
	c9.25,0.48,16.38-3.77,16.25-3.53c-0.1,0.2-0.23,0.38-0.38,0.57c0.09-0.1,0.18-0.2,0.25-0.3c0.1-0.13,0.18-0.26,0.25-0.39
	C325.44,196.61,318.31,200.87,309.07,200.38z M325.76,223.43c-0.04,0.04-0.09,0.07-0.13,0.12c0.27-0.23,0.47-0.39,0.55-0.47
	c-0.03,0.04-0.08,0.09-0.14,0.16c-0.01,0.02-0.02,0.04-0.04,0.06c0.07-0.06,0.11-0.12,0.17-0.18c0.06-0.07,0.1-0.12,0.13-0.16
	C326.22,223.03,326.03,223.19,325.76,223.43z M307.77,168.77c-4.37-0.12-9.57,0.91-13.96,2.06c-0.02,0.01-0.06,0.01-0.09,0.02
	c-0.01,0.03-0.02,0.07-0.03,0.1c4.39-1.15,9.58-2.18,13.95-2.06c0.15,0.01,0.32,0.01,0.49,0.02c0.34-0.02,0.66-0.05,0.99-0.07
	C308.67,168.81,308.21,168.78,307.77,168.77z M330.34,194.38c-0.05-0.06-0.1-0.12-0.17-0.2c-0.02-0.02-0.05-0.06-0.08-0.09v-0.02
	l-0.01-0.01c-0.09-0.09-0.2-0.21-0.31-0.32c-0.05-0.05-0.11-0.11-0.17-0.18s-0.13-0.13-0.2-0.2c-0.07-0.07-0.15-0.14-0.23-0.2
	c-0.08-0.07-0.16-0.14-0.24-0.22c-0.08-0.08-0.18-0.15-0.26-0.23c-0.2-0.16-0.4-0.32-0.61-0.48c-0.21-0.16-0.45-0.34-0.69-0.5
	c-0.13-0.09-0.26-0.18-0.39-0.26c-0.27-0.17-0.54-0.34-0.84-0.51c-0.41-0.24-0.85-0.47-1.32-0.69c-0.12-0.06-0.24-0.11-0.36-0.16
	c-0.85-0.4-1.8-0.75-2.85-1.06c-0.24-0.07-0.48-0.14-0.72-0.2c-0.4-0.1-0.82-0.21-1.25-0.29c-0.5-0.11-1.01-0.2-1.54-0.27
	c-0.84-0.13-1.73-0.21-2.66-0.27c-0.25,0-0.51-0.02-0.77-0.02c-0.52-0.02-1.05-0.02-1.59-0.01c-9.06,0.17-20.24,4.84-25.85,7.48
	c-0.04,0.01-0.06,0.04-0.11,0.05c0,0.02,0,0.05-0.01,0.07c5.62-2.64,16.8-7.3,25.86-7.48c10.69-0.2,15.74,4.64,17.04,6.13
	c0.02,0.05,0.06,0.08,0.08,0.11l0.28,0.09l0.02,0.01C330.37,194.43,330.36,194.41,330.34,194.38z M399.86,193.24
	c0,0-0.2-0.57-0.48-0.97c-0.01,0-0.02-0.02-0.03-0.03c-0.1-0.03-0.21-0.06-0.32-0.1c0.05,0.05,0.1,0.09,0.15,0.15
	c0.32,0.39,0.55,1.07,0.55,1.07c0.66,2.25,0.4,3.62,0.18,4.23c-0.04,0.12-0.08,0.21-0.11,0.28h0.06c0,0,0.06-0.09,0.13-0.27
	C400.2,197.06,400.55,195.65,399.86,193.24z M382.15,236.04c0.01,0,0.01,0.01,0.02,0.02c0,0,0.01,0,0-0.01
	C382.17,236.05,382.16,236.05,382.15,236.04z M388.16,330.62c-4.15,2.33-8.51,4.49-12.81,6.34c-0.5,0.22-1.02,0.43-1.53,0.65
	c-1.58,0.65-3.15,1.27-4.7,1.85c-0.51,0.17-1.02,0.35-1.52,0.53c-0.15,0.06-0.29,0.1-0.44,0.16c-0.43,0.13-0.87,0.28-1.28,0.42
	c-0.46,0.15-0.89,0.3-1.33,0.43c-0.39,0.12-0.77,0.24-1.16,0.36c-0.17,0.04-0.33,0.09-0.49,0.14c-0.67,0.19-1.34,0.37-1.99,0.54
	c-0.14,0.04-0.27,0.07-0.41,0.11c-0.3,0.08-0.6,0.15-0.89,0.22c-0.9,0.21-1.76,0.39-2.62,0.55c-0.09,0.03-0.18,0.04-0.28,0.06
	c-2.28,0.41-4.37,0.63-6.2,0.6h-0.23c-0.25,0-0.5-0.01-0.75-0.03c-0.22-0.01-0.44-0.02-0.66-0.04c-0.22-0.01-0.46-0.03-0.69-0.05
	c-0.27-0.03-0.53-0.06-0.8-0.08c-0.46-0.06-0.91-0.13-1.38-0.19c-0.14-0.03-0.29-0.05-0.43-0.08c-0.15-0.02-0.29-0.05-0.45-0.08
	c-0.2-0.04-0.4-0.07-0.6-0.11c-0.17-0.04-0.34-0.07-0.51-0.11c-0.33-0.07-0.67-0.15-1-0.23c-0.26-0.07-0.51-0.13-0.77-0.19
	c-0.19-0.04-0.36-0.1-0.54-0.15c-0.02,0-0.05,0-0.06-0.01c-0.2-0.06-0.38-0.12-0.57-0.16c-0.01,0-0.03-0.01-0.04-0.01v-0.01
	c-0.11-0.03-0.23-0.06-0.34-0.09c-0.26-0.08-0.52-0.17-0.78-0.25c-0.5-0.15-0.98-0.33-1.49-0.5c-0.05-0.02-0.11-0.05-0.17-0.06
	c-0.24-0.1-0.48-0.19-0.72-0.27c-0.28-0.11-0.54-0.21-0.81-0.32c-0.27-0.1-0.54-0.21-0.81-0.33l-0.81-0.34
	c-0.27-0.12-0.54-0.24-0.82-0.36c-0.55-0.26-1.09-0.52-1.64-0.79c-0.27-0.14-0.55-0.28-0.83-0.42c-0.27-0.13-0.55-0.28-0.83-0.43
	c-0.28-0.15-0.56-0.31-0.83-0.46c-0.56-0.3-1.12-0.62-1.69-0.95c-0.83-0.5-1.68-1.03-2.52-1.58c-0.29-0.17-0.57-0.36-0.85-0.56
	c-0.05-0.02-0.1-0.05-0.14-0.08c-0.24-0.17-0.47-0.33-0.71-0.49c-0.29-0.19-0.57-0.39-0.85-0.59c-0.54-0.4-1.09-0.8-1.64-1.19
	c-0.02-0.02-0.05-0.04-0.07-0.06c-0.43-0.32-0.85-0.65-1.28-0.97c-0.42-0.34-0.85-0.68-1.28-1.03c-0.86-0.69-1.71-1.42-2.57-2.17
	c-0.24-0.21-0.49-0.43-0.72-0.65c-0.62-0.54-1.23-1.11-1.83-1.69c-0.28-0.26-0.57-0.54-0.86-0.81c-0.05-0.05-0.09-0.1-0.14-0.14
	c-0.28-0.27-0.55-0.54-0.82-0.81c-0.4-0.4-0.81-0.81-1.21-1.22c-0.41-0.42-0.81-0.85-1.21-1.27c-0.07-0.09-0.15-0.17-0.24-0.26
	c-0.24-0.26-0.48-0.52-0.71-0.78c-0.25-0.26-0.49-0.52-0.73-0.8c-0.28-0.32-0.56-0.62-0.83-0.93c-0.27-0.33-0.54-0.64-0.81-0.96
	c-0.29-0.33-0.58-0.67-0.86-1c-0.27-0.34-0.55-0.68-0.82-1.01c-1.09-1.35-2.19-2.76-3.26-4.2c-0.27-0.37-0.54-0.74-0.8-1.11
	c-0.23-0.3-0.45-0.6-0.67-0.91c-0.21-0.29-0.41-0.59-0.61-0.88c-0.34-0.47-0.67-0.96-1-1.45c-0.03-0.05-0.07-0.1-0.11-0.17
	c-0.26-0.39-0.52-0.78-0.78-1.17c-0.18-0.26-0.35-0.54-0.53-0.81c-0.21-0.32-0.42-0.65-0.62-0.98c-1.68-2.6-3.3-5.3-4.87-8.04
	c-0.21-0.36-0.42-0.73-0.63-1.1c-1.73-3.01-3.38-6.07-4.97-9.12c-0.09-0.17-0.17-0.33-0.26-0.5c0.05,0.21,0.09,0.41,0.13,0.62
	c1.61,3.08,3.29,6.18,5.04,9.23c0.21,0.38,0.42,0.73,0.63,1.1c0,0.01,0,0.01,0,0.02c0.74,1.29,1.51,2.57,2.27,3.84
	c0.02,0.02,0.03,0.05,0.05,0.09c0.85,1.41,1.72,2.79,2.6,4.15c0,0.01,0.01,0.01,0.01,0.02c0.15,0.27,0.33,0.53,0.5,0.79
	c0.21,0.31,0.41,0.64,0.62,0.95c0.26,0.4,0.53,0.79,0.79,1.18c13.61,20.12,29.63,31.52,43.01,35.31c0.21,0.06,0.42,0.11,0.63,0.17
	c1.28,0.34,2.53,0.61,3.75,0.8l0.13,0.03c0.12,0.02,0.24,0.03,0.37,0.05c0.11,0.01,0.21,0.03,0.32,0.04c0.02,0,0.04,0,0.07,0.01
	c1.22,0.17,2.43,0.28,3.58,0.31c10.49,0.26,29.86-7.5,44.29-16.84c-1.57,1.01-3.19,2-4.86,2.96
	C389.1,330.09,388.63,330.36,388.16,330.62z M396.15,325.74c-0.56,0.38-1.14,0.75-1.71,1.12c0.04-0.03,0.08-0.05,0.12-0.08
	C395.09,326.43,395.62,326.09,396.15,325.74z M397.99,272.17c-0.1-0.61-0.39-1.15-0.43-1.23v-0.01c0,0,0,0-0.01,0
	c0,0-0.01-0.02-0.05-0.07c-0.07-0.09-0.22-0.3-0.44-0.6c-0.28-0.36-0.64-0.84-1.06-1.38c-0.07-0.09-0.14-0.18-0.21-0.27
	s-0.14-0.19-0.22-0.28c-0.04-0.05-0.08-0.09-0.11-0.14c-0.04-0.05-0.08-0.09-0.11-0.13c-0.08-0.1-0.14-0.19-0.22-0.28
	c-0.16-0.18-0.31-0.37-0.47-0.56c-0.1-0.13-0.22-0.27-0.33-0.39l-0.01-0.01v-0.01c-0.01,0-0.01,0-0.01,0
	c-0.01-0.02-0.03-0.04-0.05-0.06c-0.05-0.07-0.11-0.14-0.17-0.2c0-0.01-0.01-0.01-0.01-0.01c-0.11-0.13-0.23-0.26-0.34-0.38v-0.01
	h-0.01c-0.06-0.07-0.12-0.14-0.19-0.21c-0.06-0.07-0.12-0.13-0.18-0.19c-0.13-0.13-0.25-0.26-0.37-0.38
	c-0.18-0.09-0.37-0.2-0.57-0.3l0.02,0.03c0.12,0.09,0.24,0.2,0.36,0.33c0.06,0.05,0.12,0.11,0.18,0.18
	c0.13,0.12,0.25,0.25,0.38,0.38c0.06,0.06,0.12,0.13,0.18,0.2c0.12,0.14,0.25,0.29,0.38,0.44c0.01,0.01,0.01,0.01,0.02,0.02
	c0.04,0.04,0.08,0.07,0.12,0.12c0.11,0.12,0.23,0.26,0.34,0.4c0,0,0.01,0,0.01,0.01c0.12,0.14,0.24,0.27,0.34,0.42
	c0.17,0.19,0.32,0.38,0.48,0.57c0.07,0.1,0.13,0.18,0.21,0.27c0.06,0.07,0.11,0.14,0.16,0.21c0.06,0.07,0.11,0.14,0.16,0.2
	c0.02,0.02,0.04,0.03,0.05,0.06c0.12,0.16,0.24,0.31,0.35,0.45c0.13,0.15,0.24,0.3,0.33,0.43c0.14,0.19,0.27,0.36,0.39,0.51
	c0.11,0.16,0.22,0.29,0.29,0.4c0.08,0.12,0.15,0.21,0.2,0.26c0.04,0.06,0.06,0.09,0.06,0.09s0,0,0,0.01
	c0.01,0.02,0.03,0.05,0.05,0.09c0.02,0.03,0.03,0.07,0.05,0.11c0.01,0.01,0.01,0.02,0.02,0.03c0.04,0.09,0.09,0.22,0.15,0.36
	c0.02,0.08,0.06,0.16,0.07,0.25c0.03,0.09,0.06,0.17,0.07,0.26c0.01,0.01,0.01,0.01,0.01,0.02v0.02c0.02,0.09,0.03,0.19,0.05,0.27
	c0.01,0.13,0.02,0.26,0.01,0.4v0.06c-0.01,0.04-0.01,0.08-0.02,0.13s-0.03,0.09-0.05,0.14c-0.01,0.09-0.05,0.18-0.11,0.26
	c0,0.01-0.01,0.02-0.01,0.03c-0.01,0.02-0.02,0.03-0.02,0.04c0.05-0.05,0.09-0.09,0.12-0.15c0.1-0.16,0.16-0.33,0.2-0.51
	c0.02-0.17,0.02-0.34,0-0.52C398.02,272.29,398.01,272.23,397.99,272.17z"/>
<path class="st1" d="M299.39,270.73c0,0.05-0.14-0.09-0.04,0.1c-0.73,1.35-3.39,7.3-6.31,18.59c3-11.19,5.86-16.86,6.58-18.2v-0.01
	C299.52,271.01,299.44,270.85,299.39,270.73z M413.86,306.91c-0.11-0.48-0.22-0.95-0.34-1.43c-0.22-0.96-0.46-1.94-0.7-2.9
	c-0.25-0.99-0.5-1.96-0.74-2.94c-0.13-0.5-0.26-0.98-0.39-1.47s-0.26-0.98-0.39-1.46c-0.13-0.49-0.26-0.98-0.39-1.46
	c-0.2-0.74-0.41-1.47-0.61-2.19c-0.13-0.49-0.27-0.98-0.4-1.46c-0.33-1.16-0.65-2.29-0.98-3.39c-0.27-0.95-0.54-1.86-0.81-2.76
	c-0.26-0.89-0.53-1.76-0.78-2.59c-0.06-0.2-0.13-0.4-0.18-0.6c-0.13-0.42-0.26-0.83-0.39-1.24c-0.3-1.01-0.61-1.95-0.88-2.82
	c-0.07-0.18-0.12-0.35-0.17-0.52c-0.05-0.15-0.1-0.3-0.15-0.46c-0.18-0.56-0.35-1.08-0.51-1.56c-0.12-0.31-0.2-0.59-0.3-0.87
	c-0.08-0.24-0.16-0.45-0.22-0.66c-0.11-0.29-0.21-0.57-0.29-0.8c-0.03-0.09-0.06-0.18-0.1-0.26c-0.2-0.56-0.36-0.94-0.45-1.11
	c0.1-0.22-0.09-0.01-0.04-0.14c0,0,0.01-0.01,0.01-0.02c-2.48-1.91-5.35-3.53-8.17-4.86c0.07,0.06,0.14,0.12,0.21,0.2
	c0.08,0.07,0.15,0.15,0.23,0.22c0.15,0.14,0.29,0.29,0.43,0.45c0,0.01,0.01,0.01,0.01,0.01c0.86,0.91,1.79,2.06,2.55,3.04
	c0.08,0.1,0.16,0.2,0.24,0.3c0.18,0.23,0.34,0.45,0.5,0.65c0.09,0.12,0.18,0.25,0.27,0.36c0.32,0.43,0.52,0.7,0.52,0.7
	s1.01,1.81,0.11,2.64c-0.01,0.01-0.01,0.02-0.02,0.03c-0.33,0.3-0.92,0.47-1.89,0.38c-0.7-0.06-1.57-0.25-2.7-0.61
	c-7.17-2.31-11.31-3.41-11.31-3.41l-28.09-2.67c0,0-0.3,0-0.88,0c0,0-0.36-0.01-1.03-0.01h-1.18c-0.25,0-0.51,0-0.8,0.01
	c-1.7,0.04-3.91,0.11-6.47,0.23c-0.16,0.01-0.31,0.02-0.47,0.03c-4.14,0.21-9.15,0.61-14.46,1.32c-4.72,0.63-8.91,1.39-12.54,2.11
	h-0.01c-0.96,0.18-1.86,0.36-2.74,0.54h-0.01c-0.01,0-0.01,0-0.02,0.01c-4.94,0.97-8.59,1.73-10.85,1.64
	c-0.2-0.01-0.4-0.02-0.58-0.04c-0.2-0.03-0.4-0.06-0.58-0.11c0,0,0,0.01-0.01,0.03c0,0.02-0.01,0.04-0.04,0.1
	c-0.08,0.26-0.31,0.94-0.63,1.92c-0.01,0.02-0.01,0.04-0.02,0.05v0.01c-0.44,1.34-1.06,3.25-1.74,5.43
	c-2.17,6.96-5,16.85-5.11,21.25c0.2,0.33,0.41,0.66,0.62,0.98c0.18,0.27,0.35,0.55,0.53,0.81c0.26,0.39,0.52,0.78,0.78,1.17
	c0.04,0.07,0.08,0.12,0.11,0.17c0.33,0.49,0.66,0.98,1,1.45c0.2,0.29,0.4,0.59,0.61,0.88c0.22,0.31,0.44,0.61,0.67,0.91
	c0.26,0.37,0.53,0.74,0.8,1.11c1.07,1.44,2.17,2.85,3.26,4.2c0.27,0.33,0.55,0.67,0.82,1.01c0.28,0.33,0.57,0.67,0.86,1
	c0.27,0.32,0.54,0.63,0.81,0.96c0.27,0.31,0.55,0.61,0.83,0.93c0.24,0.28,0.48,0.54,0.73,0.8c0.23,0.26,0.47,0.52,0.71,0.78
	c0.09,0.09,0.17,0.17,0.24,0.26c0.4,0.42,0.8,0.85,1.21,1.27c0.4,0.41,0.81,0.82,1.21,1.22c0.27,0.27,0.54,0.54,0.82,0.81
	c0.05,0.04,0.09,0.09,0.14,0.14c0.29,0.27,0.58,0.55,0.86,0.81c0.6,0.58,1.21,1.15,1.83,1.69c0.23,0.22,0.48,0.44,0.72,0.65
	c0.86,0.75,1.71,1.48,2.57,2.17c0.43,0.35,0.86,0.69,1.28,1.03c0.43,0.32,0.85,0.65,1.28,0.97c0.02,0.02,0.05,0.04,0.07,0.06
	c0.55,0.39,1.1,0.79,1.64,1.19c0.28,0.2,0.56,0.4,0.85,0.59c0.24,0.16,0.47,0.32,0.71,0.49c0.04,0.03,0.09,0.06,0.14,0.08
	c0.28,0.2,0.56,0.39,0.85,0.56c0.84,0.55,1.69,1.08,2.52,1.58c0.57,0.33,1.13,0.65,1.69,0.95c0.27,0.15,0.55,0.31,0.83,0.46
	c0.28,0.15,0.56,0.3,0.83,0.43c0.28,0.14,0.56,0.28,0.83,0.42c0.55,0.27,1.09,0.53,1.64,0.79c0.28,0.12,0.55,0.24,0.82,0.36
	l0.81,0.34c0.27,0.12,0.54,0.23,0.81,0.33c0.27,0.11,0.53,0.21,0.81,0.32c0.24,0.08,0.48,0.17,0.72,0.27
	c0.06,0.01,0.12,0.04,0.17,0.06c0.51,0.17,0.99,0.35,1.49,0.5c0.26,0.08,0.52,0.17,0.78,0.25c0.11,0.03,0.23,0.06,0.34,0.09v0.01
	c0.01,0,0.03,0.01,0.04,0.01c0.19,0.04,0.37,0.1,0.57,0.16c0.01,0.01,0.04,0.01,0.06,0.01c0.18,0.05,0.35,0.11,0.54,0.15
	c0.26,0.06,0.51,0.12,0.77,0.19c0.33,0.08,0.67,0.16,1,0.23c0.17,0.04,0.34,0.07,0.51,0.11c0.2,0.04,0.4,0.07,0.6,0.11
	c0.16,0.03,0.3,0.06,0.45,0.08c0.14,0.03,0.29,0.05,0.43,0.08c0.47,0.06,0.92,0.13,1.38,0.19c0.27,0.02,0.53,0.05,0.8,0.08
	c0.23,0.02,0.47,0.04,0.69,0.05c0.22,0.02,0.44,0.03,0.66,0.04c0.25,0.02,0.5,0.03,0.75,0.03h0.23c1.83,0.03,3.92-0.19,6.2-0.6
	c0.1-0.02,0.19-0.03,0.28-0.06c0.86-0.15,1.72-0.34,2.62-0.55c0.29-0.07,0.59-0.14,0.89-0.22c0.14-0.04,0.27-0.07,0.41-0.11
	c0.65-0.17,1.32-0.35,1.99-0.54c0.16-0.05,0.32-0.1,0.49-0.14c0.39-0.12,0.77-0.24,1.16-0.36c0.44-0.13,0.87-0.28,1.33-0.43
	c0.41-0.14,0.85-0.29,1.28-0.42c0.15-0.06,0.29-0.1,0.44-0.16c0.5-0.18,1.01-0.36,1.52-0.53c1.55-0.58,3.12-1.2,4.7-1.85
	c0.51-0.22,1.03-0.43,1.53-0.65c4.3-1.85,8.66-4.01,12.81-6.34c0.47-0.26,0.94-0.53,1.42-0.8c1.71-0.99,3.37-2,4.98-3.04
	c0.53-0.35,1.06-0.69,1.59-1.04c0.33-0.21,0.66-0.44,0.98-0.66c0.32-0.23,0.64-0.45,0.96-0.67c0.32-0.22,0.63-0.45,0.94-0.68
	c0.31-0.21,0.62-0.44,0.92-0.67c0.41-0.29,0.8-0.59,1.2-0.89c0.52-0.41,1.02-0.81,1.52-1.21c0.45-0.38,0.9-0.75,1.32-1.12H404
	c0.45-0.39,0.87-0.77,1.28-1.15c0.22-0.19,0.45-0.4,0.66-0.6c0.38-0.36,0.75-0.72,1.1-1.08c0.1-0.1,0.19-0.21,0.3-0.31
	c0.81-0.85,1.7-1.9,2.67-3.15c0.24-0.29,0.47-0.61,0.72-0.93c0.24-0.34,0.5-0.67,0.76-1.03c0.11-0.16,0.24-0.33,0.37-0.49
	c0-0.01,0.01-0.02,0.02-0.03c0.09-0.16,0.2-0.31,0.32-0.46c0.61-0.86,1.24-1.76,1.89-2.72
	C414.02,307.57,413.94,307.24,413.86,306.91z M336.13,301.93c-0.46-0.21-0.91-0.43-1.35-0.66c-0.28-0.14-0.56-0.28-0.84-0.43
	c-0.61-0.31-1.21-0.62-1.8-0.95c-0.09-0.05-0.18-0.1-0.27-0.15c-0.58-0.32-1.15-0.65-1.71-0.98c-0.03-0.02-0.07-0.04-0.1-0.07
	c-0.11-0.06-0.22-0.12-0.33-0.19c-0.17-0.1-0.33-0.2-0.5-0.3c-0.19-0.11-0.37-0.22-0.56-0.34c-0.1-0.07-0.2-0.14-0.3-0.2
	c-0.55-0.34-1.08-0.67-1.6-1.02c-0.52-0.34-1.03-0.68-1.54-1.04c-0.65-0.45-1.29-0.91-1.91-1.37c-0.15-0.11-0.31-0.23-0.46-0.35
	c-0.12-0.09-0.24-0.18-0.36-0.27c-0.81-0.6-1.59-1.21-2.34-1.83c-0.17-0.13-0.33-0.27-0.49-0.4c-0.01-0.01-0.01-0.01-0.02-0.01
	c-0.19-0.15-0.38-0.31-0.57-0.47c-0.16-0.14-0.33-0.28-0.49-0.42c-0.33-0.27-0.66-0.55-0.98-0.83c-0.07-0.05-0.12-0.1-0.18-0.15
	c-0.41-0.35-0.8-0.7-1.19-1.05c-0.26-0.23-0.51-0.46-0.76-0.68c-0.63-0.57-1.25-1.14-1.84-1.7c-0.24-0.23-0.5-0.46-0.74-0.7
	c-0.2-0.18-0.39-0.36-0.58-0.54c-1.92-1.82-3.68-3.55-5.34-5.1l-0.01-0.01c0,0-0.01,0-0.02-0.01l-0.02-0.02
	c-0.01-0.01-0.01-0.01-0.02-0.02c-0.04-0.04-0.08-0.08-0.12-0.12c-0.04-0.04-0.09-0.08-0.13-0.13c-0.06-0.05-0.13-0.11-0.19-0.16
	c-0.01-0.01-0.02-0.02-0.03-0.03l-0.09-0.1l-0.01-0.01l-0.03-0.03h-0.01c-0.01,0-0.01,0-0.01,0c-0.01-0.01-0.02-0.02-0.02-0.02
	c-0.01,0-0.01-0.01-0.02-0.01v-0.01h-0.01v-0.01h-0.01v-0.01h-0.01v-0.01c-0.01,0-0.01,0-0.02-0.01h-0.01c-0.01,0-0.01,0-0.01-0.01
	c0.04,0,0.06,0,0.09-0.01c0.01,0,0.03-0.01,0.04,0c0.07-0.02,0.13-0.03,0.2-0.04c0.06-0.01,0.11-0.02,0.16-0.03
	c0.27-0.04,0.65-0.11,1.13-0.19c0.25-0.05,0.52-0.09,0.8-0.13h0.03c0.24-0.05,0.5-0.09,0.78-0.13h0.01l0.32-0.02h0.01
	c0.26-0.05,0.52-0.08,0.8-0.12c0.27-0.05,0.54-0.08,0.82-0.13c0.75-0.11,1.55-0.21,2.37-0.34c0.05,0,0.09,0,0.13-0.01h0.05
	c9.09-1.29,22.05-2.85,30.54-2.66c0.15,0,0.31,0.01,0.46,0.02c3,0.09,5.4,0.4,6.8,1.04c0.03,0.02,0.07,0.03,0.1,0.05
	c0.02,0,0.03,0.01,0.04,0.02c0.07,0.03,0.13,0.07,0.2,0.1c0.32,0.18,0.8,0.23,1.47,0.04c0.09-0.02,0.2-0.06,0.3-0.1
	c0.26-0.1,0.54-0.22,0.84-0.38c4.54-2.42,17.37-0.88,27.82,0.95c0.01,0.04,6.09,1.19,10.5,2.07c2.42,0.49,4.33,0.89,4.51,1.01v0.02
	h-0.02c0,0.01-0.01,0.01-0.01,0.01c0,0.01-0.01,0.01-0.01,0.01s0,0-0.01,0c-0.02,0.03-0.03,0.04-0.05,0.05
	c-0.1,0.08-0.2,0.18-0.31,0.27c-0.19,0.16-0.39,0.33-0.6,0.51c-0.08,0.06-0.16,0.12-0.24,0.19c-0.03,0.03-0.07,0.06-0.1,0.09
	c-0.04,0.03-0.07,0.06-0.11,0.08c-0.18,0.15-0.36,0.31-0.55,0.48c-1.23,1.05-2.65,2.25-4.23,3.54c-0.42,0.34-0.85,0.7-1.29,1.05
	c-1.59,1.29-3.34,2.65-5.21,4.04c-0.2,0.14-0.4,0.28-0.6,0.43c-0.7,0.52-1.41,1.03-2.14,1.54c-1.26,0.89-2.57,1.78-3.93,2.65
	c-0.45,0.29-0.91,0.58-1.37,0.87c-0.69,0.44-1.38,0.86-2.09,1.28c-0.47,0.28-0.94,0.55-1.41,0.82c-0.99,0.58-2,1.13-3.03,1.67
	c-0.83,0.44-1.67,0.87-2.52,1.28c-0.3,0.15-0.6,0.29-0.9,0.43c-0.61,0.29-1.22,0.57-1.84,0.84c-1.06,0.48-2.14,0.93-3.23,1.35
	c-0.17,0.06-0.34,0.13-0.52,0.19h-0.01c-0.04,0.02-0.09,0.04-0.13,0.05c-0.05,0.02-0.1,0.03-0.15,0.05
	c-0.04,0.02-0.09,0.03-0.13,0.05c-0.05,0.01-0.1,0.03-0.14,0.04c-0.14,0.05-0.29,0.1-0.44,0.15c-0.23,0.07-0.47,0.14-0.71,0.21
	c-0.06,0.02-0.11,0.04-0.17,0.05c-0.06,0.02-0.12,0.03-0.17,0.04c-0.13,0.04-0.24,0.07-0.37,0.11c-0.05,0.01-0.09,0.02-0.14,0.03
	c-0.05,0-0.1,0.02-0.14,0.03c-0.02,0-0.03,0-0.05,0.01c-0.16,0.04-0.31,0.08-0.47,0.12c-0.08,0.02-0.16,0.04-0.24,0.06
	c-0.08,0.02-0.16,0.04-0.24,0.05c-0.1,0.01-0.19,0.04-0.29,0.06c-0.13,0.03-0.25,0.05-0.38,0.08c-0.36,0.08-0.72,0.14-1.1,0.2
	c-0.64,0.1-1.32,0.19-2,0.26c-0.46,0.05-0.93,0.09-1.4,0.12c-0.25,0.02-0.5,0.03-0.75,0.04c-0.51,0.03-1.02,0.03-1.55,0.03
	c-0.14,0-0.29,0-0.43,0h-0.28c-0.21-0.01-0.43-0.02-0.64-0.03h-0.04l-0.57-0.03c-0.11-0.01-0.23-0.02-0.35-0.03
	c-0.05,0-0.09-0.01-0.14-0.01c-0.05-0.01-0.1-0.01-0.14-0.01c-0.2-0.02-0.41-0.04-0.61-0.07c-0.57-0.06-1.15-0.14-1.72-0.24
	c-0.09-0.02-0.18-0.03-0.27-0.05c-0.29-0.05-0.58-0.12-0.88-0.18c-0.02-0.01-0.04-0.01-0.06-0.02c-0.14-0.03-0.28-0.06-0.42-0.1
	c-0.24-0.05-0.46-0.11-0.69-0.18c-0.9-0.24-1.8-0.54-2.68-0.9c-0.34-0.14-0.68-0.28-1.01-0.43c-0.34-0.14-0.67-0.28-1-0.43
	C337.42,302.54,336.77,302.24,336.13,301.93z"/>
<path class="st1" d="M346.15,257.59c-0.36-2.06-1.03-3.91-2.16-5.3c-3.55,0.39-12.92,1.19-18.71-0.45l-0.01-0.01h-0.01
	c-2.17-0.63-3.83-1.59-4.49-3.06c0,0,1.21-3.51,5.33-4.88h0.01c1.67-0.57,3.81-0.77,6.53-0.27c2.74,0.52,4.59,1.19,5.92,1.9
	c-2.53-5.95-1.94-14.07-0.62-21.9c1.82-10.74,0-34.11,0-49.01c0-0.19,0.01-0.39,0.02-0.6c0-0.23,0.01-0.46,0.02-0.69
	c0.12-2.78,0.61-5.84,1.34-9.01c0.81-3.51,1.91-7.11,3.09-10.56c-0.05,0-0.1,0.01-0.15,0.01c-2.99,0.14-5.92,0.32-8.77,0.55
	c-14.65,1.16-27.04,3.43-32.85,5.98c-4.98,2.19-9.58,6.66-13.59,12.53c1.69-0.55,4.04-1.28,6.67-1.97c0.03-0.01,0.07-0.01,0.09-0.02
	c4.39-1.15,9.59-2.18,13.96-2.06c0.44,0.01,0.9,0.04,1.35,0.07c1.14-0.07,2.24-0.1,3.3-0.07c0.34,0.01,0.69,0.03,1.04,0.05
	c0.68,0.03,1.39,0.08,2.1,0.15c0.7,0.08,1.42,0.17,2.12,0.27c1.43,0.21,2.85,0.47,4.24,0.76c0.35,0.07,0.69,0.15,1.04,0.23
	c0.69,0.16,1.37,0.32,2.03,0.49c2.49,0.62,4.8,1.31,6.7,1.93c0.25,0.09,0.5,0.17,0.74,0.24c1.35,0.46,2.46,0.86,3.24,1.15
	c0.08,0.03,0.16,0.06,0.23,0.08c0.58,0.22,0.93,0.36,1.01,0.39c0.02,0.01,0.03,0.01,0.03,0.01v25.33l-6.85-5.78v0.02
	c0.03,0.03,0.06,0.07,0.08,0.09c0.07,0.08,0.12,0.14,0.17,0.2c0.02,0.03,0.03,0.05,0.05,0.07l-0.02-0.01l-0.28-0.09
	c0.08,0.09,0.14,0.16,0.18,0.22h-0.02l-14.64-4.92c0.24,0.27,1.06,1.34,0.76,3.21c-0.02,0.09-0.03,0.17-0.04,0.26
	c-0.03,0.24-0.07,0.44-0.09,0.61c-0.03,0.17-0.06,0.32-0.07,0.45c-0.02,0.13-0.04,0.26-0.07,0.36c-0.1,0.53-0.25,0.85-0.83,2.09
	l-0.06,0.01c-0.02,0.03-0.04,0.08-0.06,0.11l-14.22,0.85c0,0-0.92-1.41,0-4.62c0,0,0.29-0.87,0.68-1.2
	c0.01-0.01,0.02-0.02,0.03-0.03c-1.01,0.32-2.05,0.65-3.15,0.98c-4.29,1.28-6.25,2.36-7.12,3.15c-0.05,0.04-0.08,0.08-0.13,0.12
	c-0.7,0.8-0.28,1.23-0.28,1.23h-7.29c0,0,1.08-0.58,2.91-1.45l-6.8-9.49c-4.18,9.72-7.11,20.8-8.31,31.15
	c-1.45,12.43,2.46,42.18,2.56,42.94c0,0.01,0,0.02,0,0.02c3.1,7.16,7.08,15.82,11.62,24.59c0.09,0.17,0.17,0.33,0.26,0.5
	c1.59,3.05,3.24,6.11,4.97,9.12c0.21,0.37,0.42,0.74,0.63,1.1c0.1-0.48,0.21-0.96,0.33-1.43c0.1-0.45,0.21-0.89,0.31-1.33
	c0.11-0.43,0.2-0.84,0.31-1.25c0.09-0.4,0.2-0.8,0.29-1.18c0.1-0.37,0.19-0.74,0.29-1.1c2.92-11.29,5.58-17.24,6.31-18.59
	c-0.1-0.19,0.04-0.05,0.04-0.1c0-0.01,0-0.02-0.01-0.03c0-0.01-0.01-0.02-0.01-0.03c8.63-6.68,22.05-9.69,22.05-9.69
	s12.03-3.05,20.79-3.3c1.22-0.03,2.53-0.07,3.94-0.08c0.13,0,0.27,0,0.41-0.01H346.15z M325.76,223.43c0.27-0.24,0.46-0.4,0.54-0.47
	c-0.03,0.04-0.07,0.09-0.13,0.16c-0.06,0.06-0.1,0.12-0.17,0.18c0.02-0.02,0.03-0.04,0.04-0.06c0.06-0.07,0.11-0.12,0.14-0.16
	c-0.08,0.08-0.28,0.24-0.55,0.47C325.67,223.5,325.72,223.47,325.76,223.43z M294.32,198.7c1.31,0.25,6.96,1.28,14.75,1.68
	c9.24,0.49,16.37-3.77,16.24-3.52c-0.07,0.13-0.15,0.26-0.25,0.39c-0.07,0.1-0.16,0.2-0.25,0.3c-0.06,0.06-0.12,0.13-0.18,0.19
	c-0.08,0.08-0.16,0.15-0.25,0.23c-2.71,2.45-9.99,4.06-13.81,4.07c-3.55,0-14.67-2.79-16.42-3.22c0.34,0.05,1.03,0.19,2.02,0.35
	C295.33,198.96,294.67,198.8,294.32,198.7z M292.18,263.75c0,0,0,0,0.01,0c0.67-1.2,11.14-18.36,16.87-26.9
	c1.21-1.81,2.52-3.61,3.8-5.33c1.31-1.73,2.61-3.37,3.84-4.88c0.28-0.35,0.55-0.7,0.83-1.03c0.75-0.91,1.47-1.77,2.11-2.54
	c0.39-0.46,0.77-0.89,1.11-1.28c0.15-0.19,0.29-0.34,0.43-0.5c0.43-0.5,0.8-0.91,1.11-1.27c0.18-0.2,0.35-0.38,0.48-0.54
	c0.25-0.28,0.42-0.47,0.49-0.53c-0.03,0.03-0.06,0.09-0.12,0.17c-0.05,0.07-0.1,0.16-0.18,0.26c-0.03,0.04-0.06,0.08-0.1,0.13
	c-0.06,0.1-0.13,0.19-0.2,0.31c-0.19,0.27-0.41,0.57-0.65,0.94c-0.11,0.15-0.21,0.29-0.33,0.46c-0.11,0.17-0.23,0.34-0.36,0.52
	c-0.08,0.13-0.18,0.27-0.29,0.42c-0.22,0.32-0.47,0.68-0.73,1.07c-0.15,0.21-0.31,0.44-0.47,0.66c-1.5,2.16-3.38,4.89-5.47,7.88
	c-0.17,0.27-0.36,0.53-0.54,0.79c-0.59,0.86-1.21,1.74-1.83,2.63c-0.34,0.51-0.69,1.01-1.05,1.53c-0.35,0.5-0.71,1.01-1.06,1.52
	c-0.47,0.69-0.95,1.38-1.43,2.07c-0.24,0.34-0.48,0.69-0.72,1.03c-0.84,1.22-1.68,2.43-2.5,3.62c-0.17,0.26-0.34,0.5-0.52,0.74
	c-0.65,0.95-1.3,1.88-1.93,2.79c-0.23,0.33-0.46,0.67-0.69,0.99c-1.47,2.14-2.89,4.17-4.15,5.99c-0.17,0.24-0.34,0.49-0.5,0.73
	c-0.38,0.53-0.72,1.05-1.06,1.53c-0.18,0.26-0.34,0.49-0.51,0.72c-0.26,0.38-0.51,0.74-0.74,1.07c-0.14,0.2-0.26,0.38-0.38,0.57
	c-0.03,0.01-0.05,0.03-0.05,0.06c-0.12,0.17-0.25,0.35-0.36,0.51c-0.2,0.29-0.39,0.56-0.55,0.79c-0.06,0.09-0.11,0.17-0.17,0.25
	c-0.85,1.24-1.38,1.99-1.45,2.09C292.17,263.78,292.17,263.76,292.18,263.75z M292.16,263.8c0.01,0,0.01,0,0.01,0s0,0.01-0.01,0.01
	V263.8z M424.51,186.6l-6.81,9.49c0.03,0.02,0.06,0.04,0.08,0.04c1.07,0.51,1.87,0.91,2.34,1.16c0.07,0.04,0.13,0.07,0.19,0.1
	c0.08,0.04,0.15,0.08,0.19,0.1s0.07,0.04,0.09,0.05c0.01,0.01,0.02,0.01,0.02,0.01l4.8-9.57l2.92-6.73L424.51,186.6z M452.96,238.07
	c-0.05,0.08-0.1,0.21-0.15,0.31c-0.36,0.67-0.76,1.44-1.2,2.27c-0.2,0.4-0.43,0.82-0.66,1.26c-0.05,0.11-0.12,0.23-0.18,0.35
	c-0.08,0.15-0.17,0.3-0.24,0.46c-0.09,0.16-0.17,0.32-0.27,0.48c-0.05,0.1-0.1,0.21-0.16,0.32c-0.11,0.21-0.22,0.43-0.33,0.64
	c-0.61,1.15-1.28,2.4-1.98,3.72c-0.16,0.32-0.34,0.63-0.5,0.95c-0.91,1.69-1.87,3.5-2.9,5.39c-0.27,0.5-0.55,1.01-0.82,1.54
	c-0.03,0.06-0.07,0.12-0.1,0.18c-0.22,0.4-0.44,0.8-0.65,1.21c-0.06,0.1-0.1,0.18-0.16,0.28c-0.21,0.4-0.43,0.8-0.65,1.2
	c-0.05,0.1-0.11,0.2-0.16,0.31c-0.2,0.37-0.4,0.74-0.61,1.12c-1.58,2.9-3.24,5.93-4.96,9.02c-0.32,0.59-0.64,1.17-0.97,1.76
	c-0.3,0.54-0.6,1.08-0.91,1.62c-0.18,0.34-0.37,0.68-0.56,1.02c-0.46,0.81-0.92,1.63-1.38,2.45c-0.23,0.42-0.47,0.85-0.71,1.26
	c-0.3,0.54-0.61,1.08-0.91,1.62c-0.52,0.91-1.05,1.83-1.57,2.75c-0.32,0.56-0.63,1.1-0.96,1.66c-0.7,1.23-1.41,2.45-2.11,3.67
	c-0.29,0.49-0.58,0.97-0.87,1.47c-0.34,0.6-0.69,1.19-1.04,1.79c-0.23,0.37-0.45,0.75-0.67,1.11c-0.11,0.19-0.22,0.38-0.33,0.56
	c-0.33,0.56-0.66,1.11-1,1.67c-0.48,0.82-0.98,1.63-1.47,2.43c-0.96,1.61-1.93,3.16-2.86,4.66c-0.48,0.75-0.94,1.48-1.4,2.2
	c-0.61,0.96-1.21,1.89-1.8,2.78c-0.3,0.44-0.57,0.88-0.86,1.3c-0.02,0.01-0.03,0.04-0.04,0.05c0.08,0.33,0.16,0.66,0.23,0.98
	c0.23-0.34,0.46-0.68,0.69-1.03c0.29-0.42,0.57-0.86,0.87-1.3c0.59-0.89,1.19-1.82,1.79-2.78c0.46-0.72,0.93-1.45,1.4-2.2
	c0.94-1.5,1.9-3.05,2.87-4.66c0.49-0.8,0.98-1.61,1.47-2.43c0.33-0.56,0.67-1.11,1-1.67c0.11-0.18,0.21-0.37,0.33-0.56
	c0.22-0.36,0.43-0.74,0.67-1.11c0.35-0.6,0.69-1.19,1.03-1.79c0.3-0.5,0.59-0.98,0.88-1.47c0.7-1.22,1.41-2.44,2.11-3.67
	c0.32-0.55,0.64-1.1,0.95-1.66c0.53-0.92,1.06-1.84,1.58-2.75c0.3-0.54,0.6-1.08,0.91-1.62c0.24-0.41,0.48-0.84,0.71-1.26
	c0.46-0.82,0.92-1.64,1.37-2.45c0.2-0.34,0.38-0.68,0.57-1.02c0.31-0.54,0.61-1.08,0.91-1.62c0.33-0.59,0.65-1.17,0.96-1.76
	c1.72-3.09,3.38-6.12,4.97-9.02c0.2-0.38,0.4-0.75,0.6-1.12c0.06-0.11,0.11-0.21,0.17-0.31c0.22-0.4,0.44-0.8,0.65-1.2
	c0.05-0.1,0.1-0.18,0.16-0.28c0.2-0.41,0.43-0.81,0.64-1.21c0.04-0.06,0.08-0.12,0.1-0.18c0.28-0.53,0.56-1.04,0.83-1.54
	c1.02-1.89,1.99-3.7,2.89-5.39c0.17-0.32,0.34-0.63,0.51-0.95c0.7-1.32,1.36-2.57,1.98-3.72c0.1-0.21,0.21-0.43,0.32-0.64
	c0.07-0.11,0.12-0.22,0.17-0.32c0.1-0.16,0.18-0.32,0.26-0.48c0.08-0.16,0.16-0.31,0.25-0.46c0.06-0.12,0.12-0.24,0.18-0.35
	c0.23-0.44,0.45-0.86,0.65-1.26c0.45-0.83,0.85-1.6,1.2-2.27c0.06-0.1,0.11-0.22,0.16-0.31c0.11-0.2,0.21-0.4,0.31-0.59l0.21-1.29
	l0.19-1.18C454.56,235.01,453.99,236.12,452.96,238.07z"/>
<path class="st4" d="M397.51,280.01c-3.35,1.74-10.64,5.91-15.33,7.81c-0.47,0.19-0.91,0.36-1.33,0.5
	c-0.38,0.13-0.76,0.26-1.14,0.38c-0.19,0.06-0.37,0.12-0.56,0.18c-1.86,0.59-3.66,1.06-5.44,1.44c-6.11,1.33-11.91,1.59-18.71,1.61
	h-0.16c-3.5,0.01-7.27-0.04-11.48-0.04c-0.74,0-1.46-0.01-2.14-0.02c-4.13-0.08-7.21-0.37-10.23-0.82c-1.81-0.27-3.59-0.6-5.56-0.97
	c-0.42-0.08-1.01-0.29-1.73-0.6c-0.42-0.19-0.88-0.41-1.38-0.66c-2.31-1.16-5.34-2.95-8.16-4.69c-0.58-0.36-1.15-0.71-1.7-1.06
	c-0.04-0.03-0.08-0.05-0.12-0.09c-1.96-1.32-3.38-2.35-4.22-2.92c-0.26-0.16-0.84-0.48-1.3-0.72c-0.16-0.09-0.3-0.15-0.41-0.21
	c-0.09-0.05-0.16-0.09-0.22-0.11h-0.01c-0.01,0-0.01,0-0.01-0.01l2.19,0.23l5.42,0.57c0,0,5.31,3.81,10.44,5.08
	c0.22,1.92,0.63,3.8,1.4,4.22c1.4,0.1,2.79,0.13,4.24,0.13c4.16-0.01,8.79-0.34,15.31-0.34c12.64,0,19.88,0.5,29.43-0.43
	c1.34-0.13,2.71-0.29,4.16-0.48c0.4-0.74,0.65-1.66,0.79-2.64c3.04-0.74,3.98-2.06,9.31-4.89c0.09,0,0.19,0,0.29-0.01
	c0.45-0.01,0.89-0.04,1.33-0.05c0.14-0.01,0.28-0.01,0.41-0.01c0.15-0.01,0.26-0.01,0.31-0.01c0.01,0,0.03,0,0.03,0
	c0.36-0.01,0.69-0.03,1.03-0.04C394.52,280.23,396.33,280.13,397.51,280.01z"/>
<path class="st5" d="M379.57,285.35c-0.14,0.99-0.39,1.9-0.79,2.64c-1.45,0.19-2.83,0.35-4.16,0.48c0.26-0.75,0.45-1.55,0.58-2.36
	C375.95,286.05,377.44,285.87,379.57,285.35z"/>
<path class="st5" d="M397.51,280.01c-0.04,0.03-0.09,0.06-0.14,0.09c-0.12,0.08-0.25,0.17-0.39,0.26c-0.34,0.22-0.69,0.46-1.06,0.71
	c-0.09,0.06-0.17,0.11-0.26,0.17c-1.34,0.86-3.39,2.15-6.04,3.71c-0.01,0-0.01,0.01-0.02,0.01c-2.83,1.17-6.76,2.74-10.32,4.02
	c-0.61,0.22-1.2,0.43-1.78,0.63c-1.6,0.54-3.05,1-4.24,1.31c0.16-0.19,0.31-0.39,0.44-0.6c1.78-0.38,3.58-0.85,5.44-1.44
	c0.19-0.06,0.37-0.12,0.56-0.18c0.38-0.12,0.76-0.25,1.14-0.38c0.41-0.14,0.86-0.31,1.33-0.5
	C386.87,285.92,394.16,281.75,397.51,280.01z"/>
<path class="st5" d="M331.98,291.56c-0.92-0.09-1.79-0.19-2.61-0.3c-0.17-0.03-0.35-0.05-0.51-0.08c-2.71-0.43-4.78-1.03-6.21-1.73
	c-0.01-0.01-0.02-0.01-0.03-0.01c-0.06-0.04-0.11-0.07-0.16-0.1c-0.01-0.01-0.03-0.02-0.05-0.03c-1.66-0.82-2.5-1.46-2.65-1.59
	c-0.01-0.01-0.02-0.01-0.02-0.01c-0.01-0.01-0.01-0.01-0.01-0.01c-1.94-1.17-3.67-2.27-5.19-3.27c-0.74-0.49-1.44-0.95-2.07-1.37
	c0.55,0.34,1.12,0.7,1.7,1.06c2.82,1.74,5.85,3.52,8.16,4.69c0.5,0.26,0.96,0.47,1.38,0.66c0.71,0.31,1.31,0.52,1.73,0.6
	c1.97,0.37,3.76,0.7,5.56,0.97C331.28,291.26,331.61,291.43,331.98,291.56z"/>
<path class="st3" d="M269.11,276.59c-0.01,0-0.02-0.01-0.03-0.01"/>
<path class="st5" d="M275.9,180.86c-0.13-0.08-0.22-0.16-0.29-0.26c-0.01-0.02-0.03-0.05-0.04-0.08c-0.02-0.05-0.04-0.11-0.04-0.16
	L275.9,180.86z"/>
<path class="st1" d="M473.9,403.22c0,2.31-0.9,6.48-2.49,11.88c-8.08,27.5-33.66,86.83-45.27,94.23c-0.8,0.51-1.54,0.77-2.2,0.76
	c-1.78-0.05-4.03-0.55-6.69-1.48V337.17c0.44-0.43,0.88-0.84,1.32-1.27c0.38-0.36,0.74-0.72,1.12-1.09
	c0.03-0.02,0.05-0.04,0.08-0.07c0.13-0.12,0.27-0.26,0.39-0.38c0.14-0.14,0.28-0.28,0.42-0.42c0.65-0.64,1.29-1.29,1.92-1.95
	c0.4-0.4,0.79-0.81,1.16-1.21c0.38-0.4,0.76-0.8,1.13-1.21c0.53-0.56,1.05-1.14,1.56-1.72c0.71-0.8,1.41-1.61,2.09-2.43
	c0.5-0.59,0.99-1.18,1.46-1.78c0.48-0.59,0.95-1.19,1.41-1.81c0.46-0.61,0.92-1.22,1.36-1.83c0.31-0.43,0.63-0.86,0.92-1.3
	c0.03-0.04,0.06-0.08,0.08-0.12c0.32-0.45,0.63-0.91,0.93-1.38c0.25-0.36,0.49-0.73,0.72-1.11c0.69-1.06,1.34-2.14,1.94-3.24
	c0.16-0.28,0.31-0.55,0.46-0.83c0.03-0.04,0.06-0.08,0.07-0.12c0.02-0.03,0.04-0.05,0.04-0.08c0.19-0.34,0.38-0.69,0.54-1.03
	c0.07-0.11,0.13-0.22,0.18-0.33c0.04-0.07,0.07-0.14,0.1-0.2c0.31-0.59,0.59-1.19,0.87-1.79v-0.01c1.44-3.09,2.58-6.28,3.38-9.57
	l0.56-2.27c0,0,4.72,0.91,8.27-1v0.01c0.18,5.02,0.4,11.02,0.64,17.44c0.03,0.71,0.05,1.38,0.07,2c0.02,0.5,0.04,0.96,0.05,1.38
	c0.01,0.15,0.01,0.28,0.01,0.41c0.89,23.05,2.07,49.64,2.95,53.8c0.37,1.75,1.55,3.63,3.15,5.67l0.02,0.01
	c2.11,2.7,4.95,5.68,7.61,9.01C470.28,390.41,473.9,396.29,473.9,403.22z"/>
<linearGradient id="SVGID_1_" gradientUnits="userSpaceOnUse" x1="286.18" y1="422.2251" x2="426.14" y2="422.2251">
	<stop  offset="0" style="stop-color:#F2A86A"/>
	<stop  offset="0.9832" style="stop-color:#FABF8E"/>
</linearGradient>
<path class="st6" d="M426.14,509.33c-0.8,0.51-1.54,0.77-2.2,0.76c-1.78-0.05-4.03-0.55-6.69-1.48h-0.01v-0.17
	c-3.78-1.32-8.36-3.46-13.52-6.26c-14.72-8.6-32.59-20.49-47.51-31.72c-0.96-0.73-1.93-1.46-2.89-2.2h-0.01
	c-1.07-0.82-2.14-1.65-3.2-2.47c-0.13-0.12-0.27-0.22-0.4-0.32c-0.01,0-0.01-0.01-0.02-0.01c-0.01-0.01-0.01-0.01-0.02-0.02
	c-0.38-0.3-0.77-0.6-1.15-0.9c-9.56-7.49-18.91-15.28-27.35-22.83c-1.4-1.27-2.78-2.51-4.12-3.75c-0.9-0.82-1.79-1.65-2.67-2.47
	c-0.87-0.83-1.73-1.64-2.57-2.44c-2.11-2.01-4.13-4-6.05-5.95c-0.76-0.77-1.5-1.54-2.24-2.3c-0.37-0.38-0.73-0.76-1.08-1.14
	c-0.36-0.38-0.71-0.75-1.05-1.12c-0.3-0.32-0.6-0.65-0.9-0.97c-1.77-1.93-3.41-3.8-4.9-5.59c-0.25-0.29-0.49-0.59-0.73-0.88v-0.01
	c-0.83-1.02-1.61-2.02-2.33-2.98c-0.17-0.23-0.33-0.45-0.5-0.67c-0.04-0.06-0.09-0.13-0.13-0.19c-0.13-0.18-0.26-0.36-0.38-0.53
	c-0.13-0.17-0.25-0.34-0.36-0.5c-0.13-0.19-0.26-0.37-0.37-0.55c-0.08-0.12-0.17-0.25-0.26-0.37c-0.03-0.03-0.05-0.07-0.07-0.11
	c-0.02-0.02-0.02-0.03-0.03-0.05c-0.21-0.31-0.41-0.61-0.6-0.91c-0.07-0.11-0.14-0.21-0.2-0.31l-0.57-0.93v-0.01
	c-0.15-0.25-0.3-0.49-0.42-0.73c-0.42-0.73-0.78-1.43-1.09-2.1c-0.02-0.05-0.05-0.11-0.07-0.15c-0.09-0.21-0.18-0.42-0.26-0.62
	c-0.08-0.18-0.15-0.36-0.22-0.53c-0.12-0.32-0.23-0.64-0.32-0.95c-0.06-0.17-0.11-0.33-0.15-0.49c-0.01-0.01-0.01-0.03-0.02-0.04
	c0.01-0.01,0-0.01,0-0.02c-0.06-0.22-0.11-0.44-0.15-0.66c-0.01-0.06-0.03-0.13-0.04-0.19c-0.03-0.19-0.06-0.37-0.08-0.55
	c-0.01-0.09-0.02-0.17-0.03-0.26c-0.01-0.16-0.02-0.31-0.02-0.46c0-0.05-0.01-0.1-0.01-0.14c0-0.07,0.01-0.13,0.01-0.19
	c0-0.11,0.01-0.22,0.02-0.32c0-0.07,0.01-0.14,0.02-0.2c0-0.04,0-0.07,0.01-0.1c0.01-0.11,0.03-0.21,0.05-0.31
	c0.14-0.65,0.4-1.22,0.81-1.71v-0.01c0.38-0.45,0.74-0.93,1.09-1.44v-0.01c0.35-0.51,0.68-1.04,1.01-1.6c0,0,0,0,0-0.01
	c0.33-0.56,0.64-1.14,0.94-1.74c0.3-0.61,0.59-1.24,0.87-1.89c0.2-0.47,0.39-0.94,0.58-1.43c0.37-0.97,0.73-1.98,1.06-3.02
	c0.16-0.52,0.33-1.05,0.48-1.58c0.12-0.45,0.25-0.91,0.38-1.38l0.15-0.57c0.05-0.2,0.1-0.39,0.15-0.58c0-0.02,0-0.04,0.01-0.07
	c0.01-0.01,0.01-0.01,0.01-0.02v-0.01c3.94-15.85,3.73-36.04,3.59-41.32c0-0.11,0-0.21-0.01-0.3c0-0.18,0-0.34-0.01-0.48
	c0-0.35-0.01-0.53-0.01-0.53c3.09,4.45,6.33,8.59,9.69,12.21c0.42,0.45,0.84,0.89,1.27,1.33c0.93,0.95,1.87,1.86,2.81,2.73
	c0.32,0.29,0.63,0.57,0.95,0.84c0,0,0,0.01,0.01,0.01c0.03,0.02,0.05,0.05,0.08,0.07c0.28,0.25,0.57,0.5,0.86,0.73
	c0.3,0.26,0.61,0.51,0.92,0.75c0.17,0.15,0.34,0.28,0.51,0.4c0.16,0.13,0.32,0.25,0.48,0.37c0.23,0.18,0.46,0.35,0.69,0.52
	c0.36,0.26,0.73,0.52,1.09,0.76c0.23,0.16,0.45,0.31,0.68,0.46c0.71,0.46,1.42,0.9,2.14,1.33c0.45,0.27,0.91,0.53,1.37,0.79
	c0.22,0.13,0.44,0.25,0.67,0.37c0.05,0.03,0.1,0.06,0.15,0.08v0.01c0.05,0.03,0.1,0.06,0.16,0.08c0.1,0.06,0.2,0.11,0.31,0.16
	c0.06,0.04,0.12,0.07,0.17,0.1c0.15,0.08,0.31,0.16,0.47,0.24v0.01c0.36,0.19,0.72,0.37,1.08,0.55c0.01,0,0.02,0.01,0.03,0.01v0.01
	c0.23,0.11,0.45,0.22,0.67,0.32c0.13,0.07,0.26,0.13,0.39,0.19c0.4,0.19,0.8,0.37,1.21,0.56c0.76,0.35,1.52,0.68,2.29,0.99
	c0.56,0.23,1.13,0.45,1.7,0.67c0.18,0.07,0.36,0.14,0.53,0.2c0.06,0.02,0.11,0.04,0.17,0.06c0.23,0.09,0.45,0.17,0.68,0.25
	c0.08,0.03,0.16,0.06,0.23,0.08c0.06,0.02,0.12,0.04,0.18,0.06v0.01c0.4,0.14,0.79,0.27,1.18,0.4c0.39,0.13,0.79,0.25,1.18,0.37
	c0.04,0.01,0.08,0.03,0.12,0.04c1.15,0.36,2.3,0.68,3.46,0.98c0.79,0.21,1.59,0.4,2.4,0.57c0.8,0.18,1.6,0.34,2.4,0.49
	c2.12,0.39,4.24,0.69,6.36,0.89c0.4,0.04,0.79,0.08,1.19,0.11c1.51,0.12,3.01,0.19,4.51,0.22c0.32,0.01,0.63,0.01,0.93,0.01
	c0.39,0,0.78-0.01,1.16-0.01c0.15,0,0.3-0.01,0.45-0.01c9.15-0.15,17.9-2.11,25.25-5.77c0.11-0.06,0.21-0.11,0.32-0.17
	c0.49-0.24,0.99-0.5,1.47-0.77c0.55-0.28,1.1-0.6,1.63-0.94c0.5-0.29,0.99-0.6,1.47-0.93c0.04-0.02,0.07-0.05,0.11-0.07
	c0.28-0.18,0.55-0.37,0.82-0.56c0.89-0.63,1.76-1.29,2.58-1.98c0.42-0.36,0.85-0.72,1.28-1.08c0.82-0.68,1.65-1.37,2.5-2.06
	c0.42-0.34,0.86-0.7,1.3-1.06c1.3-1.07,2.64-2.16,4.01-3.28c0,0,0,0.01,0.01,0c0.57-0.47,1.14-0.94,1.71-1.41
	c0.55-0.44,1.1-0.9,1.66-1.36c0.73-0.61,1.47-1.22,2.21-1.84c0.94-0.79,1.9-1.6,2.85-2.42c0.72-0.6,1.43-1.22,2.14-1.84
	c0.11-0.1,0.23-0.2,0.35-0.31c0.49-0.42,0.97-0.84,1.44-1.27c0.6-0.52,1.19-1.06,1.79-1.6c0.35-0.32,0.69-0.63,1.04-0.94
	c0.34-0.32,0.69-0.64,1.03-0.96c0.02-0.02,0.05-0.05,0.09-0.08c0.12-0.1,0.24-0.21,0.35-0.34c0.01,0.01,0.01,0.01,0.01,0
	c0.15-0.14,0.31-0.28,0.45-0.43h0.01c0.44-0.43,0.88-0.84,1.32-1.27c0.38-0.36,0.74-0.72,1.12-1.09c0.03-0.02,0.05-0.04,0.08-0.07
	c0.13-0.12,0.27-0.26,0.39-0.38L426.14,509.33z"/>
<path class="st7" d="M288.19,394.81c-0.36,0.5-0.72,0.99-1.09,1.44C287.48,395.8,287.84,395.32,288.19,394.81z"/>
<line class="st2" x1="458.62" y1="376.34" x2="458.6" y2="376.34"/>
<path class="st8" d="M398.02,272.87c-0.03,0.18-0.1,0.36-0.2,0.51c-0.03,0.04-0.06,0.08-0.1,0.11c-0.01,0.02-0.02,0.03-0.03,0.03
	c-0.01,0.02-0.02,0.03-0.03,0.04c0.03-0.03,0.05-0.07,0.07-0.11c0.06-0.08,0.1-0.17,0.11-0.25c0.02-0.05,0.03-0.1,0.04-0.15
	c0.01-0.04,0.01-0.09,0.02-0.13v-0.06c0.02-0.13,0.01-0.27-0.01-0.39c-0.02-0.09-0.03-0.18-0.04-0.27v-0.03c0-0.01,0-0.01-0.01-0.02
	c-0.02-0.09-0.04-0.17-0.07-0.26c-0.02-0.09-0.05-0.17-0.08-0.24c-0.05-0.14-0.1-0.27-0.15-0.37c-0.01-0.01-0.01-0.02-0.02-0.03
	c-0.02-0.04-0.03-0.09-0.05-0.11c-0.02-0.04-0.03-0.07-0.04-0.09c-0.01-0.01-0.01-0.01-0.01-0.01s-0.02-0.03-0.06-0.1
	c-0.04-0.05-0.11-0.14-0.19-0.25c-0.08-0.11-0.18-0.24-0.3-0.4c-0.11-0.16-0.24-0.32-0.38-0.51c-0.1-0.13-0.21-0.28-0.33-0.43
	c-0.11-0.15-0.24-0.3-0.36-0.45c-0.01-0.03-0.03-0.04-0.05-0.06c-0.1-0.13-0.2-0.27-0.31-0.41c-0.08-0.09-0.14-0.17-0.21-0.27
	c-0.16-0.19-0.31-0.38-0.48-0.57c-0.1-0.15-0.23-0.28-0.34-0.42c0-0.01-0.01-0.01-0.01-0.01c-0.11-0.14-0.24-0.28-0.35-0.4
	c-0.03-0.04-0.06-0.07-0.1-0.11c-0.01,0-0.01-0.01-0.02-0.01c-0.14-0.16-0.27-0.3-0.4-0.45c-0.06-0.07-0.12-0.14-0.18-0.2
	c-0.13-0.13-0.25-0.26-0.37-0.38c-0.06-0.07-0.12-0.13-0.18-0.18c-0.12-0.12-0.24-0.24-0.36-0.33l-0.03-0.03
	c0.2,0.1,0.39,0.21,0.57,0.3c0.11,0.11,0.24,0.24,0.37,0.37c0.06,0.06,0.12,0.12,0.18,0.19c0.07,0.07,0.13,0.14,0.19,0.21
	c0,0,0,0.01,0.01,0.01c0.11,0.12,0.23,0.25,0.34,0.38c0,0,0.01,0,0.01,0.01c0.06,0.06,0.12,0.13,0.17,0.2
	c0.02,0.02,0.03,0.03,0.04,0.06c0,0,0,0,0.01,0c0.11,0.13,0.24,0.27,0.35,0.41c0.16,0.19,0.3,0.37,0.46,0.56
	c0.08,0.1,0.15,0.18,0.23,0.28c0.07,0.09,0.14,0.18,0.21,0.27c0.07,0.1,0.15,0.19,0.23,0.28c0.07,0.1,0.14,0.18,0.21,0.27
	c0.42,0.54,0.78,1.03,1.06,1.38c0.22,0.3,0.37,0.51,0.44,0.6c0.03,0.04,0.04,0.07,0.04,0.07s0,0,0.01,0.01
	c0.04,0.08,0.33,0.62,0.44,1.23c0.02,0.06,0.03,0.12,0.03,0.18C398.04,272.53,398.04,272.7,398.02,272.87z"/>
<line class="st2" x1="380.86" y1="274.03" x2="380.85" y2="274.03"/>
<path class="st2" d="M307.05,275.15"/>
<path class="st2" d="M307.72,275.14"/>
<path class="st2" d="M380.79,273.6c0-0.02,0-0.03,0-0.03"/>
<path class="st3" d="M460.31,154.42"/>
<path class="st3" d="M460.59,154.64"/>
<path class="st9" d="M397.16,132.97c-17.65-3.39-31.64-5.01-31.64-5.01c-18.55-2.53-35.18-3.24-49.27-3.04
	c1.01-0.29,23.37-6.4,38.82-4.98C370.87,121.39,385.39,124,397.16,132.97z"/>
<path class="st10" d="M448.9,147.82c-14.51-6.69-34.8-11.59-51.73-14.84l-0.01-0.01c-11.77-8.96-26.29-11.58-42.1-13.04
	c-15.44-1.42-37.8,4.69-38.82,4.98h-0.02c-18.32,0.26-32.35,2.06-40.69,3.38c0.59-0.64,25.42-27.82,64.54-29.27
	c39.59-1.46,75.58,17.02,75.58,17.02S451.16,140.28,448.9,147.82z"/>
<path class="st3" d="M275.54,128.29C275.53,128.29,275.53,128.29,275.54,128.29"/>
<path class="st3" d="M316.23,124.91c-0.01,0.01-0.01,0.01-0.01,0.01"/>
<path class="st8" d="M476.9,241.36c-1.05-4.23-2.66-8.05-4.69-10.91c-6.32-8.88-7.88-12.81-13.86-13l-1.05,6.35
	c0.31-12.31-8.67-34.14-14.15-46.27c-2.33-5.14-4.02-8.55-4.12-8.75c6.35,5.56,11.56,10.77,13.74,14.37
	c6.53,10.83,21.51,42.98,23.84,55.62c0,0.02,0.01,0.03,0.01,0.04c0,0.01,0.01,0.03,0.01,0.03c0.01,0.03,0.01,0.04,0.01,0.07
	c0.03,0.19,0.06,0.37,0.1,0.56c0.03,0.21,0.06,0.41,0.09,0.61c0,0.03,0,0.05,0.01,0.08c0.02,0.13,0.03,0.25,0.03,0.37
	c0.01,0.13,0.03,0.27,0.03,0.4c0.01,0.05,0.01,0.1,0.01,0.15v0.06C476.9,241.21,476.9,241.29,476.9,241.36z"/>
<path class="st3" d="M457.27,224.58"/>
<path class="st3" d="M457.29,223.8"/>
<path class="st3" d="M451.74,295.62c-0.01,0-0.01,0.01-0.01,0.01"/>
<path d="M330.37,194.44l-0.28-0.09l-14.73-4.94l-1.61-0.54l-0.14-0.04h0.4c2.11,0.04,4.14,0.79,6.6,1.47
	c4.16,1.17,8.14,3.28,9.39,3.94c0.03,0.01,0.06,0.03,0.08,0.04C330.23,194.37,330.32,194.42,330.37,194.44z"/>
<path class="st2" d="M307.45,131.84C307.45,131.84,307.45,131.84,307.45,131.84"/>
<path class="st11" d="M283.74,181.67c0.05,0,0.11,0,0.17-0.01c-0.09,0.01-0.16,0.01-0.24,0.01
	C283.7,181.68,283.72,181.68,283.74,181.67z"/>
<linearGradient id="SVGID_2_" gradientUnits="userSpaceOnUse" x1="291.0566" y1="246.1355" x2="477.4339" y2="246.1355">
	<stop  offset="0.0251" style="stop-color:#F2A86A"/>
	<stop  offset="0.5126" style="stop-color:#F5B27A"/>
	<stop  offset="1" style="stop-color:#FABF8E"/>
</linearGradient>
<path class="st12" d="M446.01,159.92c-0.58-0.12-10.44-0.56-22.87-4.49c-0.25-0.08-0.51-0.16-0.76-0.24
	c-21.06-6.63-47.68-13.54-67.98-8.61c-1.73,0.43-3.42,0.93-5.06,1.54c-1.05,0.38-2.08,0.8-3.08,1.27c-1.47,0.69-2.67,1.98-3.61,3.64
	c-0.14,0.23-0.27,0.46-0.39,0.71c-1.5,2.93-2.39,6.8-2.94,10.55c-0.27,1.82-0.45,3.61-0.59,5.24c-0.15,1.71-0.24,3.25-0.3,4.48
	c-0.01,0.21-0.02,0.41-0.02,0.6c0,14.89,1.82,38.27,0,49.01c-1.32,7.82-1.92,15.95,0.62,21.9c0.05,0.12,0.1,0.24,0.17,0.36
	c0.92,2.08,2.26,3.87,4.11,5.28c0.41,0.31,0.78,0.67,1.1,1.07c0.02,0.02,0.03,0.04,0.05,0.06c1.13,1.38,1.8,3.23,2.16,5.29v0.02
	c0.06,0.37,0.11,0.73,0.15,1.11v0.02c0.41,3.54-0.02,7.5-0.56,10.68c-0.01,0.01-0.01,0.02-0.01,0.03s0,0.01,0,0.02
	c-0.01,0.01-0.01,0.03-0.01,0.03c-0.05,0.3-0.1,0.58-0.16,0.86v0.01c-0.37,1.97-0.77,3.55-0.99,4.42v0.02
	c-0.04,0.17-0.09,0.3-0.11,0.4v0.01c-0.06,0.2-0.1,0.31-0.1,0.31l-16.56,2.26l-21.28,1.26h-0.01l-0.11,0.01h-0.03l-0.07,0.01h-0.03
	c-0.01,0-0.01,0-0.01,0h-0.01l-0.1,0.01h-0.02l-0.24,0.02h-0.07l-0.26,0.02l0.92,0.6c0.01,0.01,0.02,0.01,0.02,0.01l1.46,0.96
	c0,0,0.01,0.01,0.02,0.01l10.17,6.64l0.01,0.01l17.73,11.56l2.82,0.98l8.42,2.94l-0.04,2.6v0.03l-0.07,3.8v0.01l-0.24,14.24
	c0,0-1.83,1.05-3.86,2.8l-0.18,0.16c-3.93,3.45-8.41,9.49-1.72,15.62l0.01,0.01c0.07,0.06,0.13,0.11,0.2,0.17
	c0.02,0.02,0.03,0.03,0.06,0.05c0.04,0.04,0.09,0.08,0.13,0.12c0.02,0.01,0.03,0.03,0.04,0.04c0.04,0.03,0.1,0.07,0.14,0.11
	c0.78,0.65,1.7,1.31,2.75,1.96c16.56,10.21,1.74,18.24,1.74,18.24s-65.05-47.36-76.64-79.61c-0.35-0.96-0.64-1.9-0.89-2.83
	c-0.23-0.84-0.44-1.69-0.66-2.54c-0.14-0.55-0.28-1.1-0.41-1.65c-0.03-0.09-0.04-0.18-0.07-0.27c-3.33-13.37-6.01-28.2-7.35-42.39
	c-0.01-0.06-0.01-0.12-0.02-0.18c-0.12-1.32-0.24-2.65-0.33-3.95c0.01-0.02,0.01-0.03,0-0.03c-0.24-3.16-0.4-6.28-0.49-9.33
	c-0.01-0.23-0.03-0.47-0.03-0.7c-0.04-1.61-0.06-3.21-0.04-4.78v-0.15c0.04-11.26,1.32-21.36,4.25-28.98
	c7.68-20.02,13.56-33.1,19.29-41.52c0.26-0.38,0.52-0.74,0.77-1.11l0.01-0.02c3.71-5.21,7.38-8.49,11.46-10.48
	c0.02-0.01,0.03-0.02,0.03-0.02c0.01-0.01,0.01-0.01,0.02-0.01c5.71-2.77,12.24-3.04,20.82-2.48c8.08,0.53,15.08,1.38,20.61,2.24
	c0.02,0,0.03,0,0.04,0.01c5.78,0.87,35.82,2.87,54.17,4.08h0.09c0.27,0.03,0.54,0.04,0.8,0.06c7.84,0.51,13.34,0.87,13.51,0.91
	c0.01,0,0.98,0.55,2.6,1.46c0.05,0.03,0.1,0.06,0.17,0.1c0.01,0.01,0.01,0.01,0.01,0.01c0.01,0,0.01,0,0.01,0
	C417.29,143.68,445.04,159.36,446.01,159.92z"/>
<path class="st11" d="M283.74,181.67c0.05,0,0.11,0,0.17-0.01c-0.09,0.01-0.16,0.01-0.24,0.01
	C283.7,181.68,283.72,181.68,283.74,181.67z"/>
<line class="st2" x1="275.95" y1="180.93" x2="275.91" y2="180.87"/>
<path class="st5" d="M428.75,180.67c0,0.05-0.02,0.11-0.03,0.17c-0.02,0.03-0.03,0.05-0.04,0.08c-0.07,0.1-0.16,0.18-0.29,0.26
	l-0.01,0.01c-0.03,0.03-0.06,0.04-0.1,0.06c-1.35,0.73-5.15,0.71-5.6,0.78h-0.03c-0.02,0.01-0.1,0.01-0.24,0.01
	c-0.12,0-0.3,0-0.51-0.01h-0.22c-0.31-0.01-0.7-0.03-1.13-0.04c-0.04,0-0.1,0-0.17-0.01c-0.39-0.01-0.83-0.03-1.3-0.05
	c-0.24-0.01-0.48-0.02-0.73-0.03c-0.46-0.03-0.93-0.04-1.42-0.07c-0.19,0-0.39-0.02-0.59-0.03c-0.21-0.01-0.41-0.02-0.62-0.03
	c-0.24-0.01-0.49-0.03-0.73-0.03c-0.16-0.01-0.31-0.02-0.46-0.03c-0.27-0.02-0.54-0.03-0.81-0.03c-0.64-0.03-1.25-0.06-1.84-0.09
	c-0.19-0.01-0.38-0.02-0.57-0.03c-2.12-0.1-3.67-0.18-3.67-0.18s-10.17-1.39-21.98-1.63c-3.41-0.07-6.96-0.04-10.44,0.16h-0.12
	c-2.6,0.15-5.17,0.37-7.6,0.72c-0.05,0.01-0.1,0.02-0.14,0.03v-5.84c0,0,13.57-5.47,24.52-5.75c1.06-0.03,2.16,0,3.3,0.07
	c0.33,0.02,0.65,0.04,0.99,0.07c3.9,0.31,8.03,1.08,11.67,1.92c0.03,0.01,0.08,0.01,0.1,0.02c4.31,0.98,7.93,2.06,9.7,2.56
	c0.68,0.2,1.09,0.3,1.15,0.29c0.42-0.09,8.04,4.2,9.71,6.11c0.14,0.16,0.21,0.29,0.24,0.42
	C428.74,180.59,428.75,180.63,428.75,180.67z"/>
<path class="st11" d="M410.09,198.98c-0.3,0.08-1.02,0.26-1.99,0.5c0,0,0,0-0.01,0c-3.81,0.93-11.64,2.75-14.51,2.75
	c-3.76,0-10.88-1.58-13.68-3.95c-0.09-0.08-0.17-0.16-0.25-0.24c-0.3-0.29-0.52-0.58-0.68-0.88c-0.13-0.24,7,4.02,16.25,3.53
	C403.29,200.28,409.07,199.18,410.09,198.98z"/>
<path d="M413.32,197.55c0,0,0.42-0.44-0.29-1.23c-0.04-0.03-0.08-0.08-0.12-0.12c-0.79-0.81-2.74-1.93-7.25-3.28
	c-1.1-0.33-2.14-0.65-3.14-0.97l-3.14,0.31l-0.2,0.03l-1.07,0.1l-6.25,0.64h-0.01l-3.79,0.39l-0.11,0.01c0-0.09-0.02-0.17-0.03-0.26
	c-0.3-1.87,0.51-2.93,0.76-3.21c0.04-0.04,0.07-0.07,0.07-0.07s0.05-0.07,0.17-0.17l-14.73,4.93l-0.3,0.1
	c0.06-0.09,0.17-0.22,0.32-0.39c1.37-1.55,6.42-6.27,16.99-6.07c9.05,0.17,20.24,4.84,25.85,7.48c0.03,0.02,0.07,0.03,0.11,0.05
	c0,0,0.01,0.01,0.03,0.01c0.03,0.02,0.06,0.03,0.09,0.04c0.03,0.02,0.05,0.03,0.08,0.03c0.09,0.04,0.21,0.1,0.35,0.17
	c0.03,0.02,0.05,0.03,0.08,0.04c1.06,0.51,1.86,0.91,2.33,1.16c0.07,0.03,0.13,0.07,0.19,0.1c0.08,0.04,0.15,0.08,0.19,0.1
	c0.03,0.02,0.07,0.03,0.09,0.04c0.02,0.01,0.03,0.01,0.03,0.01H413.32z"/>
<path d="M403.23,197.79l-3.24-0.19l-0.08-0.01l-10.84-0.64l-0.06-0.01c-0.93-1.98-0.75-1.62-1.06-3.51c0-0.09-0.02-0.17-0.03-0.26
	c-0.3-1.87,0.51-2.93,0.76-3.21c0.04-0.04,0.07-0.07,0.07-0.07s0.05-0.07,0.17-0.17c0.21-0.16,0.61-0.41,1.34-0.59
	c0.02,0,0.03-0.01,0.03-0.01l0.03,0.01l0.2,0.04l3.75,0.86l0.02,0.01c0.01,0,0.01,0,0.01,0l2.68,0.62h0.01l5.53,1.28
	c0.04,0.03,0.09,0.07,0.12,0.12l0.03,0.02c0.32,0.38,0.56,1.08,0.56,1.08C404.15,196.38,403.23,197.79,403.23,197.79z"/>
<ellipse transform="matrix(0.0684 -0.9977 0.9977 0.0684 176.0543 572.8425)" class="st13" cx="394.77" cy="192.15" rx="2.09" ry="3.34"/>
<path class="st11" d="M428.33,181.25l-3.82,5.35l-6.8,9.49c-0.14-0.06-0.26-0.12-0.35-0.17c-0.03-0.01-0.05-0.02-0.08-0.03
	c-0.03-0.01-0.06-0.03-0.09-0.04c-0.02,0-0.03-0.01-0.03-0.01c-0.04-0.02-0.08-0.03-0.11-0.05c-5.61-2.64-16.8-7.31-25.85-7.48
	c-10.57-0.2-15.62,4.52-16.99,6.07l-6.87,5.79v-19.49c0.04-0.01,0.09-0.02,0.14-0.03c2.44-0.35,5-0.57,7.6-0.72h0.12
	c3.48-0.2,7.03-0.23,10.44-0.16c11.8,0.24,21.98,1.63,21.98,1.63s1.55,0.08,3.67,0.18c0.19,0.01,0.38,0.02,0.57,0.03
	c0.58,0.03,1.2,0.06,1.84,0.09c0.27,0.01,0.54,0.02,0.81,0.03c0.15,0.01,0.3,0.02,0.46,0.03c0.24,0,0.49,0.02,0.73,0.03
	c0.21,0.01,0.41,0.02,0.62,0.03c0.2,0.01,0.4,0.03,0.59,0.03c0.49,0.03,0.96,0.04,1.42,0.07c0.25,0.01,0.5,0.02,0.73,0.03
	c0.47,0.03,0.91,0.04,1.3,0.05c0.06,0.01,0.12,0.01,0.17,0.01c0.44,0.02,0.82,0.03,1.13,0.04h0.22c0.22,0.01,0.39,0.01,0.51,0.01
	c0.14,0,0.23,0,0.24-0.01h0.03c0.25,0.01,0.44,0.01,0.57,0.01c0.1,0,0.15,0,0.17-0.01C423.63,181.96,427.12,182,428.33,181.25z"/>
<path class="st11" d="M428.33,181.25l-2.92,6.73l-4.8,9.56c0,0-0.01,0-0.03-0.01c-0.02-0.01-0.05-0.03-0.09-0.04
	c-0.04-0.03-0.11-0.06-0.19-0.1c-0.06-0.03-0.12-0.06-0.19-0.1c-0.62-0.3-1.66-0.82-2.33-1.16c-0.03-0.01-0.05-0.03-0.08-0.04
	l6.8-9.49L428.33,181.25z"/>
<path class="st14" d="M389.17,280.45c0.34-0.01,0.88-0.04,1.33-0.05C390.06,280.41,389.62,280.43,389.17,280.45z"/>
<path class="st14" d="M391.23,280.37c-0.11,0.01-0.21,0.01-0.31,0.01C391.06,280.38,391.18,280.37,391.23,280.37z"/>
<path class="st0" d="M270.61,128.92"/>
<path class="st0" d="M275.53,121.33"/>
<path class="st15" d="M291.45,295.96c0-0.01,0-0.01,0-0.01c0.02-0.08,0.04-0.16,0.06-0.24"/>
<path class="st15" d="M299.78,270.9c0,0-0.06,0.1-0.17,0.31"/>
<path class="st1" d="M304.51,275.07L304.51,275.07z"/>
<path class="st15" d="M296.37,304.07c0-0.01,0-0.01,0-0.01c0-0.1,0-0.2,0.01-0.31"/>
<linearGradient id="SVGID_3_" gradientUnits="userSpaceOnUse" x1="449.9337" y1="297.7026" x2="444.887" y2="311.0531">
	<stop  offset="0" style="stop-color:#F2A86A"/>
	<stop  offset="0.9832" style="stop-color:#FABF8E"/>
</linearGradient>
<path class="st16" d="M452.5,316.86c-3.55,1.91-12.99-8.39-12.99-8.39l0.01-0.01l9.44-34.16c-0.12,0.76-0.86,6.15,2.29,7.29
	c0,0,0.84,23.6,1.18,33.49c0.02,0.49,0.04,0.96,0.05,1.38C452.5,316.6,452.5,316.73,452.5,316.86z"/>
<path class="st17" d="M325.56,251.97"/>
<g class="st18">
	<path class="st2" d="M410.77,288.11"/>
</g>
<g class="st18">
	<path class="st2" d="M410.83,267.9"/>
</g>
<g class="st18">
	<path class="st2" d="M424.91,273.09"/>
</g>
<g class="st18">
	<path class="st2" d="M415.69,243.33"/>
</g>
<line class="st19" x1="640.86" y1="479.22" x2="640.86" y2="479.22"/>
<path class="st8" d="M455.45,235.01l-6.46,39.21l-0.02,0.09l-9.44,34.15l-0.01,0.02c-4.94,10.66-13.27,20.23-22.27,28.7
	c-0.3,0.29-0.6,0.57-0.91,0.85c-0.69,0.63-1.37,1.26-2.06,1.89c-7.6,6.89-15.45,13.04-21.97,18.46c-0.44,0.36-0.86,0.71-1.29,1.07
	c-0.82,0.69-1.68,1.35-2.58,1.99c-0.27,0.19-0.54,0.37-0.82,0.56c-8.24,5.51-19.15,8.45-30.7,8.66c-0.38,0-0.78,0.01-1.16,0.01
	c-0.3,0-0.62,0-0.93-0.01c-12.76-0.22-26.11-3.88-37.4-11.2c-7.05-4.57-13.87-12.29-20.04-21.18c0,0,0.02,0.47,0.03,1.31
	c-0.3-0.44-0.61-0.87-0.92-1.31c-13.81-19.85-24.41-45.55-27.03-55.11c-0.13-0.51-0.24-0.95-0.34-1.36
	c-0.27-1.19-0.52-2.54-0.75-4.01c-0.06-0.4-0.12-0.8-0.18-1.22c-0.01-0.11-0.03-0.24-0.04-0.36c-1.83-12.98-2.19-32.82-2.19-33.22
	c0.05,0.08,0.37,0.88,0.92,2.27c0,0,0.01,0.01,0,0.02c0.01,0.01,0.01,0.01,0.02,0.02c1.14,2.9,3.31,8.32,6.25,15.08
	c0,0.01,0,0.02,0,0.02c3.09,7.16,7.06,15.82,11.62,24.59c0.08,0.17,0.17,0.33,0.25,0.5c1.79,3.42,3.65,6.86,5.59,10.23
	c0.08,0.11,0.15,0.24,0.23,0.38c0.53,0.96,1.24,2.27,1.99,3.7c0.02,0.03,0.03,0.05,0.04,0.09c1.59,2.97,3.41,6.39,4.48,8.07
	c0.01-0.3,0.02-0.61,0.04-0.97c0.01-0.08,0.02-0.17,0.02-0.27c0.04,0.06,0.08,0.11,0.11,0.17c0.33,0.49,0.66,0.98,1,1.45
	c0.2,0.29,0.41,0.58,0.62,0.87c0.21,0.31,0.44,0.61,0.65,0.91c0.27,0.37,0.54,0.75,0.81,1.11c1.07,1.45,2.16,2.86,3.26,4.21
	c0.28,0.33,0.55,0.67,0.83,1c0.28,0.34,0.57,0.67,0.84,1c0.27,0.32,0.55,0.64,0.83,0.96c0.27,0.31,0.55,0.63,0.83,0.93
	c0.24,0.28,0.48,0.54,0.72,0.8c0.24,0.26,0.47,0.52,0.71,0.78c0.08,0.09,0.16,0.17,0.24,0.25c0.4,0.44,0.8,0.86,1.21,1.27
	c0.4,0.43,0.81,0.83,1.21,1.23c0.27,0.27,0.54,0.54,0.81,0.8c0.05,0.04,0.1,0.1,0.15,0.14c0.29,0.28,0.57,0.56,0.85,0.82
	c0.61,0.57,1.21,1.14,1.83,1.68c0.24,0.23,0.49,0.44,0.73,0.65c0.85,0.75,1.71,1.48,2.57,2.17c0.42,0.36,0.84,0.7,1.28,1.03
	c0.43,0.33,0.84,0.66,1.27,0.98c0.03,0.02,0.05,0.03,0.07,0.06c0.55,0.39,1.1,0.79,1.64,1.18c0.28,0.2,0.57,0.4,0.85,0.59
	c0.24,0.17,0.48,0.32,0.71,0.49c0.04,0.03,0.1,0.06,0.13,0.09c0.29,0.19,0.57,0.38,0.85,0.56c0.84,0.56,1.69,1.08,2.53,1.58
	c0.57,0.33,1.12,0.65,1.68,0.95c0.28,0.17,0.56,0.32,0.84,0.46c0.28,0.15,0.56,0.3,0.83,0.44c0.28,0.14,0.56,0.29,0.83,0.42
	c0.56,0.27,1.11,0.53,1.65,0.78l0.81,0.37c0.27,0.11,0.54,0.24,0.82,0.34c0.27,0.11,0.53,0.23,0.8,0.33
	c0.27,0.11,0.55,0.22,0.81,0.31c0.24,0.09,0.48,0.17,0.71,0.27c0.06,0.02,0.12,0.04,0.17,0.06c0.51,0.17,0.99,0.35,1.49,0.51
	c0.26,0.08,0.53,0.17,0.78,0.24c0.51,0.16,1.04,0.3,1.54,0.44c0.03,0,0.05,0.01,0.08,0.02c0.22,0.05,0.44,0.11,0.64,0.17
	c0.02,0,0.03,0.01,0.05,0.01c0.33,0.09,0.67,0.17,1.01,0.23c0.16,0.04,0.33,0.07,0.5,0.1c0.21,0.04,0.41,0.08,0.61,0.11
	c0.15,0.03,0.3,0.06,0.44,0.08c0.15,0.03,0.29,0.05,0.44,0.08c0.18,0.03,0.37,0.06,0.56,0.08l0.13,0.03
	c1.49,0.24,2.94,0.37,4.35,0.41c11.16,0.28,32.35-8.52,46.98-18.62c0.32-0.23,0.64-0.44,0.96-0.67c0.31-0.21,0.63-0.44,0.94-0.67
	c0.31-0.22,0.62-0.44,0.92-0.67c0.41-0.3,0.8-0.59,1.19-0.9c0.52-0.4,1.03-0.8,1.52-1.21c0.45-0.37,0.9-0.75,1.32-1.11H404
	c0.44-0.39,0.86-0.77,1.28-1.15c1.98,4.76,4.74-2.77,6.59-7.62c0.1-0.16,0.2-0.31,0.32-0.46c0.61-0.85,1.24-1.76,1.89-2.72
	c0.23-0.34,0.46-0.68,0.69-1.03c0.29-0.43,0.57-0.86,0.87-1.31c0.59-0.89,1.19-1.82,1.79-2.78c0.46-0.71,0.92-1.45,1.39-2.2
	c0.94-1.5,1.9-3.05,2.87-4.66c0.49-0.8,0.98-1.61,1.47-2.43c0.33-0.56,0.66-1.11,0.99-1.67c0.11-0.18,0.22-0.37,0.33-0.56
	c0.22-0.37,0.44-0.74,0.67-1.11c0.35-0.59,0.7-1.18,1.04-1.79c0.3-0.5,0.58-0.98,0.87-1.47c0.71-1.22,1.41-2.44,2.12-3.67
	c0.31-0.55,0.64-1.11,0.95-1.66c0.53-0.91,1.05-1.84,1.58-2.75c0.3-0.54,0.6-1.07,0.91-1.61c0.24-0.42,0.48-0.84,0.71-1.26
	c0.46-0.82,0.92-1.64,1.37-2.45c0.2-0.34,0.38-0.68,0.57-1.02c0.3-0.54,0.61-1.09,0.91-1.63c0.33-0.58,0.65-1.17,0.97-1.75
	c1.72-3.09,3.38-6.12,4.97-9.02c0.2-0.38,0.4-0.75,0.6-1.12c0.06-0.1,0.11-0.21,0.17-0.3c0.23-0.4,0.44-0.8,0.65-1.2
	c0.05-0.1,0.1-0.18,0.16-0.28c0.21-0.41,0.44-0.81,0.64-1.21c0.04-0.06,0.08-0.12,0.1-0.18c0.28-0.52,0.56-1.04,0.83-1.54
	c1.02-1.89,1.99-3.69,2.88-5.38c0.17-0.32,0.35-0.64,0.51-0.95c0.7-1.32,1.36-2.57,1.98-3.73c0.1-0.21,0.22-0.43,0.32-0.64
	c0.07-0.11,0.12-0.22,0.17-0.32c0.1-0.16,0.17-0.31,0.26-0.48c0.08-0.16,0.16-0.3,0.24-0.45c0.06-0.12,0.12-0.24,0.18-0.36
	c0.23-0.44,0.45-0.85,0.65-1.25c0.44-0.84,0.84-1.6,1.19-2.27c0.06-0.1,0.11-0.22,0.17-0.31c0.1-0.2,0.21-0.39,0.3-0.58l0.21-1.29
	c0.53-0.62,0.94-1.02,1.03-1.1c-0.01,0.03-0.02,0.04-0.03,0.08l0.06-0.1C455.43,235.03,455.45,235.01,455.45,235.01z"/>
<path class="st8" d="M455.19,235.5c0.07-0.14,0.13-0.25,0.17-0.33L455.19,235.5z"/>
<path class="st8" d="M455.42,235.07l-0.06,0.1c0.02-0.03,0.03-0.05,0.03-0.08c0.01,0,0.01-0.01,0.01-0.01
	C455.41,235.08,455.42,235.07,455.42,235.07z"/>
<path class="st8" d="M297.41,306.99c-0.03,0.35-0.04,0.67-0.05,0.96c-1.07-1.67-2.89-5.1-4.47-8.06c-0.01-0.04-0.03-0.06-0.05-0.09
	c-0.76-1.43-1.46-2.74-1.99-3.7c1.5,2.61,3.06,5.17,4.65,7.66c0.2,0.33,0.41,0.66,0.62,0.98c0.44,0.67,0.87,1.33,1.31,1.98v0.01
	C297.42,306.81,297.41,306.9,297.41,306.99z"/>
<path class="st8" d="M317.43,359.45c11.29,7.33,24.64,10.99,37.4,11.21c-13.11-0.14-26.86-3.79-38.29-11.21
	c-6.69-4.34-13.19-11.53-19.12-19.86c-0.01-0.84-0.04-1.31-0.04-1.31C303.56,347.16,310.39,354.87,317.43,359.45z"/>
<path class="st8" d="M454.56,235.01l-0.19,1.18l-0.21,1.29c-0.1,0.19-0.2,0.38-0.3,0.58c-0.05,0.1-0.1,0.21-0.17,0.31
	c-0.35,0.67-0.75,1.44-1.19,2.27c-0.2,0.4-0.43,0.82-0.65,1.25c-0.06,0.11-0.12,0.24-0.18,0.36c-0.09,0.15-0.17,0.3-0.24,0.45
	c-0.09,0.17-0.17,0.32-0.26,0.48c-0.05,0.1-0.1,0.21-0.17,0.32c-0.1,0.21-0.22,0.43-0.32,0.64c-0.62,1.16-1.28,2.4-1.98,3.73
	c-0.17,0.31-0.34,0.63-0.51,0.95c-0.9,1.69-1.86,3.49-2.88,5.38c-0.27,0.51-0.55,1.02-0.83,1.54c-0.03,0.06-0.06,0.12-0.1,0.18
	c-0.21,0.4-0.44,0.8-0.64,1.21c-0.05,0.1-0.1,0.18-0.16,0.28c-0.21,0.4-0.43,0.8-0.65,1.2c-0.05,0.1-0.1,0.2-0.17,0.3
	c-0.2,0.37-0.4,0.74-0.6,1.12c-1.59,2.9-3.25,5.93-4.97,9.02c-0.31,0.58-0.64,1.17-0.97,1.75c-0.3,0.54-0.6,1.09-0.91,1.63
	c-0.19,0.34-0.37,0.68-0.57,1.02c-0.44,0.81-0.91,1.63-1.37,2.45c-0.23,0.42-0.47,0.84-0.71,1.26c-0.31,0.54-0.61,1.07-0.91,1.61
	c-0.52,0.91-1.05,1.84-1.58,2.75c-0.31,0.56-0.64,1.11-0.95,1.66c-0.71,1.23-1.41,2.45-2.12,3.67c-0.29,0.49-0.57,0.98-0.87,1.47
	c-0.34,0.6-0.69,1.19-1.04,1.79c-0.24,0.37-0.45,0.75-0.67,1.11c-0.11,0.19-0.22,0.37-0.33,0.56c-0.33,0.56-0.66,1.11-0.99,1.67
	c-0.5,0.82-0.98,1.63-1.47,2.43c-0.98,1.61-1.93,3.16-2.87,4.66c-0.47,0.75-0.93,1.48-1.39,2.2c-0.6,0.96-1.2,1.89-1.79,2.78
	c-0.3,0.44-0.58,0.88-0.87,1.31c-0.23,0.35-0.46,0.69-0.69,1.03c-0.65,0.96-1.28,1.86-1.89,2.72c-0.12,0.15-0.23,0.3-0.32,0.46
	c-1.86,4.85-4.62,12.39-6.59,7.62c-0.42,0.38-0.84,0.76-1.28,1.15h-0.01c-0.43,0.37-0.87,0.74-1.32,1.11c-0.5,0.4-1,0.8-1.52,1.21
	c-0.39,0.3-0.78,0.6-1.19,0.9c-0.3,0.23-0.61,0.45-0.92,0.67c-0.3,0.23-0.62,0.45-0.94,0.67c-0.31,0.23-0.64,0.44-0.96,0.67
	c-14.63,10.1-35.82,18.9-46.98,18.62c-1.4-0.03-2.86-0.17-4.35-0.41c0.23,0.03,0.46,0.06,0.69,0.09c0.26,0.03,0.52,0.05,0.79,0.09
	c0.24,0.02,0.47,0.03,0.7,0.04c0.23,0.03,0.44,0.03,0.66,0.04c0.24,0.02,0.5,0.03,0.74,0.03c0.29,0.01,0.57,0.01,0.89,0h0.24
	c12.97-0.34,37.42-11.34,51.27-22.62c0.45-0.37,0.9-0.75,1.32-1.11h0.01c0.68-0.59,1.32-1.18,1.94-1.75
	c0.37-0.36,0.75-0.72,1.1-1.08c0.1-0.1,0.2-0.21,0.3-0.31c0.81-0.84,1.7-1.9,2.67-3.14c0.24-0.3,0.47-0.61,0.71-0.93
	c0.25-0.34,0.51-0.67,0.77-1.03c0.23-0.32,0.46-0.64,0.71-0.98c0.61-0.85,1.25-1.76,1.89-2.72c0.22-0.32,0.44-0.64,0.66-0.98
	c0.01-0.01,0.02-0.03,0.03-0.04c0.29-0.43,0.57-0.86,0.86-1.31c0.59-0.89,1.19-1.82,1.8-2.78c0.45-0.71,0.91-1.45,1.39-2.2
	c0.93-1.5,1.9-3.05,2.87-4.66c0.49-0.8,0.98-1.61,1.47-2.43c0.33-0.56,0.66-1.11,0.99-1.67c0.11-0.18,0.23-0.37,0.33-0.56
	c0.22-0.37,0.44-0.74,0.67-1.11c0.35-0.59,0.7-1.18,1.05-1.79c0.29-0.5,0.57-0.98,0.86-1.47c0.71-1.22,1.41-2.44,2.12-3.67
	c0.32-0.56,0.64-1.11,0.96-1.66c0.52-0.91,1.05-1.84,1.57-2.75c0.3-0.54,0.61-1.07,0.91-1.61c0.24-0.42,0.48-0.84,0.71-1.26
	c0.46-0.82,0.92-1.64,1.38-2.45c0.19-0.34,0.38-0.68,0.57-1.02c0.3-0.54,0.61-1.09,0.91-1.63c0.33-0.58,0.65-1.17,0.98-1.75
	c1.72-3.09,3.38-6.12,4.96-9.02c0.21-0.38,0.41-0.75,0.61-1.12c0.05-0.1,0.11-0.21,0.16-0.3c0.23-0.4,0.44-0.8,0.65-1.2
	c0.06-0.1,0.1-0.18,0.16-0.28c0.22-0.41,0.44-0.81,0.65-1.21c0.03-0.06,0.07-0.12,0.1-0.18c0.28-0.52,0.56-1.04,0.83-1.54
	c1.03-1.89,1.99-3.69,2.89-5.38c0.17-0.32,0.34-0.64,0.51-0.95c0.7-1.32,1.37-2.57,1.98-3.73c0.11-0.21,0.23-0.43,0.33-0.64
	c0.06-0.11,0.11-0.22,0.17-0.32c0.1-0.16,0.17-0.31,0.26-0.48c0.08-0.16,0.17-0.3,0.24-0.45c0.06-0.12,0.13-0.24,0.18-0.36
	c0.23-0.44,0.45-0.85,0.66-1.25c0.44-0.84,0.84-1.6,1.19-2.27c0.05-0.1,0.1-0.23,0.16-0.31
	C453.99,236.12,454.56,235.01,454.56,235.01z"/>
<path class="st4" d="M375.19,286.1c-0.13,0.81-0.31,1.61-0.58,2.36c-9.55,0.93-16.79,0.43-29.43,0.43c-6.53,0-11.16,0.32-15.31,0.34
	c-1.45,0-2.84-0.03-4.24-0.13c-0.77-0.42-1.18-2.3-1.4-4.22c0.16,0.04,0.34,0.08,0.5,0.11c5.29,1.14,49.89,1.14,49.89,1.14
	S374.81,286.13,375.19,286.1z"/>
<path class="st20" d="M269.08,276.58c-1.06-0.32-10.6-3.93-11.21-17.54c-0.63-13.76,2.29-26.16,2.29-26.16l6.69,10.11
	C266.85,243.4,267.22,263.61,269.08,276.58z"/>
<path class="st5" d="M336.94,174.52v5.84c-0.05-0.01-0.09-0.01-0.14-0.02c-2.44-0.35-5-0.58-7.61-0.72
	c-0.04-0.01-0.08-0.01-0.12-0.01c-3.48-0.19-7.03-0.22-10.44-0.15c-12.41-0.29-24.64,1.63-24.64,1.63s-1.36,0.08-3.21,0.18
	c-3.06,0.16-7.45,0.4-9.18,0.45c-0.01,0-0.01,0-0.01,0c-0.45-0.06-4.24-0.05-5.59-0.78c-0.04-0.02-0.06-0.04-0.1-0.06l-0.01-0.01
	l-0.36-0.51c0-0.04,0.01-0.09,0.01-0.13c0.02-0.13,0.09-0.26,0.21-0.42c1.46-1.91,8.11-6.2,8.48-6.11c0.1,0.02,1.15-0.34,2.81-0.88
	c1.7-0.55,4.04-1.28,6.67-1.97c-0.01,0.04-0.02,0.06-0.03,0.1c4.39-1.15,9.59-2.18,13.95-2.06c0.16,0.01,0.32,0.01,0.49,0.02
	c0.34-0.03,0.66-0.05,0.99-0.07c1.14-0.07,2.24-0.1,3.3-0.07C323.37,169.05,336.94,174.52,336.94,174.52z"/>
<path class="st11" d="M325.31,196.86c-0.16,0.3-0.39,0.59-0.68,0.88c-0.08,0.08-0.16,0.16-0.26,0.24c-2.8,2.37-9.92,3.94-13.69,3.95
	c-2.87,0-10.7-1.82-14.51-2.76c-0.01,0-0.01,0-0.01,0c-0.97-0.24-1.69-0.41-1.99-0.49c1.01,0.2,6.8,1.29,14.87,1.71
	C318.31,200.87,325.44,196.61,325.31,196.86z"/>
<path class="st21" d="M327.68,226.61c0,0.01-0.01,0.01-0.01,0.02c-0.03,0.03-0.06,0.08-0.1,0.14c-0.04,0.06-0.09,0.13-0.16,0.22V227
	c-0.02,0.03-0.05,0.07-0.08,0.11c-0.05,0.08-0.11,0.16-0.18,0.26c-0.15,0.22-0.34,0.48-0.54,0.78c-0.09,0.13-0.17,0.25-0.28,0.39
	c-0.09,0.14-0.19,0.29-0.3,0.44c-0.07,0.11-0.16,0.23-0.24,0.35c-0.19,0.28-0.4,0.58-0.62,0.9c-0.13,0.18-0.26,0.37-0.39,0.56
	c-1.26,1.81-2.84,4.1-4.59,6.61c-0.15,0.23-0.31,0.44-0.46,0.67c-0.5,0.72-1.01,1.46-1.53,2.2c-0.29,0.42-0.58,0.84-0.88,1.28
	c-0.29,0.43-0.59,0.85-0.89,1.28c-0.4,0.58-0.8,1.15-1.2,1.74c-0.2,0.29-0.4,0.58-0.61,0.86c-0.7,1.02-1.41,2.04-2.1,3.03
	c-0.14,0.22-0.29,0.43-0.43,0.62c-0.55,0.8-1.09,1.58-1.62,2.34c-0.19,0.28-0.38,0.55-0.58,0.83c-1.24,1.8-2.43,3.5-3.48,5.03
	c-0.14,0.2-0.29,0.41-0.43,0.61c-0.31,0.44-0.61,0.88-0.89,1.29c-0.14,0.21-0.28,0.41-0.42,0.6c-0.22,0.32-0.43,0.62-0.62,0.9
	c-0.11,0.17-0.22,0.32-0.32,0.47c-0.02,0.02-0.03,0.03-0.03,0.05c-0.11,0.15-0.22,0.29-0.31,0.44c-0.17,0.24-0.32,0.46-0.46,0.66
	c-0.05,0.07-0.1,0.14-0.14,0.2c-0.73,1.05-1.17,1.69-1.22,1.76c-0.01,0.01-0.01,0.01-0.01,0.01v-0.01c0.01-0.01,0.01-0.02,0.02-0.04
	c0,0,0,0,0.01-0.01c0.56-1,9.35-15.39,14.15-22.56c1.02-1.51,2.11-3.02,3.19-4.46c1.1-1.45,2.18-2.83,3.21-4.1
	c0.23-0.29,0.47-0.58,0.7-0.86c0.64-0.77,1.23-1.48,1.77-2.13c0.33-0.38,0.64-0.74,0.93-1.07c0.13-0.15,0.25-0.29,0.37-0.42
	c0.35-0.41,0.66-0.76,0.92-1.06c0.16-0.17,0.29-0.32,0.41-0.46C327.48,226.82,327.63,226.66,327.68,226.61z"/>
<path d="M316.36,192.86c-0.01,0.09-0.03,0.18-0.04,0.26c-0.31,1.89-0.13,1.53-1.06,3.51l-0.06,0.01l-14.16,0.84
	c0,0-0.92-1.41,0-4.62c0,0,0.24-0.69,0.56-1.08c0.01-0.01,0.01-0.01,0.02-0.02c0.04-0.05,0.08-0.09,0.12-0.12l5.54-1.28h0.01
	l2.68-0.61l0.03-0.01l3.75-0.86l0.19-0.04l0.04-0.01c0.01,0,0.02,0.01,0.04,0.01c0.74,0.18,1.14,0.43,1.34,0.59
	c0.12,0.1,0.17,0.17,0.17,0.17s0.03,0.02,0.07,0.07C315.85,189.93,316.67,190.98,316.36,192.86z"/>
<ellipse transform="matrix(0.9977 -0.0684 0.0684 0.9977 -12.4052 21.6351)" class="st13" cx="309.5" cy="191.84" rx="3.34" ry="2.09"/>
<path class="st22" d="M397.52,280.04c-1.18,0.11-2.99,0.21-5.22,0.31c-0.34,0.01-0.67,0.03-1.03,0.04c0,0-0.01,0-0.03,0
	c-0.11,0.01-0.21,0.01-0.31,0.01c-0.14,0.01-0.27,0.01-0.41,0.01c-0.44,0.01-0.88,0.04-1.33,0.05c-0.09,0.01-0.19,0.01-0.29,0.01
	c-2.06,0.08-4.35,0.15-6.74,0.21c-0.74,0.02-1.49,0.04-2.25,0.06h-0.11c-1.44,0.04-2.91,0.08-4.38,0.11
	c-11.94,0.27-24.11,0.42-24.99,0.42l-18.6-0.36l-6.66-0.13l-1.16-0.02l-1.54-0.03l-0.67-0.07l-8-0.84l-5.42-0.57l-2.19-0.23
	c0.03-0.01,0.06-0.01,0.09-0.01c0.08-0.01,0.16-0.03,0.24-0.04c0.05-0.01,0.1-0.02,0.16-0.03c0.35-0.06,0.74-0.11,1.14-0.18
	c0.59-0.09,1.24-0.19,1.92-0.29h0.01c0.26-0.04,0.53-0.08,0.81-0.12c0.26-0.04,0.54-0.09,0.81-0.12
	c12.38-1.91,34.78-5.73,40.69-1.79c0.31,0.21,0.8,0.25,1.46,0.04c0.1-0.02,0.2-0.06,0.31-0.1c0.26-0.09,0.54-0.21,0.84-0.38
	c4.55-2.42,17.38-0.88,27.82,0.95c0.01,0.04,6.09,1.19,10.51,2.07C395.53,279.54,397.51,279.95,397.52,280.04z"/>
<path class="st22" d="M397.51,280.01c-0.04,0.03-0.07,0.06-0.11,0.09c-0.1,0.08-0.2,0.17-0.31,0.26c-0.27,0.22-0.55,0.46-0.84,0.71
	c-0.07,0.06-0.14,0.11-0.21,0.17c-6.72,5.74-19.24,16.39-34.34,22.26c-4.65,1.81-13.64,3.44-21.61,0.19
	c-17.01-6.96-26.38-17.81-33.89-24.68c0.04,0.04,0.09,0.06,0.16,0.11c0.09,0.06,0.19,0.12,0.31,0.21c1,0.66,3.16,2.06,5.69,3.64
	c0.04,0.04,0.08,0.06,0.12,0.09c0.55,0.34,1.12,0.7,1.7,1.06c2.82,1.74,5.85,3.52,8.16,4.69c0.5,0.26,0.96,0.47,1.38,0.66
	c0.71,0.31,1.31,0.52,1.73,0.6c1.97,0.37,3.76,0.7,5.56,0.97c3.02,0.45,6.1,0.74,10.23,0.82c0.68,0.01,1.39,0.02,2.14,0.02
	c4.21,0,7.98,0.05,11.48,0.04h0.16c6.79-0.02,12.6-0.28,18.71-1.61c1.78-0.38,3.58-0.85,5.44-1.44c0.19-0.06,0.37-0.12,0.56-0.18
	c0.38-0.12,0.76-0.25,1.14-0.38c0.41-0.14,0.86-0.31,1.33-0.5C386.87,285.92,394.16,281.75,397.51,280.01z"/>
<path class="st8" d="M363.13,309.24l-0.04,15.49c0,0-0.21,0.59-0.95,1.32c-1.2,1.16-3.79,2.69-9.17,2.64
	c-0.69-0.01-1.34-0.04-1.96-0.08c-6.61-0.51-9.36-3.23-9.46-3.43v-15.95H363.13z"/>
<path class="st14" d="M382.15,280.67c2.39-0.06,4.67-0.14,6.74-0.21c-5.34,2.83-6.28,4.16-9.31,4.89c-2.13,0.52-3.62,0.7-4.38,0.76
	c-0.38,0.03-0.58,0.03-0.58,0.03s-32.19,4.79-49.89-1.14c-0.16-0.05-0.34-0.08-0.5-0.11c-5.13-1.27-10.44-5.08-10.44-5.08l8,0.84
	l0.67,0.07l1.54,0.03l1.16,0.02l6.66,0.13l18.6,0.36c0.88,0,13.04-0.15,24.99-0.42c1.47-0.03,2.94-0.06,4.38-0.11h0.11
	C380.66,280.7,381.41,280.69,382.15,280.67z"/>
<path class="st23" d="M399.67,275.51c-0.01,0.01-0.01,0.02-0.02,0.03c-0.22,0.19-0.54,0.33-1.01,0.38c-0.76,0.09-1.9-0.07-3.59-0.61
	c-7.17-2.32-11.31-3.41-11.31-3.41l-28.08-2.67c0,0-0.36-0.01-1.03-0.02c-0.32,0-0.71,0-1.18,0.01c-0.25,0-0.51,0-0.8,0.01
	c-1.62,0.02-3.83,0.06-6.46,0.18c-0.16,0-0.31,0.01-0.47,0.02c-4.3,0.21-9.66,0.62-15.35,1.38c-12.13,1.62-20.79,4.12-25.29,4.3
	c-0.44,0.02-0.85,0.01-1.21-0.03c-0.09,0-0.17-0.02-0.25-0.02c-0.2-0.03-0.4-0.06-0.59-0.1c0,0,0,0.01,0,0.03
	c-0.03,0.12-0.19,0.87-0.44,2.06c-0.28,1.33-0.67,3.23-1.11,5.44c-1.41,7.06-3.36,17.33-3.96,23.04c0,0.09-0.01,0.17-0.03,0.26
	c-0.03,0.31-0.05,0.63-0.08,0.91v0.01c0,0.1-0.01,0.19-0.02,0.27c-0.03,0.36-0.03,0.67-0.04,0.97c-1.07-1.67-2.89-5.1-4.48-8.07
	c-0.01-0.03-0.03-0.06-0.04-0.09c-0.76-1.43-1.46-2.74-1.99-3.7c-0.08-0.14-0.15-0.27-0.23-0.38c0.07-0.3,0.13-0.58,0.2-0.87
	c0.02-0.08,0.03-0.16,0.06-0.24c0.02-0.1,0.04-0.21,0.07-0.32c3.36-14.45,6.69-21.93,7.51-23.46c-0.1-0.21,0.09,0,0.03-0.13
	c0-0.01-0.01-0.02-0.01-0.03c8.64-6.68,22.05-9.69,22.05-9.69s12.04-3.06,20.79-3.3c1.47-0.04,3.1-0.08,4.83-0.1h0.62
	c0.21-0.01,0.42-0.01,0.63-0.01c0.42-0.01,0.85-0.01,1.28-0.01c1.2-0.01,2.44-0.01,3.69,0c7.16,0.04,14.94,0.36,20.69,1.2
	c6.65,0.98,14.24,4.1,18.48,6.3c0.02,0.01,0.03,0.02,0.03,0.03c0.12,0.1,0.24,0.21,0.36,0.33l0.19,0.18
	c0.12,0.12,0.24,0.25,0.37,0.38c0.24,0.24,0.46,0.51,0.7,0.78c0.11,0.13,0.24,0.27,0.35,0.4c0,0,0.01,0,0.01,0.01
	c0.12,0.15,0.23,0.27,0.34,0.42c0.16,0.19,0.32,0.38,0.48,0.57c0.08,0.1,0.14,0.18,0.21,0.27c0.11,0.14,0.23,0.28,0.32,0.41
	c0.02,0.02,0.03,0.03,0.05,0.06c0.12,0.16,0.24,0.3,0.36,0.45c0.11,0.15,0.22,0.3,0.32,0.43c0.57,0.75,0.94,1.26,0.94,1.26
	s0.92,1.64,0.24,2.52c0.9-0.84-0.11-2.64-0.11-2.64s-0.02-0.03-0.05-0.07c-0.18-0.26-0.98-1.33-1.93-2.53
	c-0.14-0.17-0.29-0.36-0.44-0.55c-0.14-0.18-0.3-0.37-0.45-0.56c-0.31-0.37-0.62-0.72-0.92-1.06c-0.01,0-0.01-0.01-0.01-0.01
	c-0.26-0.28-0.51-0.54-0.74-0.78c0.56,0.3,1.04,0.57,1.43,0.82c0.2,0.13,0.38,0.24,0.54,0.35c0,0,0.01,0,0.01,0.01
	c0.21,0.13,0.37,0.26,0.49,0.37c0,0,0.01,0.01,0.01,0.02c0.01,0,0.01,0.01,0.02,0.01c0.07,0.06,0.14,0.12,0.21,0.2
	c0.08,0.07,0.16,0.15,0.24,0.22c0.93,0.92,2.09,2.34,2.99,3.5l0.24,0.3c0.18,0.24,0.35,0.45,0.5,0.65c0.1,0.12,0.18,0.24,0.27,0.36
	c0.32,0.44,0.52,0.71,0.52,0.71S400.57,274.68,399.67,275.51z"/>
<path class="st23" d="M413.2,307.89c-0.34,0.6-0.8,1.78-1.33,3.18c-1.85,4.86-4.61,12.39-6.59,7.63c-0.08-0.19-0.16-0.39-0.23-0.61
	l-7.42-41.89c-3.89,0.49-13.13-2.44-26.75-4.26c-13.61-1.82-25.29-1.58-25.29-1.58l-26.87,2.56h-0.01l-1.21,0.11
	c0,0-0.53,0.14-1.54,0.43c-1.81,0.51-5.16,1.49-9.76,2.98c-1.29,0.41-2.25,0.6-2.97,0.63c-0.24,0.01-0.44,0.01-0.63-0.01
	c-0.09-0.01-0.16-0.02-0.24-0.04c-0.34-0.06-0.59-0.19-0.76-0.34c-0.01-0.01-0.01-0.01-0.02-0.02c-0.9-0.84,0.11-2.64,0.11-2.64
	s3.16-4.37,4.99-5.96c0.41-0.36,1.27-0.9,2.46-1.54c-1.85,1.81-4.56,5.56-4.56,5.56s-1.01,1.8-0.11,2.64
	c-0.69-0.89,0.24-2.52,0.24-2.52s3.16-4.37,4.99-5.96c0.01-0.01,0.01-0.01,0.03-0.02c4.24-2.2,11.82-5.32,18.48-6.3
	c8.99-1.32,22.98-1.34,31.73-1.09c8.76,0.24,20.79,3.3,20.79,3.3s5.51,1.24,11.74,3.89c0.12,0.05,0.25,0.11,0.38,0.16
	c0,0,0,0.01,0.01,0.01c0.36,0.16,0.72,0.31,1.09,0.49c0.12,0.05,0.24,0.11,0.36,0.16c0,0,0,0,0.01,0.01
	c0.09,0.04,0.19,0.09,0.29,0.13c0.59,0.28,1.18,0.56,1.76,0.87c2.24,1.14,4.44,2.47,6.41,3.99c0,0.01-0.01,0.01-0.01,0.02
	c-0.05,0.13,0.14-0.08,0.04,0.14C403.65,273.53,409.72,292.49,413.2,307.89z"/>
<path class="st24" d="M369.59,249.99l-10.21,0.85C364.36,246.46,369.59,249.99,369.59,249.99z"/>
<path class="st24" d="M330.56,249.75l10.58,1.1C341.14,250.84,335.67,246.46,330.56,249.75z"/>
<g class="st25">
	<path class="st24" d="M367.99,235.82c1.52,1.13,2.83,2.49,4.02,3.96c1.17,1.48,2.21,3.11,2.96,4.95c0.36,0.93,0.65,1.91,0.74,2.98
		c0.1,1.06-0.04,2.23-0.59,3.27c-0.54,1.04-1.47,1.81-2.43,2.21c-0.96,0.43-1.97,0.51-2.94,0.46l-0.06-0.24
		c0.81-0.52,1.59-0.95,2.19-1.52c0.6-0.57,1.01-1.16,1.22-1.81c0.41-1.29,0.14-2.91-0.4-4.51c-0.55-1.61-1.34-3.21-2.2-4.79
		c-0.85-1.59-1.78-3.17-2.7-4.8L367.99,235.82z"/>
</g>
<g class="st25">
	<path class="st24" d="M336.18,199.85c0.27,3.11,0.32,6.23,0.31,9.35c-0.04,3.12-0.17,6.24-0.44,9.36
		c-0.28,3.12-0.68,6.23-1.26,9.32c-0.63,3.08-1.36,6.17-2.48,9.17l-0.08,0.22l-0.16,0.18c-1.17,1.29-2.28,2.75-3.31,4.19
		c-1.02,1.46-1.95,2.99-2.64,4.57c-0.65,1.58-1.12,3.29-0.6,4.79c0.49,1.52,2.13,2.53,3.84,3.14l-0.06,0.24
		c-0.93-0.11-1.87-0.31-2.76-0.76c-0.89-0.43-1.7-1.15-2.2-2.1c-0.51-0.95-0.64-2.03-0.6-3.04c0.03-1.02,0.27-2,0.57-2.93
		c0.6-1.87,1.51-3.57,2.52-5.18c1.01-1.62,2.14-3.1,3.41-4.57l-0.24,0.4c2.02-5.69,3.13-11.77,4.01-17.86
		c0.43-3.05,0.78-6.12,1.09-9.2c0.32-3.08,0.57-6.17,0.82-9.27L336.18,199.85z"/>
</g>
<path class="st8" d="M260.07,233.29c-1.05-13.56-3.47-59.86,8.35-74.33c7.87-9.62,15.49-16.45,20.71-20.63
	C259,200.78,260.07,233.29,260.07,233.29z"/>
<path class="st11" d="M336.94,180.36v19.5l-6.87-5.79c-1.37-1.55-6.42-6.27-16.99-6.07c-9.06,0.17-20.24,4.84-25.86,7.48
	c-0.04,0.01-0.07,0.04-0.11,0.05c-0.19,0.09-0.37,0.18-0.54,0.26l-6.8-9.49l-3.83-5.35c1.21,0.75,4.71,0.71,4.91,0.79
	c0.04,0.01,0.3,0.01,0.74-0.01c0,0,0,0,0.01,0c1.73-0.05,6.11-0.29,9.18-0.45c1.85-0.1,3.21-0.18,3.21-0.18s12.22-1.92,24.64-1.63
	c3.41-0.07,6.96-0.04,10.44,0.15c0.04,0,0.08,0,0.12,0.01c2.61,0.14,5.17,0.37,7.61,0.72C336.85,180.34,336.89,180.35,336.94,180.36
	z"/>
<path d="M330.39,194.45l-0.02-0.01l-0.28-0.09l-14.73-4.94c0.12,0.1,0.17,0.17,0.17,0.17s0.03,0.02,0.07,0.07
	c0.24,0.27,1.06,1.33,0.76,3.2c-0.01,0.09-0.03,0.18-0.04,0.26l-0.11-0.01l-3.79-0.39h-0.01l-6.25-0.64l-4.41-0.45
	c-1,0.31-2.04,0.64-3.14,0.97c-4.51,1.34-6.45,2.46-7.25,3.27c-0.04,0.04-0.08,0.09-0.12,0.12c-0.7,0.79-0.29,1.24-0.29,1.24h-7.29
	c0,0,1.09-0.59,2.91-1.46c0.17-0.08,0.36-0.17,0.54-0.26c0.04-0.01,0.07-0.04,0.11-0.05c5.61-2.64,16.8-7.31,25.86-7.48
	c10.56-0.2,15.61,4.52,16.99,6.07C330.22,194.23,330.33,194.36,330.39,194.45z"/>
<path class="st26" d="M476.9,241.36c0-0.07,0-0.15-0.01-0.22v-0.06c0-0.05,0-0.1-0.01-0.15c0-0.01,0-0.01,0.01-0.02v-0.02
	c0-0.03,0-0.06-0.01-0.09c0-0.12-0.01-0.24-0.03-0.36c-0.01-0.12-0.02-0.24-0.03-0.35c-0.03-0.16-0.04-0.31-0.07-0.47
	c-0.03-0.15-0.05-0.3-0.08-0.44c-0.02-0.1-0.03-0.19-0.06-0.29c0-0.03,0-0.04-0.01-0.07c0-0.01-0.01-0.03-0.01-0.03
	c0-0.02-0.01-0.03-0.01-0.04c-2.33-12.64-17.31-44.79-23.84-55.62c-2.18-3.61-7.39-8.82-13.74-14.37l-0.01-0.01
	c-5.04-4.42-10.8-9.09-16.32-13.34c-0.1-0.08-0.2-0.15-0.3-0.23c-9.91-7.62-19.01-13.94-21.8-15.32c-6.32-3.14-8.14-2.2-8.14-2.2
	s-20.65-1.53-42.2-3.03c-8.46-0.58-17.06-1.17-24.6-1.65c-7.53-0.49-14.02-0.87-18.23-1.05c0.03-0.05,0.03-0.09,0.03-0.1
	c1.94-0.04,3.9-0.07,5.88-0.09c3.77-0.03,7.6-0.03,11.49-0.01h0.2c1.79,0.02,3.6,0.04,5.41,0.08c0.56,0.01,1.11,0.02,1.67,0.03
	c1.45,0.03,2.89,0.06,4.34,0.1c0.17,0.01,0.34,0.01,0.51,0.02c3.14,0.09,6.29,0.2,9.46,0.34c2.4,0.1,4.82,0.23,7.23,0.36
	c1.15,0.07,2.31,0.14,3.47,0.21c1.83,0.11,3.67,0.24,5.51,0.37c0.48,0.03,0.95,0.06,1.43,0.1c4.63,0.34,9.25,0.74,13.84,1.2
	c1.15,0.11,2.3,0.23,3.44,0.35c1.14,0.12,2.28,0.24,3.42,0.37c1.08,0.12,2.16,0.25,3.23,0.37l0.18,0.03
	c0.98,0.12,1.98,0.24,2.96,0.37h0.09c0.44,0.06,0.87,0.11,1.3,0.17c1.05,0.14,2.08,0.28,3.12,0.42c1.78,0.24,3.54,0.5,5.29,0.77
	c1.17,0.17,2.33,0.36,3.48,0.54c0.49,0.07,0.98,0.16,1.45,0.24c0.82,0.13,1.64,0.27,2.45,0.41c0.01,0,0.01,0,0.01,0
	c7.87,1.35,15.44,2.91,22.57,4.7c0.91,0.24,1.83,0.47,2.73,0.71c0.51,0.13,1.01,0.27,1.52,0.41c1.39,0.37,2.74,0.76,4.08,1.15
	c0.67,0.2,1.33,0.4,1.99,0.6c1.34,0.41,2.67,0.83,3.96,1.26c0.62,0.2,1.23,0.41,1.83,0.62c1.25,0.43,2.49,0.87,3.69,1.32
	c0.44,0.16,0.88,0.32,1.32,0.5c0.51,0.19,1.01,0.39,1.51,0.59c0.78,0.31,1.54,0.63,2.3,0.94c0.01,0,0.01,0,0.02,0.01h0.01
	c0.01,0,0.02,0,0.03,0.01c0.01,0,0.02,0.01,0.03,0.01c0,0,0,0.01,0.01,0.01c1.62,0.98,3.1,1.97,4.43,2.98c0,0,5.21-3.61,35.84,21.01
	C526.8,200.05,476.9,241.36,476.9,241.36z"/>
<path class="st27" d="M300.26,132.03c-3.96,0.47-4.24,1.27-4.24,1.27s-2.66,1.65-6.89,5.02v0.01c-5.23,4.18-12.84,11.01-20.71,20.63
	c-11.83,14.46-9.69,56.02-8.64,69.58c0.19,2.39,0.34,3.91,0.37,4.26c0.01,0.05,0.01,0.08,0.01,0.08
	c-24.8-20.24-36.93-36.29-42.86-47.28c-3.07-5.69-6.7-11.59-5.66-16.91c0.64-3.26,22.19-20.34,42.02-32.17c0.01,0,0.01,0,0.02-0.01
	C264.8,134.26,281.2,132.67,300.26,132.03z"/>
<path class="st28" d="M455.84,151.43c-36.54-15.49-99.59-20.58-148.39-19.59c-0.61,0.01-1.23,0.02-1.84,0.04h-0.04
	c-1.45-0.05-2.47-0.06-2.98-0.04c-0.86,0.05-1.61,0.11-2.26,0.19h-0.07c-19.06,0.64-35.47,2.23-46.57,4.49
	c0.87-0.51,1.72-1.02,2.59-1.52c8.45-4.87,11.64-4.6,13.87-5.79c0,0,0,0,0.01-0.01c1.38-0.24,3.19-0.56,5.39-0.91
	c8.34-1.32,22.36-3.12,40.69-3.38h0.02c14.09-0.19,30.72,0.51,49.27,3.04c0,0,13.99,1.62,31.64,5.01l0.01,0.01
	c16.93,3.26,37.22,8.16,51.73,14.84C451.4,148.97,453.73,150.17,455.84,151.43z"/>
<linearGradient id="SVGID_4_" gradientUnits="userSpaceOnUse" x1="262.8433" y1="367.7888" x2="592.6251" y2="653.9996">
	<stop  offset="0.0592" style="stop-color:#8B090B"/>
	<stop  offset="0.818" style="stop-color:#DB1F26"/>
</linearGradient>
<path class="st29" d="M616.81,443.84C579.42,541.58,484.75,611,373.85,611c-102.57,0-191.27-59.39-233.59-145.65
	c5.98-4.77,12.88-9.57,18.22-11.29l112.67-60.62c13.44-7.42,22.68-12.53,22.68-12.53c0,0.01,0,0.01-0.01,0.02
	c0,0.02-0.01,0.05-0.02,0.08c-0.05,0.19-0.1,0.38-0.14,0.57l-0.15,0.57c-0.13,0.47-0.26,0.93-0.38,1.38
	c-0.15,0.53-0.32,1.06-0.48,1.58c-0.33,1.04-0.69,2.05-1.06,3.02c-0.19,0.49-0.38,0.96-0.58,1.43c-0.28,0.65-0.57,1.28-0.87,1.89
	c-0.3,0.6-0.61,1.18-0.94,1.74c0,0.01,0,0.01,0,0.01c-0.33,0.56-0.66,1.09-1.01,1.6v0.01c-0.36,0.5-0.72,0.99-1.09,1.44v0.01
	c-0.41,0.49-0.67,1.06-0.81,1.71c-0.02,0.1-0.04,0.2-0.05,0.31c-0.01,0.03-0.01,0.06-0.01,0.1c-0.01,0.06-0.02,0.13-0.02,0.2
	c-0.01,0.1-0.02,0.21-0.02,0.32c0,0.06-0.01,0.12-0.01,0.19c0,0.04,0.01,0.09,0.01,0.14c0,0.15,0.01,0.3,0.02,0.46
	c0.01,0.09,0.02,0.17,0.03,0.26c0.02,0.18,0.05,0.36,0.08,0.55c0.01,0.06,0.03,0.13,0.04,0.19c0.04,0.22,0.09,0.44,0.15,0.66
	c0,0.01,0.01,0.01,0,0.02c0.05,0.18,0.1,0.35,0.17,0.53c0.09,0.31,0.2,0.63,0.32,0.95c0.06,0.17,0.13,0.35,0.22,0.53
	c0.08,0.2,0.17,0.41,0.26,0.62c0.02,0.05,0.04,0.1,0.07,0.15c0.31,0.67,0.67,1.37,1.09,2.1c0.12,0.24,0.27,0.48,0.42,0.73v0.01
	l0.57,0.93c0.06,0.1,0.13,0.2,0.2,0.31c0.06,0.1,0.13,0.21,0.2,0.32c0.13,0.19,0.26,0.39,0.4,0.59c0.01,0.02,0.01,0.03,0.03,0.05
	c0.02,0.04,0.04,0.08,0.07,0.11c0.09,0.12,0.18,0.25,0.26,0.37c0.11,0.18,0.24,0.36,0.37,0.55c0.11,0.16,0.23,0.33,0.36,0.5
	c0.12,0.17,0.25,0.35,0.38,0.53c0.04,0.06,0.09,0.13,0.13,0.19c0.17,0.22,0.33,0.44,0.5,0.67c0.72,0.96,1.5,1.96,2.33,2.98v0.01
	c0.24,0.29,0.48,0.59,0.73,0.88c1.48,1.79,3.12,3.66,4.9,5.59c0.3,0.32,0.6,0.65,0.9,0.97c0.34,0.37,0.69,0.74,1.05,1.12
	c0.35,0.38,0.71,0.76,1.08,1.14c0.73,0.76,1.47,1.53,2.24,2.3c1.92,1.95,3.94,3.94,6.05,5.95c0.84,0.81,1.7,1.63,2.57,2.44
	c0.88,0.82,1.77,1.65,2.67,2.47c1.35,1.25,2.72,2.5,4.12,3.75c8.44,7.55,17.79,15.34,27.35,22.83c0.36,0.29,0.72,0.57,1.08,0.86
	c0.02,0.01,0.05,0.03,0.07,0.04c0.01,0.01,0.01,0.01,0.02,0.02c0.01,0,0.01,0.01,0.02,0.01v0.01c0.13,0.1,0.27,0.2,0.4,0.31
	c1.06,0.82,2.13,1.65,3.2,2.47h0.01c0.96,0.74,1.93,1.47,2.89,2.2c17.06,12.94,34.21,24.51,47.51,31.72
	c5.16,2.8,9.74,4.94,13.52,6.26v0.17h0.01c2.66,0.93,4.91,1.43,6.69,1.48c0.66,0.01,1.4-0.25,2.2-0.76
	c11.61-7.4,37.19-66.73,45.27-94.23c1.59-5.4,2.49-9.57,2.49-11.88c0-6.93-3.62-12.81-7.67-17.87c-2.66-3.33-5.5-6.31-7.61-9.01
	l103.92,45.11c0,0,0,0,43.77,17.51C610.03,440.45,613.53,442.08,616.81,443.84z"/>
<path class="st21" d="M402.22,263.26c-0.01,0-0.01,0-0.02-0.01c-0.03-0.06-0.48-0.7-1.21-1.75c-0.04-0.07-0.1-0.14-0.14-0.21
	c-0.15-0.2-0.3-0.43-0.46-0.66c-0.1-0.15-0.2-0.29-0.31-0.44c0-0.02-0.01-0.03-0.03-0.05c-0.1-0.16-0.21-0.3-0.32-0.47
	c-0.2-0.29-0.4-0.58-0.63-0.9c-0.14-0.19-0.28-0.39-0.42-0.6c-0.29-0.41-0.58-0.84-0.89-1.29c-0.14-0.2-0.29-0.41-0.43-0.61
	c-1.05-1.53-2.25-3.23-3.48-5.03c-0.19-0.28-0.38-0.55-0.57-0.83c-0.53-0.77-1.07-1.55-1.62-2.34c-0.15-0.2-0.29-0.41-0.44-0.63
	c-0.69-0.99-1.39-2.01-2.1-3.03c-0.2-0.29-0.4-0.57-0.6-0.86c-0.4-0.58-0.8-1.16-1.2-1.73c-0.3-0.44-0.59-0.85-0.89-1.28
	c-0.3-0.44-0.59-0.86-0.88-1.28c-0.52-0.75-1.04-1.48-1.53-2.2c-0.15-0.22-0.3-0.44-0.46-0.66c-1.74-2.51-3.33-4.8-4.58-6.61
	c-0.13-0.19-0.26-0.37-0.39-0.56c-0.22-0.32-0.43-0.62-0.62-0.9c-0.09-0.12-0.17-0.24-0.24-0.35c-0.11-0.15-0.21-0.3-0.3-0.44
	c-0.1-0.14-0.18-0.26-0.27-0.39c-0.21-0.3-0.39-0.56-0.54-0.78c-0.08-0.1-0.13-0.17-0.18-0.25c-0.03-0.04-0.05-0.08-0.08-0.11
	c-0.06-0.09-0.11-0.16-0.16-0.22c-0.04-0.07-0.07-0.11-0.1-0.15c0.06,0.06,0.21,0.22,0.41,0.44c0.11,0.13,0.25,0.28,0.41,0.45
	c0.25,0.3,0.57,0.65,0.92,1.06c0.11,0.13,0.24,0.27,0.37,0.42c0.29,0.33,0.59,0.69,0.92,1.07c0.55,0.65,1.14,1.37,1.78,2.13
	c0.24,0.29,0.46,0.57,0.7,0.86c0.57,0.7,1.16,1.43,1.75,2.2l0.01,0.01c0,0,0,0.01,0.01,0.01c0,0.01,0.01,0.01,0.02,0.02
	c0.47,0.61,0.95,1.24,1.43,1.87c1.08,1.44,2.18,2.95,3.2,4.46c4.8,7.17,13.58,21.56,14.15,22.56c0.01,0.02,0.01,0.02,0.01,0.02
	C402.2,263.24,402.21,263.25,402.22,263.26z"/>
<path class="st2" d="M692.74,12.35v577c-9.16-33.06-25.5-91.05-28.56-94.86c-0.07-0.09-0.21-0.24-0.34-0.41
	c-1.67-2.14-8.52-19.19-25.74-35.08c-5.84-5.4-12.87-10.66-21.29-15.16c-3.28-1.76-6.78-3.39-10.5-4.88
	c-43.77-17.51-43.77-17.51-43.77-17.51l-103.92-45.11c2.11,2.7,4.95,5.68,7.61,9.01c4.05,5.06,7.67,10.94,7.67,17.87
	c0,2.31-0.9,6.48-2.49,11.88c-8.08,27.5-33.66,86.83-45.27,94.23c-0.8,0.51-1.54,0.77-2.2,0.76c-1.78-0.05-4.03-0.55-6.69-1.48
	h-0.01v-0.17c-3.78-1.32-8.36-3.46-13.52-6.26c-13.3-7.21-30.45-18.78-47.51-31.72c-0.96-0.73-1.93-1.46-2.89-2.2h-0.01
	c-1.07-0.82-2.14-1.65-3.2-2.47c-0.13-0.11-0.27-0.21-0.4-0.31v-0.01c-0.01,0-0.01-0.01-0.02-0.01c-0.01-0.01-0.01-0.01-0.02-0.02
	c-0.02-0.01-0.05-0.03-0.07-0.04c-0.36-0.29-0.72-0.57-1.08-0.86c-9.56-7.49-18.91-15.28-27.35-22.83c-1.4-1.27-2.78-2.51-4.12-3.75
	c-0.9-0.82-1.79-1.65-2.67-2.47c-0.87-0.83-1.73-1.64-2.57-2.44c-2.11-2.01-4.13-4-6.05-5.95c-0.76-0.77-1.5-1.54-2.24-2.3
	c-0.37-0.38-0.73-0.76-1.08-1.14c-0.36-0.38-0.71-0.75-1.05-1.12c-0.3-0.32-0.6-0.65-0.9-0.97c-1.78-1.93-3.42-3.8-4.9-5.59
	c-0.25-0.29-0.49-0.59-0.73-0.88v-0.01c-0.83-1.02-1.61-2.02-2.33-2.98c-0.17-0.23-0.33-0.45-0.5-0.67
	c-0.04-0.06-0.09-0.13-0.13-0.19c-0.13-0.18-0.26-0.36-0.38-0.53c-0.13-0.17-0.25-0.34-0.36-0.5c-0.13-0.19-0.26-0.37-0.37-0.55
	c-0.08-0.12-0.17-0.25-0.26-0.37c-0.03-0.03-0.05-0.07-0.07-0.11c-0.02-0.02-0.02-0.03-0.03-0.05c-0.14-0.2-0.27-0.4-0.4-0.59
	c-0.07-0.11-0.14-0.22-0.2-0.32c-0.07-0.11-0.14-0.21-0.2-0.31l-0.57-0.93v-0.01c-0.15-0.25-0.3-0.49-0.42-0.73
	c-0.42-0.73-0.78-1.43-1.09-2.1c-0.02-0.05-0.05-0.11-0.07-0.15c-0.09-0.21-0.18-0.42-0.26-0.62c-0.08-0.18-0.15-0.36-0.22-0.53
	c-0.12-0.32-0.23-0.64-0.32-0.95c-0.06-0.17-0.11-0.33-0.15-0.49c-0.01-0.01-0.01-0.03-0.02-0.04c0.01-0.01,0-0.01,0-0.02
	c-0.06-0.22-0.11-0.44-0.15-0.66c-0.01-0.06-0.03-0.13-0.04-0.19c-0.03-0.19-0.06-0.37-0.08-0.55c-0.01-0.09-0.02-0.17-0.03-0.26
	c-0.01-0.16-0.02-0.31-0.02-0.46c0-0.05-0.01-0.1-0.01-0.14c0-0.07,0.01-0.13,0.01-0.19c0-0.11,0.01-0.22,0.02-0.32
	c0-0.07,0.01-0.14,0.02-0.2c0-0.04,0-0.07,0.01-0.1c0.01-0.11,0.03-0.21,0.05-0.31c0.14-0.65,0.4-1.22,0.81-1.71v-0.01
	c0.38-0.45,0.74-0.93,1.09-1.44v-0.01c0.35-0.51,0.68-1.04,1.01-1.6c0,0,0,0,0-0.01c0.33-0.56,0.64-1.14,0.94-1.74
	c0.3-0.61,0.59-1.24,0.87-1.89c0.2-0.47,0.39-0.94,0.58-1.43c0.37-0.97,0.73-1.98,1.06-3.02c0.16-0.52,0.33-1.05,0.48-1.58
	c0.12-0.45,0.25-0.91,0.38-1.38l0.15-0.57c0.04-0.19,0.09-0.38,0.14-0.57c0.01-0.03,0.02-0.06,0.02-0.08
	c0.01-0.01,0.01-0.01,0.01-0.02c0,0-9.24,5.11-22.68,12.53l-112.67,60.62c-5.34,1.72-12.24,6.52-18.22,11.29
	c-3.5,2.78-6.68,5.54-9.05,7.67c-2.42,2.18-3.98,3.68-4.16,3.86c-0.01,0.01-0.03,0.04-0.03,0.04l-33.93,79.92V12.35H692.74z"/>
<polyline class="st2" points="69.67,612 81.34,615.6 82.78,612 "/>
<path class="st2" d="M205.48,615.57c0,0-0.02-1.27-0.08-3.57"/>
<path class="st2" d="M131.21,473.02c-0.07,0.06-0.13,0.11-0.19,0.16"/>
<path class="st3" d="M633.89,350.96c0,32.72-6.05,64.03-17.08,92.88C579.42,541.58,484.75,611,373.85,611
	c-102.57,0-191.27-59.39-233.59-145.65c-16.94-34.52-26.45-73.35-26.45-114.39c0-143.62,116.42-260.05,260.04-260.05
	S633.89,207.34,633.89,350.96z"/>
<path class="st9" d="M460.31,154.42c-1.34-1.01-2.82-2.01-4.44-2.98c-0.01,0-0.01-0.01-0.01-0.01c-0.01,0-0.01-0.01-0.02-0.01
	c-2.11-1.26-4.44-2.46-6.94-3.61c2.26-7.54-33.24-31.78-33.24-31.78s-35.99-18.48-75.58-17.02c-39.12,1.45-63.96,28.63-64.54,29.27
	c-2.2,0.35-4.01,0.67-5.39,0.91c0.99-0.52,1.79-1.34,2.77-3.01c29.56-50.25,21.14-92.41,83.41-87.48
	c62.27,4.92,71.97,23.83,87.84,40.97C459.79,96.56,460.31,154.42,460.31,154.42z"/>
</svg>
