<?xml version="1.0" encoding="utf-8"?>
<!-- Generator: Adobe Illustrator 23.0.3, SVG Export Plug-In . SVG Version: 6.00 Build 0)  -->
<svg version="1.1" id="Warstwa_1" xmlns="http://www.w3.org/2000/svg" xmlns:xlink="http://www.w3.org/1999/xlink" x="0px" y="0px"
	 viewBox="0 0 792 612" style="enable-background:new 0 0 792 612;" xml:space="preserve">
<style type="text/css">
	.st0{fill:#FFFFFF;}
	.st1{fill:#F1F2F2;}
	.st2{fill:#FABF8E;}
	.st3{fill:none;}
	.st4{fill:none;stroke:#FFFFFF;stroke-miterlimit:10;}
	.st5{fill:#3C2415;}
	.st6{fill:#3B2416;}
	.st7{fill:url(#SVGID_1_);}
	.st8{fill:#DB1F26;}
	.st9{fill:#603E2C;}
	.st10{fill:#EAD8CA;}
	.st11{fill:#1D150E;}
	.st12{fill:#F2A86A;}
	.st13{fill:url(#SVGID_2_);}
	.st14{fill:#414042;}
	.st15{fill:#EFD0BA;}
	.st16{fill:none;stroke:#603E2C;stroke-miterlimit:10;}
	.st17{fill:url(#SVGID_3_);}
	.st18{fill:none;stroke:#603913;stroke-miterlimit:10;}
	.st19{opacity:0.3;}
	.st20{fill:none;stroke:#000000;stroke-miterlimit:10;}
	.st21{fill:#DE9762;}
	.st22{opacity:0.3;fill:#F2A86A;}
	.st23{fill:#E28058;}
	.st24{fill:#603E2C;stroke:#603E2C;stroke-miterlimit:10;}
	.st25{fill:#603913;}
	.st26{opacity:0.7;}
	.st27{fill:#CCBAB0;}
	.st28{fill:#BDABA0;}
	.st29{fill:#F7EDE7;}
	.st30{fill:url(#SVGID_4_);}
</style>
<path class="st0" d="M637.24,329.13c0,31.36-5.8,61.37-16.37,89.02c-1.4,3.66-2.88,7.28-4.45,10.85
	c-38.49,87.92-126.26,149.35-228.39,149.35c-94.6,0-176.87-52.7-219.07-130.33c-1.67-3.05-3.27-6.14-4.8-9.26
	c-16.24-33.08-25.35-70.29-25.35-109.63c0-106.28,66.52-197.03,160.21-232.85c27.64-10.58,57.65-16.37,89.01-16.37
	c28.37,0,55.63,4.74,81.04,13.48C566.92,127.02,637.24,219.86,637.24,329.13z"/>
<path class="st1" d="M567.79,9.15"/>
<path class="st2" d="M437.39,147.2c-6.98-5.37-13.57-10.09-17.82-12.9h-0.01c-1.78-1.17-3.15-2.01-3.97-2.42
	c-6.33-3.14-8.15-2.2-8.15-2.2s-20.65-1.54-42.2-3.03c0.04,0.01,0.04,0.01,0.04,0.01s-1.08,2.19-2.6,5.67
	c-1.46,3.33-3.32,7.83-5.03,12.72c-0.07,0.23-0.16,0.46-0.24,0.7c-1.18,3.45-2.28,7.05-3.09,10.56c-0.31,1.34-0.57,2.66-0.78,3.94
	c-0.07,0.36-0.12,0.73-0.17,1.09c-0.06,0.4-0.11,0.8-0.16,1.19c-0.05,0.41-0.09,0.81-0.12,1.2c-0.03,0.31-0.05,0.62-0.07,0.92
	c-0.02,0.23-0.03,0.45-0.04,0.67c-0.01,0.23-0.02,0.46-0.02,0.69c0.01-0.15,0.02-0.31,0.04-0.47c0-0.06,0.01-0.12,0.02-0.18
	c0.04-0.5,0.12-1.04,0.23-1.62c0.12-0.69,0.28-1.42,0.48-2.2c1.76-7.13,6.26-17.39,10.62-21.4c0.12-0.12,0.24-0.23,0.36-0.32
	c0.77-0.66,2.4-1.05,4.7-1.22c12.66-0.97,45.66,4.6,68.28,8.83C437.59,147.35,437.49,147.28,437.39,147.2z"/>
<path class="st2" d="M421.74,254.11c0,0,0,0-0.01-0.02c-0.57-1-9.35-15.39-14.15-22.56c-1.02-1.51-2.11-3.02-3.19-4.46
	c-0.48-0.64-0.96-1.26-1.43-1.87c-0.01-0.01-0.02-0.01-0.02-0.02c-0.01,0-0.01-0.01-0.01-0.01l-0.01-0.01
	c-0.59-0.76-1.17-1.5-1.75-2.19c-0.23-0.29-0.46-0.58-0.69-0.86c-0.64-0.77-1.23-1.49-1.78-2.14c-0.33-0.38-0.64-0.74-0.92-1.07
	c-0.14-0.15-0.26-0.29-0.37-0.42c-0.36-0.41-0.67-0.76-0.92-1.06c-0.16-0.18-0.3-0.32-0.41-0.45c-0.2-0.23-0.35-0.39-0.41-0.45
	c0.02,0.04,0.05,0.08,0.09,0.15c0.05,0.06,0.1,0.13,0.16,0.22c0.03,0.03,0.05,0.07,0.08,0.11c0.05,0.08,0.1,0.16,0.18,0.25
	c0.15,0.23,0.33,0.48,0.54,0.79c0.09,0.13,0.18,0.25,0.27,0.39c0.1,0.14,0.19,0.29,0.31,0.43c0.07,0.12,0.14,0.23,0.23,0.35
	c0.19,0.28,0.4,0.58,0.62,0.9c0.13,0.18,0.26,0.37,0.39,0.56c1.26,1.81,2.84,4.1,4.58,6.61c0.16,0.23,0.32,0.44,0.47,0.66
	c0.49,0.72,1.01,1.46,1.53,2.2c0.29,0.42,0.58,0.85,0.88,1.29c0.29,0.42,0.59,0.84,0.89,1.28c0.4,0.57,0.8,1.15,1.2,1.73
	c0.2,0.29,0.4,0.57,0.6,0.86c0.7,1.02,1.41,2.04,2.1,3.03c0.15,0.22,0.29,0.43,0.43,0.63c0.55,0.79,1.09,1.58,1.62,2.34
	c0.2,0.28,0.39,0.55,0.58,0.83c1.24,1.8,2.43,3.49,3.48,5.03c0.14,0.2,0.29,0.41,0.43,0.61c0.31,0.44,0.6,0.88,0.89,1.29
	c0.14,0.2,0.28,0.4,0.42,0.6c0.22,0.31,0.42,0.61,0.62,0.89c0.12,0.17,0.22,0.32,0.33,0.47c0.01,0.02,0.02,0.04,0.02,0.06
	c0.12,0.14,0.22,0.28,0.32,0.43c0.16,0.24,0.31,0.46,0.46,0.66c0.04,0.07,0.09,0.14,0.14,0.21c0.73,1.06,1.17,1.69,1.21,1.75
	c0.01,0,0.01,0,0.01,0C421.74,254.12,421.74,254.12,421.74,254.11z M364.71,139.82c-0.12,0.09-0.24,0.2-0.36,0.32
	c1.64-0.61,3.33-1.12,5.06-1.54C367.11,138.77,365.48,139.16,364.71,139.82z M359.45,244.3c-0.02-0.02-0.04-0.04-0.05-0.06
	c-0.13,0.02-0.26,0.03-0.41,0.05c1.13,1.39,1.8,3.24,2.16,5.3h0.46C361.25,247.53,360.58,245.68,359.45,244.3z M353.4,215.63
	c1.82-10.74,0-34.12,0-49.01c0-0.19,0.01-0.39,0.02-0.6c0-0.01,0-0.01,0-0.02c0.07-1.23,0.16-2.76,0.31-4.46
	c-0.2,0.78-0.36,1.51-0.48,2.2c-0.1,0.58-0.18,1.12-0.23,1.62c-0.01,0.06-0.02,0.12-0.02,0.18c-0.02,0.16-0.03,0.32-0.04,0.47
	c-0.01,0.21-0.02,0.41-0.02,0.6c0,14.9,1.82,38.27,0,49.01c-1.32,7.83-1.91,15.95,0.62,21.9c0.23,0.12,0.44,0.25,0.63,0.37
	c-0.06-0.12-0.12-0.24-0.17-0.36C351.49,231.58,352.08,223.46,353.4,215.63z"/>
<path class="st2" d="M458.14,169.52c-2.33-5.14-4.03-8.55-4.12-8.75h-0.01c-2.38-2.08-3.28-6.18-4.16-10.38
	c-0.39-1.87-0.77-3.76-1.28-5.5v-0.01c-0.76-2.64-1.8-4.93-3.56-6.28c-3.44-0.65-7.17-1.31-11.05-1.98c-0.01,0-0.01,0-0.01,0
	c-4.63-0.79-9.5-1.58-14.38-2.32h-0.01c-17.9-2.71-36.1-4.79-44.53-4.15c-0.98,0.24-7.01,1.25-12.35,2.18
	c-4.08,0.72-7.76,1.39-8.47,1.66c-2.35,2.16-4.21,7.1-5.72,12.32c-1.28,4.47-2.29,9.14-3.1,12.44c-0.13,1.46,5.92,4.86,7.59,6.57
	c0.03,0.01,0.04,0.02,0.04,0.04c0.26,0.26,0.4,0.47,0.4,0.64c0,0.01,0,0.01,0,0.02c-0.01,0.21-0.02,0.41-0.02,0.6
	c0,14.89,1.82,38.27,0,49.01c-1.32,7.83-1.91,15.95,0.62,21.9c0.05,0.12,0.11,0.24,0.17,0.36c0.92,2.08,2.26,3.87,4.11,5.28
	c0.41,0.31,0.77,0.67,1.1,1.07c0.01,0.02,0.03,0.04,0.05,0.06c1.13,1.38,1.8,3.23,2.16,5.29h0.16c0.2-0.01,0.41-0.01,0.62-0.01
	c0.42-0.01,0.86-0.01,1.28-0.01c1.21-0.01,2.44-0.01,3.7,0c7.39,0.03,15.58,0.32,21.56,1.2c6.67,0.98,14.25,4.1,18.49,6.3
	c0.2,0.1,0.39,0.21,0.57,0.3c1.2,0.65,2.06,1.19,2.47,1.55c0.01,0,0.02,0.01,0.03,0.02c2.82,1.33,5.69,2.95,8.17,4.86
	c0,0.01-0.01,0.02-0.01,0.02c-0.05,0.13,0.14-0.08,0.04,0.14c0.09,0.17,0.25,0.55,0.45,1.11c0.04,0.08,0.07,0.17,0.1,0.26
	c0.08,0.23,0.18,0.51,0.29,0.8c0.06,0.21,0.14,0.42,0.22,0.66c0.1,0.28,0.18,0.56,0.3,0.87c0.16,0.48,0.33,1,0.51,1.56
	c0.05,0.16,0.1,0.31,0.15,0.46c0.05,0.17,0.1,0.34,0.17,0.52c0.27,0.87,0.58,1.81,0.88,2.82c0.13,0.41,0.26,0.82,0.39,1.24
	c0.05,0.2,0.12,0.4,0.18,0.6c0.25,0.83,0.52,1.7,0.78,2.59c0.27,0.9,0.54,1.81,0.81,2.76c0.33,1.1,0.65,2.23,0.98,3.39
	c0.13,0.48,0.27,0.97,0.4,1.46c0.2,0.72,0.41,1.45,0.61,2.19c0.13,0.48,0.26,0.97,0.39,1.46c0.13,0.48,0.26,0.97,0.39,1.46
	s0.26,0.97,0.39,1.47c0.24,0.98,0.49,1.95,0.74,2.94c0.24,0.96,0.48,1.94,0.7,2.9c0.12,0.48,0.23,0.95,0.34,1.43
	c0.01-0.01,0.02-0.04,0.04-0.05c0.29-0.42,0.56-0.86,0.86-1.3c0.59-0.89,1.19-1.82,1.8-2.78c0.46-0.72,0.92-1.45,1.4-2.2
	c0.93-1.5,1.9-3.05,2.86-4.66c0.49-0.8,0.99-1.61,1.47-2.43c0.34-0.56,0.67-1.11,1-1.67c0.11-0.18,0.22-0.37,0.33-0.56
	c0.22-0.36,0.44-0.74,0.67-1.11c0.35-0.6,0.7-1.19,1.04-1.79c0.29-0.5,0.58-0.98,0.87-1.47c0.7-1.22,1.41-2.44,2.11-3.67
	c0.33-0.56,0.64-1.1,0.96-1.66c0.52-0.92,1.05-1.84,1.57-2.75c0.3-0.54,0.61-1.08,0.91-1.62c0.24-0.41,0.48-0.84,0.71-1.26
	c0.46-0.82,0.92-1.64,1.38-2.45c0.19-0.34,0.38-0.68,0.56-1.02c0.31-0.54,0.61-1.08,0.91-1.62c0.33-0.59,0.65-1.17,0.97-1.76
	c1.72-3.09,3.38-6.12,4.96-9.02c0.21-0.38,0.41-0.75,0.61-1.12c0.05-0.11,0.11-0.21,0.16-0.31c0.22-0.4,0.44-0.8,0.65-1.2
	c0.06-0.1,0.1-0.18,0.16-0.28c0.21-0.41,0.43-0.81,0.65-1.21c0.03-0.06,0.07-0.12,0.1-0.18c0.27-0.53,0.55-1.04,0.82-1.54
	c1.03-1.89,1.99-3.7,2.9-5.39c0.16-0.32,0.34-0.63,0.5-0.95c0.7-1.32,1.37-2.57,1.98-3.72c0.11-0.21,0.22-0.43,0.33-0.64
	c0.06-0.11,0.11-0.22,0.16-0.32c0.1-0.16,0.18-0.32,0.27-0.48c0.07-0.16,0.16-0.31,0.24-0.46c0.06-0.12,0.13-0.24,0.18-0.35
	c0.23-0.44,0.46-0.86,0.66-1.26c0.44-0.83,0.84-1.6,1.2-2.27c0.05-0.1,0.1-0.23,0.15-0.31c1.03-1.95,1.6-3.06,1.6-3.06l-0.19,1.18
	c0.53-0.61,0.94-1.02,1.02-1.09c0.01,0,0.01-0.01,0.01-0.01c0.01-0.01,0.02-0.02,0.02-0.02c0.01-0.04,0.03-0.06,0.03-0.06
	l1.84-11.22C472.61,203.48,463.63,181.65,458.14,169.52z M374.38,242.84c4.98-4.38,10.21-0.85,10.21-0.85L374.38,242.84z
	 M397.17,228.06c-0.01-0.01-0.01-0.02-0.02-0.02c0.01,0.01,0.02,0.01,0.02,0.01V228.06z M423.11,191.48c0,0,0,0-0.01,0
	c-3.81,0.93-11.64,2.75-14.52,2.75c-3.76,0-10.87-1.58-13.68-3.94c-0.09-0.08-0.17-0.16-0.25-0.24c-0.3-0.29-0.52-0.58-0.68-0.88
	c-0.13-0.24,7,4.02,16.24,3.53c0.31-0.02,0.62-0.03,0.92-0.05c0.3-0.02,0.6-0.04,0.9-0.06c0.31-0.02,0.62-0.04,0.93-0.07
	c0.29-0.02,0.58-0.04,0.87-0.06c0.45-0.04,0.9-0.08,1.33-0.12c0.87-0.08,1.69-0.16,2.47-0.25c0.39-0.04,0.76-0.09,1.13-0.13
	c0.54-0.07,1.05-0.14,1.54-0.2c0.16-0.02,0.32-0.04,0.47-0.07c0.2-0.03,0.4-0.05,0.59-0.08c0.25-0.03,0.49-0.07,0.71-0.11
	c0.16-0.02,0.31-0.05,0.46-0.07c0.59-0.09,1.09-0.18,1.5-0.25c0.34-0.06,0.61-0.11,0.81-0.15c0.05-0.01,0.09-0.02,0.12-0.02
	C424.61,191.11,423.95,191.27,423.11,191.48z M443.71,172.84c-0.01,0.02-0.03,0.05-0.04,0.08c-0.07,0.1-0.16,0.18-0.29,0.26
	l-0.01,0.01c-0.03,0.02-0.06,0.04-0.09,0.06c-1.35,0.73-5.15,0.71-5.6,0.78c0.25,0.01,0.44,0.01,0.57,0.01c0.1,0,0.15,0,0.17-0.01
	c0.21-0.07,3.7-0.03,4.91-0.78l-2.92,6.73l-4.8,9.57h-7.29c0,0,0.42-0.44-0.28-1.23c-0.05-0.04-0.08-0.08-0.13-0.13
	c-0.79-0.81-2.73-1.93-7.24-3.27c-1.1-0.33-2.15-0.65-3.15-0.97c0.05,0.04,0.09,0.07,0.12,0.12l0.03,0.02
	c0.32,0.39,0.56,1.08,0.56,1.08c0.92,3.21,0,4.62,0,4.62l-3.24-0.19c-0.07,0.18-0.13,0.27-0.13,0.27h-0.06
	c0.03-0.07,0.07-0.16,0.11-0.28l-10.84-0.64l-0.06-0.01c-0.93-1.97-0.75-1.62-1.06-3.51c0-0.08-0.02-0.17-0.04-0.26
	c-0.3-1.87,0.52-2.92,0.76-3.2c0.05-0.05,0.07-0.07,0.07-0.07s0.05-0.07,0.18-0.17l-14.73,4.93l-0.3,0.11
	c0.06-0.09,0.17-0.22,0.32-0.4l-6.87,5.8v-25.33c0,0,13.57-5.47,24.52-5.75c1.06-0.04,2.16,0,3.3,0.07
	c0.33,0.01,0.65,0.04,0.99,0.07c3.91,0.31,8.04,1.08,11.68,1.91c0.03,0.01,0.07,0.01,0.1,0.02c4.31,0.99,7.93,2.06,9.7,2.56
	c0.68,0.2,1.09,0.31,1.15,0.29c0.42-0.09,8.04,4.2,9.72,6.11c0.14,0.16,0.21,0.29,0.23,0.42c0.01,0.05,0.02,0.09,0.02,0.13
	C443.75,172.73,443.73,172.79,443.71,172.84z"/>
<path class="st3" d="M320.61,123.88c0.54,0.02,1.14,0.04,1.8,0.07c0.03-0.06,0.04-0.09,0.04-0.11
	C321.83,123.85,321.22,123.87,320.61,123.88z M491.88,232.81c0-0.12-0.01-0.24-0.02-0.36c-0.01-0.12-0.02-0.23-0.03-0.35
	c-0.02-0.13-0.03-0.26-0.06-0.4c0-0.02-0.01-0.05-0.01-0.07c-0.02-0.14-0.05-0.29-0.08-0.43c-0.01-0.09-0.02-0.16-0.05-0.25
	c0.03,0.18,0.05,0.35,0.09,0.52c0.01,0.11,0.02,0.21,0.04,0.31c0.02,0.13,0.04,0.26,0.05,0.38c0.02,0.13,0.03,0.25,0.04,0.37
	c0.01,0.13,0.02,0.27,0.03,0.4c0.01,0.05,0.01,0.1,0.01,0.15v-0.16c0,0-0.01,0,0-0.01v-0.01
	C491.89,232.86,491.89,232.84,491.88,232.81z"/>
<path class="st4" d="M424.34,200.32"/>
<path class="st4" d="M386.04,194.12"/>
<path class="st2" d="M491.9,233.36c0,7.46-1.18,14.05-3,20.97c-2.92,11.07-10.7,16.02-18.72,18.93c-1.72,0.64-3,0.66-3.93,0.32
	c-3.15-1.13-2.41-6.52-2.29-7.28l0.02-0.09l6.46-39.21l1.85-11.22l1.05-6.35c5.98,0.19,7.53,4.13,13.86,13
	c1.62,2.27,3.63,5.07,4.39,8.32c0,0.02,0.01,0.03,0.01,0.04c0,0.01,0.01,0.03,0.01,0.03c0.01,0.03,0.01,0.04,0.01,0.07
	c0.03,0.1,0.04,0.19,0.06,0.29c0.05,0.29,0.1,0.58,0.12,0.88c0,0.03,0,0.05,0.01,0.08c0.02,0.13,0.03,0.25,0.03,0.37
	c0.01,0.13,0.03,0.27,0.03,0.4c0.01,0.05,0.01,0.1,0.01,0.15v0.06C491.9,233.21,491.9,233.29,491.9,233.36z"/>
<path class="st3" d="M329.63,276.28"/>
<path class="st3" d="M331.59,277.86"/>
<path class="st3" d="M357.98,264.31"/>
<path class="st3" d="M318.57,268.47"/>
<path class="st3" d="M351.15,316.43"/>
<path class="st4" d="M333.52,222.33"/>
<path class="st4" d="M305.19,249.56"/>
<path class="st3" d="M341.67,212.91"/>
<path class="st2" d="M412.99,264.17c-0.1-0.61-0.39-1.15-0.43-1.23v-0.01c0,0,0,0-0.01,0c0,0-0.01-0.02-0.05-0.07
	c-0.07-0.09-0.22-0.3-0.44-0.6c-0.28-0.36-0.64-0.84-1.06-1.38c-0.07-0.09-0.14-0.18-0.21-0.27s-0.14-0.19-0.22-0.28
	c-0.04-0.05-0.08-0.09-0.11-0.14c-0.04-0.05-0.08-0.09-0.11-0.13c-0.08-0.1-0.14-0.19-0.22-0.28c-0.16-0.18-0.31-0.37-0.47-0.56
	c-0.1-0.13-0.22-0.27-0.33-0.39l-0.01-0.01v-0.01c-0.01,0-0.01,0-0.01,0c-0.01-0.02-0.03-0.04-0.05-0.06
	c-0.05-0.07-0.11-0.14-0.17-0.2c0-0.01-0.01-0.01-0.01-0.01c-0.11-0.13-0.23-0.26-0.34-0.38v-0.01h-0.01
	c-0.06-0.07-0.12-0.14-0.19-0.21c-0.06-0.07-0.12-0.13-0.18-0.19c-0.13-0.13-0.25-0.26-0.37-0.38c-0.18-0.09-0.37-0.2-0.57-0.3
	l0.02,0.03c0.12,0.09,0.24,0.2,0.36,0.33c0.06,0.05,0.12,0.11,0.18,0.18c0.13,0.12,0.25,0.25,0.38,0.38
	c0.06,0.06,0.12,0.13,0.18,0.2c0.12,0.14,0.25,0.29,0.38,0.44c0.01,0.01,0.01,0.01,0.02,0.02c0.04,0.04,0.08,0.07,0.12,0.12
	c0.11,0.12,0.23,0.26,0.34,0.4c0,0,0.01,0,0.01,0.01c0.12,0.14,0.24,0.27,0.34,0.42c0.17,0.19,0.32,0.38,0.48,0.57
	c0.07,0.1,0.13,0.18,0.21,0.27c0.06,0.07,0.11,0.14,0.16,0.21c0.06,0.07,0.11,0.14,0.16,0.2c0.02,0.02,0.04,0.03,0.05,0.06
	c0.12,0.16,0.24,0.31,0.35,0.45c0.13,0.15,0.24,0.3,0.33,0.43c0.14,0.19,0.27,0.36,0.39,0.51c0.11,0.16,0.22,0.29,0.29,0.4
	c0.08,0.12,0.15,0.21,0.2,0.26c0.04,0.06,0.06,0.09,0.06,0.09s0,0,0,0.01c0.01,0.02,0.03,0.05,0.05,0.09
	c0.02,0.03,0.03,0.07,0.05,0.11c0.01,0.01,0.01,0.02,0.02,0.03c0.04,0.09,0.09,0.22,0.15,0.36c0.02,0.08,0.06,0.16,0.07,0.25
	c0.03,0.09,0.06,0.17,0.07,0.26c0.01,0.01,0.01,0.01,0.01,0.02v0.02c0.02,0.09,0.03,0.19,0.05,0.27c0.01,0.13,0.02,0.26,0.01,0.4
	v0.06c-0.01,0.04-0.01,0.08-0.02,0.13s-0.03,0.09-0.05,0.14c-0.01,0.09-0.05,0.18-0.11,0.26c0,0.01-0.01,0.02-0.01,0.03
	c-0.01,0.02-0.02,0.03-0.02,0.04c0.05-0.05,0.09-0.09,0.12-0.15c0.1-0.16,0.16-0.33,0.2-0.51c0.02-0.17,0.02-0.34,0-0.52
	C413.02,264.29,413.01,264.23,412.99,264.17z M403.16,322.62c-4.15,2.33-8.51,4.49-12.81,6.34c-0.5,0.22-1.02,0.43-1.53,0.65
	c-1.58,0.65-3.15,1.27-4.7,1.85c-0.51,0.17-1.02,0.35-1.52,0.53c-0.15,0.06-0.29,0.1-0.44,0.16c-0.43,0.13-0.87,0.28-1.28,0.42
	c-0.46,0.15-0.89,0.3-1.33,0.43c-0.39,0.12-0.77,0.24-1.16,0.36c-0.17,0.04-0.33,0.09-0.49,0.14c-0.67,0.19-1.34,0.37-1.99,0.54
	c-0.14,0.04-0.27,0.07-0.41,0.11c-0.3,0.08-0.6,0.15-0.89,0.22c-0.9,0.21-1.76,0.39-2.62,0.55c-0.09,0.03-0.18,0.04-0.28,0.06
	c-2.28,0.41-4.37,0.63-6.2,0.6h-0.23c-0.25,0-0.5-0.01-0.75-0.03c-0.22-0.01-0.44-0.02-0.66-0.04c-0.22-0.01-0.46-0.03-0.69-0.05
	c-0.27-0.03-0.53-0.06-0.8-0.08c-0.46-0.06-0.91-0.13-1.38-0.19c-0.14-0.03-0.29-0.05-0.43-0.08c-0.15-0.02-0.29-0.05-0.45-0.08
	c-0.2-0.04-0.4-0.07-0.6-0.11c-0.17-0.04-0.34-0.07-0.51-0.11c-0.33-0.07-0.67-0.15-1-0.23c-0.26-0.07-0.51-0.13-0.77-0.19
	c-0.19-0.04-0.36-0.1-0.54-0.15c-0.02,0-0.05,0-0.06-0.01c-0.2-0.06-0.38-0.12-0.57-0.16c-0.01,0-0.03-0.01-0.04-0.01v-0.01
	c-0.11-0.03-0.23-0.06-0.34-0.09c-0.26-0.08-0.52-0.17-0.78-0.25c-0.5-0.15-0.98-0.33-1.49-0.5c-0.05-0.02-0.11-0.05-0.17-0.06
	c-0.24-0.1-0.48-0.19-0.72-0.27c-0.28-0.11-0.54-0.21-0.81-0.32c-0.27-0.1-0.54-0.21-0.81-0.33l-0.81-0.34
	c-0.27-0.12-0.54-0.24-0.82-0.36c-0.55-0.26-1.09-0.52-1.64-0.79c-0.27-0.14-0.55-0.28-0.83-0.42c-0.27-0.13-0.55-0.28-0.83-0.43
	c-0.28-0.15-0.56-0.31-0.83-0.46c-0.56-0.3-1.12-0.62-1.69-0.95c-0.83-0.5-1.68-1.03-2.52-1.58c-0.29-0.17-0.57-0.36-0.85-0.56
	c-0.05-0.02-0.1-0.05-0.14-0.08c-0.24-0.17-0.47-0.33-0.71-0.49c-0.29-0.19-0.57-0.39-0.85-0.59c-0.54-0.4-1.09-0.8-1.64-1.19
	c-0.02-0.02-0.05-0.04-0.07-0.06c-0.43-0.32-0.85-0.65-1.28-0.97c-0.42-0.34-0.85-0.68-1.28-1.03c-0.86-0.69-1.71-1.42-2.57-2.17
	c-0.24-0.21-0.49-0.43-0.72-0.65c-0.62-0.54-1.23-1.11-1.83-1.69c-0.28-0.26-0.57-0.54-0.86-0.81c-0.05-0.05-0.09-0.1-0.14-0.14
	c-0.28-0.27-0.55-0.54-0.82-0.81c-0.4-0.4-0.81-0.81-1.21-1.22c-0.41-0.42-0.81-0.85-1.21-1.27c-0.07-0.09-0.15-0.17-0.24-0.26
	c-0.24-0.26-0.48-0.52-0.71-0.78c-0.25-0.26-0.49-0.52-0.73-0.8c-0.28-0.32-0.56-0.62-0.83-0.93c-0.27-0.33-0.54-0.64-0.81-0.96
	c-0.29-0.33-0.58-0.67-0.86-1c-0.27-0.34-0.55-0.68-0.82-1.01c-1.09-1.35-2.19-2.76-3.26-4.2c-0.27-0.37-0.54-0.74-0.8-1.11
	c-0.23-0.3-0.45-0.6-0.67-0.91c-0.21-0.29-0.41-0.59-0.61-0.88c-0.34-0.47-0.67-0.96-1-1.45c-0.03-0.05-0.07-0.1-0.11-0.17
	c-0.26-0.39-0.52-0.78-0.78-1.17c-0.18-0.26-0.35-0.54-0.53-0.81c-0.21-0.32-0.42-0.65-0.62-0.98c-1.68-2.6-3.3-5.3-4.87-8.04
	c-0.21-0.36-0.42-0.73-0.63-1.1c-1.73-3.01-3.38-6.07-4.97-9.12c-0.09-0.17-0.17-0.33-0.26-0.5c0.05,0.21,0.09,0.41,0.13,0.62
	c1.61,3.08,3.29,6.18,5.04,9.23c0.21,0.38,0.42,0.73,0.63,1.1c0,0.01,0,0.01,0,0.02c0.74,1.29,1.51,2.57,2.27,3.84
	c0.02,0.02,0.03,0.05,0.05,0.09c0.85,1.41,1.72,2.79,2.6,4.15c0,0.01,0.01,0.01,0.01,0.02c0.15,0.27,0.33,0.53,0.5,0.79
	c0.21,0.31,0.41,0.64,0.62,0.95c0.26,0.4,0.53,0.79,0.79,1.18c13.61,20.12,29.63,31.52,43.01,35.31c0.21,0.06,0.42,0.11,0.63,0.17
	c1.28,0.34,2.53,0.61,3.75,0.8l0.13,0.03c0.12,0.02,0.24,0.03,0.37,0.05c0.11,0.01,0.21,0.03,0.32,0.04c0.02,0,0.05,0,0.07,0.01
	c0.85,0.12,1.7,0.2,2.52,0.26c0.36,0.02,0.71,0.04,1.06,0.05c0.18,0,0.36,0.01,0.55,0.01c0.35,0,0.7-0.01,1.07-0.03
	c0.66-0.03,1.36-0.09,2.09-0.17c0.38-0.04,0.76-0.09,1.15-0.15c0.39-0.05,0.79-0.12,1.19-0.19c0.36-0.06,0.71-0.13,1.08-0.2
	c0.08-0.01,0.16-0.03,0.24-0.05c0.38-0.07,0.78-0.16,1.17-0.25c0.48-0.1,0.97-0.22,1.47-0.34c0.32-0.08,0.64-0.17,0.97-0.25
	c0.54-0.15,1.09-0.3,1.65-0.46c0.42-0.12,0.83-0.25,1.26-0.38c0.92-0.28,1.86-0.58,2.81-0.91c0.91-0.31,1.83-0.64,2.76-0.99
	c1.99-0.74,4.01-1.56,6.05-2.45c0.49-0.21,0.99-0.44,1.49-0.66c0.48-0.22,0.96-0.43,1.43-0.65c0.52-0.24,1.04-0.49,1.56-0.74
	c0.97-0.47,1.94-0.95,2.91-1.44c1-0.51,2-1.03,2.99-1.57c2.05-1.11,4.07-2.27,6.01-3.47c-0.81,0.49-1.64,0.98-2.47,1.46
	C404.1,322.09,403.63,322.36,403.16,322.62z M397.15,228.04c0.01,0,0.01,0.01,0.02,0.02v-0.01
	C397.17,228.05,397.16,228.05,397.15,228.04z M414.86,185.24c0,0-0.2-0.57-0.48-0.97c-0.01,0-0.02-0.02-0.03-0.03
	c-0.1-0.03-0.21-0.06-0.32-0.1c0.05,0.05,0.1,0.09,0.15,0.15c0.32,0.39,0.55,1.07,0.55,1.07c0.66,2.25,0.4,3.62,0.18,4.23
	c-0.04,0.12-0.08,0.21-0.11,0.28h0.06c0,0,0.06-0.09,0.13-0.27C415.2,189.06,415.55,187.65,414.86,185.24z M345.09,186.08
	L345.09,186.08l-0.02-0.02c-0.04-0.05-0.09-0.1-0.14-0.15c-0.05-0.06-0.11-0.11-0.16-0.17c-0.11-0.12-0.24-0.25-0.37-0.38
	c-0.07-0.07-0.15-0.14-0.23-0.2c-0.08-0.07-0.16-0.14-0.24-0.22c-0.04-0.04-0.09-0.08-0.13-0.12c-0.04-0.04-0.09-0.08-0.13-0.11
	c-0.2-0.16-0.4-0.32-0.61-0.48c-0.11-0.09-0.22-0.17-0.33-0.25c-0.12-0.08-0.24-0.17-0.36-0.25c-0.13-0.09-0.26-0.18-0.39-0.26
	c-0.27-0.17-0.54-0.34-0.84-0.51c-0.2-0.12-0.42-0.24-0.64-0.35c-0.22-0.12-0.44-0.23-0.68-0.34c-0.12-0.06-0.24-0.11-0.36-0.16
	c-0.21-0.1-0.43-0.2-0.66-0.29c-0.45-0.19-0.92-0.36-1.42-0.53c-0.25-0.08-0.51-0.16-0.77-0.24c-0.24-0.07-0.48-0.14-0.72-0.2
	c-0.63-0.17-1.3-0.31-2.01-0.44c-0.26-0.05-0.52-0.09-0.78-0.12c-0.42-0.07-0.85-0.12-1.3-0.16c-0.4-0.04-0.81-0.07-1.23-0.1
	c-0.17,0-0.34-0.01-0.51-0.02c-0.13-0.01-0.26-0.01-0.39-0.01c-0.29-0.01-0.6-0.02-0.9-0.02c-0.23,0-0.46,0.01-0.69,0.01
	c-9.05,0.17-20.24,4.84-25.85,7.48c-0.04,0.01-0.07,0.04-0.11,0.05c0,0.02,0,0.05-0.01,0.07c5.62-2.64,16.8-7.3,25.86-7.48
	c10.69-0.2,15.74,4.64,17.04,6.13c0.02,0.05,0.06,0.08,0.08,0.11l0.28,0.09l0.02,0.01C345.33,186.36,345.23,186.24,345.09,186.08z
	 M322.77,160.77c-4.37-0.12-9.57,0.91-13.96,2.06c-0.02,0.01-0.06,0.01-0.09,0.02c-0.01,0.03-0.02,0.06-0.03,0.1
	c4.39-1.15,9.59-2.18,13.95-2.06c0.16,0.01,0.32,0.02,0.49,0.02c0.33-0.03,0.66-0.05,0.99-0.07
	C323.67,160.81,323.21,160.78,322.77,160.77z M340.76,215.43v0.01c0.2-0.17,0.35-0.29,0.42-0.36c-0.03,0.04-0.08,0.09-0.14,0.16
	c-0.01,0.02-0.02,0.04-0.04,0.06c0.07-0.06,0.11-0.12,0.17-0.18c0.06-0.07,0.1-0.12,0.13-0.16
	C341.22,215.03,341.03,215.19,340.76,215.43z M334.73,191.02c-0.3,0.09-0.62,0.18-0.95,0.27c-0.77,0.21-1.61,0.41-2.5,0.58
	c-0.43,0.08-0.87,0.15-1.32,0.22c-0.01,0.01-0.02,0.01-0.03,0.01c-1.81,0.26-3.78,0.39-5.86,0.28c-0.49-0.02-0.96-0.05-1.43-0.08
	c-0.02,0.01-0.04,0.01-0.07,0c-0.92-0.06-1.8-0.13-2.64-0.2c-0.05,0-0.1,0-0.15-0.01c-0.81-0.08-1.58-0.15-2.32-0.23
	c-0.08,0-0.15-0.01-0.22-0.02c-0.31-0.04-0.62-0.07-0.91-0.1c-0.85-0.1-1.63-0.2-2.35-0.3c-0.16-0.02-0.32-0.04-0.47-0.07
	c-0.35-0.04-0.68-0.09-1-0.14c-0.22-0.03-0.44-0.07-0.64-0.09c-0.16-0.03-0.31-0.05-0.46-0.08c-0.21-0.03-0.41-0.07-0.6-0.1
	c-0.31-0.05-0.57-0.1-0.8-0.14c-0.12-0.02-0.24-0.04-0.34-0.06c-0.14-0.02-0.26-0.05-0.35-0.06l0.74,0.19
	c0.14,0.04,0.28,0.07,0.44,0.11l0.36,0.09c0.1,0.03,0.2,0.05,0.31,0.08c0,0,0,0,0.01,0c0.04,0.01,0.08,0.01,0.12,0.02
	c2.58,0.41,7.06,1.02,12.64,1.32c9.25,0.48,16.38-3.77,16.25-3.53c-0.09,0.19-0.22,0.36-0.35,0.54c0.04-0.04,0.07-0.08,0.1-0.12
	c0.04-0.05,0.08-0.1,0.12-0.15c0.05-0.05,0.09-0.11,0.12-0.17c0.05-0.07,0.09-0.14,0.13-0.22
	C340.38,188.72,338.23,189.96,334.73,191.02z M331.4,183.55c-0.01-0.15-0.04-0.29-0.07-0.43c-0.06-0.27-0.14-0.5-0.23-0.7
	c-0.18-0.39-0.39-0.65-0.49-0.76v-0.01h-0.01l-0.36-0.12c0.12,0.11,0.18,0.18,0.18,0.18s1.19,1.08,0.82,3.27
	c0,0.04-0.01,0.09-0.02,0.13c0,0.05-0.01,0.09-0.01,0.13c-0.31,1.86-0.14,1.54-1,3.39v0.01l0.06-0.01c0.25-0.54,0.43-0.91,0.54-1.19
	c0.04-0.09,0.08-0.18,0.11-0.25c0.09-0.24,0.14-0.43,0.18-0.65c0.03-0.1,0.05-0.23,0.07-0.36c0.01-0.06,0.01-0.14,0.03-0.21
	c0.03-0.22,0.07-0.5,0.13-0.85c0.01-0.09,0.02-0.17,0.04-0.26C331.45,184.37,331.45,183.93,331.4,183.55z M306.24,188
	c-0.61,0.61-0.56,1.04-0.47,1.23h0.19C305.96,189.23,305.54,188.79,306.24,188z"/>
<path class="st2" d="M428.86,298.91c-0.11-0.48-0.22-0.95-0.34-1.43c-0.22-0.96-0.46-1.94-0.7-2.9c-0.25-0.99-0.5-1.96-0.74-2.94
	c-0.13-0.5-0.26-0.98-0.39-1.47s-0.26-0.98-0.39-1.46c-0.13-0.49-0.26-0.98-0.39-1.46c-0.2-0.74-0.41-1.47-0.61-2.19
	c-0.13-0.49-0.27-0.98-0.4-1.46c-0.33-1.16-0.65-2.29-0.98-3.39c-0.27-0.95-0.54-1.86-0.81-2.76c-0.26-0.89-0.53-1.76-0.78-2.59
	c-0.06-0.2-0.13-0.4-0.18-0.6c-0.13-0.42-0.26-0.83-0.39-1.24c-0.3-1.01-0.61-1.95-0.88-2.82c-0.07-0.18-0.12-0.35-0.17-0.52
	c-0.05-0.15-0.1-0.3-0.15-0.46c-0.18-0.56-0.35-1.08-0.51-1.56c-0.12-0.31-0.2-0.59-0.3-0.87c-0.08-0.24-0.16-0.45-0.22-0.66
	c-0.11-0.29-0.21-0.57-0.29-0.8c-0.03-0.09-0.06-0.18-0.1-0.26c-0.2-0.56-0.36-0.94-0.45-1.11c0.1-0.22-0.09-0.01-0.04-0.14
	c0,0,0.01-0.01,0.01-0.02c-2.48-1.91-5.35-3.53-8.17-4.86c0.07,0.06,0.14,0.12,0.21,0.2c0.08,0.07,0.15,0.15,0.23,0.22
	c0.15,0.14,0.29,0.29,0.43,0.45c0,0.01,0.01,0.01,0.01,0.01c0.86,0.91,1.79,2.06,2.55,3.04c0.08,0.1,0.16,0.2,0.24,0.3
	c0.18,0.23,0.34,0.45,0.5,0.65c0.09,0.12,0.18,0.25,0.27,0.36c0.32,0.43,0.52,0.7,0.52,0.7s1.01,1.81,0.11,2.64
	c-0.01,0.01-0.01,0.02-0.02,0.03c-0.33,0.3-0.92,0.47-1.89,0.38c-0.7-0.06-1.57-0.25-2.7-0.61c-7.17-2.31-11.31-3.41-11.31-3.41
	l-28.09-2.67c0,0-0.3,0-0.88,0c0,0-0.36-0.01-1.03-0.01h-1.18c-0.25,0-0.51,0-0.8,0.01c-1.7,0.04-3.91,0.11-6.47,0.23
	c-0.16,0.01-0.31,0.02-0.47,0.03c-4.14,0.21-9.15,0.61-14.46,1.32c-4.72,0.63-8.91,1.39-12.54,2.11h-0.01
	c-0.96,0.18-1.86,0.36-2.74,0.54h-0.01c-0.02,0.01-0.05,0.01-0.08,0.02c-4.91,0.97-8.54,1.72-10.79,1.63
	c-0.2-0.01-0.4-0.02-0.58-0.04c-0.2-0.03-0.4-0.06-0.58-0.11c0,0,0,0.01-0.01,0.03c0,0.02-0.01,0.04-0.04,0.1
	c-0.08,0.26-0.31,0.94-0.63,1.92c-0.01,0.02-0.01,0.04-0.02,0.05v0.01c-0.44,1.34-1.06,3.25-1.74,5.43
	c-2.17,6.96-5,16.85-5.11,21.25c0.2,0.33,0.41,0.66,0.62,0.98c0.18,0.27,0.35,0.55,0.53,0.81c0.26,0.39,0.52,0.78,0.78,1.17
	c0.04,0.07,0.08,0.12,0.11,0.17c0.33,0.49,0.66,0.98,1,1.45c0.2,0.29,0.4,0.59,0.61,0.88c0.22,0.31,0.44,0.61,0.67,0.91
	c0.26,0.37,0.53,0.74,0.8,1.11c1.07,1.44,2.17,2.85,3.26,4.2c0.27,0.33,0.55,0.67,0.82,1.01c0.28,0.33,0.57,0.67,0.86,1
	c0.27,0.32,0.54,0.63,0.81,0.96c0.27,0.31,0.55,0.61,0.83,0.93c0.24,0.28,0.48,0.54,0.73,0.8c0.23,0.26,0.47,0.52,0.71,0.78
	c0.09,0.09,0.17,0.17,0.24,0.26c0.4,0.42,0.8,0.85,1.21,1.27c0.4,0.41,0.81,0.82,1.21,1.22c0.27,0.27,0.54,0.54,0.82,0.81
	c0.05,0.04,0.09,0.09,0.14,0.14c0.29,0.27,0.58,0.55,0.86,0.81c0.6,0.58,1.21,1.15,1.83,1.69c0.23,0.22,0.48,0.44,0.72,0.65
	c0.86,0.75,1.71,1.48,2.57,2.17c0.43,0.35,0.86,0.69,1.28,1.03c0.43,0.32,0.85,0.65,1.28,0.97c0.02,0.02,0.05,0.04,0.07,0.06
	c0.55,0.39,1.1,0.79,1.64,1.19c0.28,0.2,0.56,0.4,0.85,0.59c0.24,0.16,0.47,0.32,0.71,0.49c0.04,0.03,0.09,0.06,0.14,0.08
	c0.28,0.2,0.56,0.39,0.85,0.56c0.84,0.55,1.69,1.08,2.52,1.58c0.57,0.33,1.13,0.65,1.69,0.95c0.27,0.15,0.55,0.31,0.83,0.46
	c0.28,0.15,0.56,0.3,0.83,0.43c0.28,0.14,0.56,0.28,0.83,0.42c0.55,0.27,1.09,0.53,1.64,0.79c0.28,0.12,0.55,0.24,0.82,0.36
	l0.81,0.34c0.27,0.12,0.54,0.23,0.81,0.33c0.27,0.11,0.53,0.21,0.81,0.32c0.24,0.08,0.48,0.17,0.72,0.27
	c0.06,0.01,0.12,0.04,0.17,0.06c0.51,0.17,0.99,0.35,1.49,0.5c0.26,0.08,0.52,0.17,0.78,0.25c0.11,0.03,0.23,0.06,0.34,0.09v0.01
	c0.01,0,0.03,0.01,0.04,0.01c0.19,0.04,0.37,0.1,0.57,0.16c0.01,0.01,0.04,0.01,0.06,0.01c0.18,0.05,0.35,0.11,0.54,0.15
	c0.26,0.06,0.51,0.12,0.77,0.19c0.33,0.08,0.67,0.16,1,0.23c0.17,0.04,0.34,0.07,0.51,0.11c0.2,0.04,0.4,0.07,0.6,0.11
	c0.16,0.03,0.3,0.06,0.45,0.08c0.14,0.03,0.29,0.05,0.43,0.08c0.47,0.06,0.92,0.13,1.38,0.19c0.27,0.02,0.53,0.05,0.8,0.08
	c0.23,0.02,0.47,0.04,0.69,0.05c0.22,0.02,0.44,0.03,0.66,0.04c0.25,0.02,0.5,0.03,0.75,0.03h0.23c1.83,0.03,3.92-0.19,6.2-0.6
	c0.1-0.02,0.19-0.03,0.28-0.06c0.86-0.15,1.72-0.34,2.62-0.55c0.29-0.07,0.59-0.14,0.89-0.22c0.14-0.04,0.27-0.07,0.41-0.11
	c0.65-0.17,1.32-0.35,1.99-0.54c0.16-0.05,0.32-0.1,0.49-0.14c0.39-0.12,0.77-0.24,1.16-0.36c0.44-0.13,0.87-0.28,1.33-0.43
	c0.41-0.14,0.85-0.29,1.28-0.42c0.15-0.06,0.29-0.1,0.44-0.16c0.5-0.18,1.01-0.36,1.52-0.53c1.55-0.58,3.12-1.2,4.7-1.85
	c0.51-0.22,1.03-0.43,1.53-0.65c4.3-1.85,8.66-4.01,12.81-6.34c0.47-0.26,0.94-0.53,1.42-0.8c0.83-0.48,1.66-0.97,2.47-1.46
	c0.02-0.02,0.04-0.03,0.06-0.04c0.79-0.48,1.56-0.97,2.33-1.46c0.04-0.03,0.08-0.05,0.12-0.08c0.53-0.35,1.06-0.69,1.59-1.04
	c0.33-0.21,0.66-0.44,0.98-0.66c0.32-0.23,0.64-0.45,0.96-0.67c0.32-0.22,0.63-0.45,0.94-0.68c0.31-0.21,0.62-0.44,0.92-0.67
	c0.41-0.29,0.8-0.59,1.2-0.89c0.52-0.41,1.02-0.81,1.52-1.21c0.45-0.38,0.9-0.75,1.32-1.12H419c0.45-0.39,0.87-0.77,1.28-1.15
	c0.22-0.19,0.45-0.4,0.66-0.6c0.38-0.36,0.75-0.72,1.1-1.08c0.1-0.1,0.19-0.21,0.3-0.31c0.81-0.85,1.7-1.9,2.67-3.15
	c0.24-0.29,0.47-0.61,0.72-0.93c0.24-0.34,0.5-0.67,0.76-1.03c0.11-0.16,0.24-0.33,0.37-0.49c0-0.01,0.01-0.02,0.02-0.03
	c0.09-0.16,0.2-0.31,0.32-0.46c0.61-0.86,1.24-1.76,1.89-2.72C429.02,299.57,428.94,299.24,428.86,298.91z M351.13,293.93
	c-0.46-0.21-0.91-0.43-1.35-0.66c-0.28-0.14-0.56-0.28-0.84-0.43c-0.71-0.35-1.4-0.72-2.08-1.1c-0.58-0.32-1.14-0.65-1.7-0.98
	c-0.03-0.02-0.07-0.04-0.1-0.07c-0.11-0.06-0.22-0.12-0.33-0.19c-0.17-0.1-0.33-0.2-0.5-0.3c-0.19-0.11-0.37-0.22-0.56-0.34
	c-0.1-0.07-0.2-0.14-0.3-0.2c-0.55-0.34-1.08-0.67-1.6-1.02c-1.2-0.79-2.35-1.6-3.45-2.41c-0.15-0.11-0.31-0.23-0.46-0.35
	c-0.12-0.09-0.24-0.18-0.36-0.27c-0.44-0.33-0.87-0.66-1.3-1c-0.36-0.27-0.7-0.55-1.04-0.83c-0.17-0.13-0.33-0.27-0.49-0.4
	c-0.01-0.01-0.01-0.01-0.02-0.01c-0.19-0.15-0.38-0.31-0.57-0.47c-0.16-0.14-0.33-0.28-0.49-0.42c-0.33-0.27-0.66-0.55-0.98-0.83
	c-0.03-0.03-0.07-0.05-0.09-0.07c-1.37-1.19-2.66-2.36-3.88-3.51c-0.24-0.23-0.5-0.46-0.74-0.7c-0.17-0.15-0.33-0.3-0.49-0.45
	c-1.95-1.86-3.74-3.61-5.43-5.19l-0.01-0.01c0,0-0.01,0-0.02-0.01l-0.02-0.02c-0.01-0.01-0.01-0.01-0.02-0.02
	c-0.04-0.04-0.08-0.08-0.12-0.12c-0.04-0.04-0.09-0.08-0.13-0.13c-0.05-0.04-0.1-0.09-0.15-0.13c-0.02-0.02-0.05-0.04-0.07-0.06
	l-0.09-0.1l-0.01-0.01l-0.03-0.03h-0.01c-0.01,0-0.01,0-0.01,0c-0.01-0.01-0.02-0.02-0.02-0.02h-0.01
	c-0.01-0.01-0.01-0.02-0.01-0.02h-0.01v-0.01h-0.01v-0.01h-0.01v-0.01c-0.01,0-0.01,0-0.02-0.01h-0.01c-0.01,0-0.01,0-0.01-0.01
	c0.04,0,0.06,0,0.09-0.01c0.01,0,0.03-0.01,0.04,0c0.07-0.02,0.13-0.03,0.2-0.04c0.06-0.01,0.11-0.02,0.16-0.03
	c0.27-0.04,0.65-0.11,1.13-0.19c0.25-0.05,0.52-0.09,0.8-0.13h0.03c0.24-0.05,0.5-0.09,0.78-0.13h0.01l0.32-0.02h0.01
	c0.26-0.05,0.52-0.08,0.8-0.12c0.27-0.05,0.54-0.08,0.82-0.13c0.75-0.11,1.55-0.21,2.37-0.34c0.05,0,0.09,0,0.13-0.01h0.05
	c9.09-1.29,22.05-2.85,30.54-2.66c0.15,0,0.31,0.01,0.46,0.02c3,0.09,5.4,0.4,6.8,1.04c0.03,0.02,0.07,0.03,0.1,0.05
	c0.02,0,0.03,0.01,0.04,0.02c0.07,0.03,0.13,0.07,0.2,0.1c0.32,0.18,0.8,0.23,1.47,0.04c0.09-0.02,0.2-0.06,0.3-0.1
	c0.26-0.1,0.54-0.22,0.84-0.38c4.54-2.42,17.37-0.88,27.82,0.95c0.01,0.04,6.09,1.19,10.5,2.07c2.42,0.49,4.33,0.89,4.51,1.01v0.02
	h-0.02c0,0.01-0.01,0.01-0.01,0.01c0,0.01-0.01,0.01-0.01,0.01s0,0-0.01,0c-0.01,0.01-0.02,0.03-0.03,0.03
	c-0.01,0.01-0.01,0.01-0.02,0.02c-0.1,0.08-0.2,0.18-0.31,0.27c-0.22,0.18-0.45,0.38-0.69,0.58c-0.05,0.04-0.1,0.08-0.15,0.12
	c-0.03,0.03-0.07,0.06-0.1,0.09c-0.04,0.03-0.07,0.06-0.11,0.08c-0.12,0.1-0.25,0.21-0.38,0.33c-1.28,1.09-2.75,2.34-4.4,3.69
	c-0.21,0.17-0.42,0.34-0.64,0.52c-1.85,1.51-3.9,3.12-6.14,4.77c-0.11,0.07-0.21,0.15-0.32,0.23c-0.7,0.52-1.41,1.03-2.14,1.54
	c-0.63,0.44-1.27,0.89-1.93,1.33c-0.65,0.45-1.32,0.89-2,1.32c-0.45,0.29-0.91,0.58-1.37,0.87c-0.69,0.44-1.38,0.86-2.09,1.28
	c-0.47,0.28-0.94,0.55-1.41,0.82c-0.99,0.58-2,1.13-3.03,1.67c-0.41,0.22-0.83,0.44-1.25,0.65c-0.42,0.22-0.84,0.42-1.27,0.63
	c-0.3,0.15-0.6,0.29-0.9,0.43c-0.61,0.29-1.22,0.57-1.84,0.84c-0.44,0.2-0.89,0.4-1.34,0.59c-0.62,0.26-1.26,0.51-1.89,0.76
	c-0.17,0.06-0.34,0.13-0.52,0.19h-0.01c-0.04,0.02-0.09,0.04-0.13,0.05c-0.05,0.02-0.1,0.03-0.15,0.05
	c-0.04,0.02-0.09,0.03-0.13,0.05c-0.05,0.01-0.1,0.03-0.14,0.04c-0.14,0.05-0.29,0.1-0.44,0.15c-0.28,0.09-0.58,0.18-0.88,0.26
	c-0.06,0.02-0.12,0.03-0.17,0.04c-0.07,0.02-0.13,0.04-0.19,0.06c-0.11,0.03-0.21,0.06-0.32,0.08c-0.05,0-0.1,0.02-0.14,0.03
	c-0.02,0-0.03,0-0.05,0.01c-0.16,0.04-0.31,0.08-0.47,0.12c-0.08,0.02-0.16,0.04-0.24,0.06c-0.08,0.02-0.16,0.04-0.24,0.05
	c-0.1,0.01-0.19,0.04-0.29,0.06c-0.13,0.03-0.25,0.05-0.38,0.08c-0.05,0.01-0.1,0.02-0.15,0.03c-0.22,0.05-0.44,0.09-0.67,0.12
	c-0.09,0.02-0.18,0.04-0.28,0.05c-0.64,0.1-1.32,0.19-2,0.26c-0.46,0.05-0.93,0.09-1.4,0.12c-0.25,0.02-0.5,0.03-0.75,0.04
	c-0.49,0.03-0.98,0.03-1.48,0.03c-0.17,0-0.33,0.01-0.5,0c-0.14,0-0.29,0-0.43-0.01c-0.16,0-0.33-0.01-0.49-0.02h-0.04l-0.57-0.03
	c-0.11-0.01-0.23-0.02-0.35-0.03c-0.05,0-0.09-0.01-0.14-0.01c-0.05-0.01-0.1-0.01-0.14-0.01c-0.2-0.02-0.41-0.04-0.61-0.07
	c-0.17-0.01-0.34-0.03-0.51-0.06c-0.38-0.05-0.76-0.1-1.14-0.17c-0.03-0.01-0.05-0.01-0.07-0.01c-0.09-0.02-0.18-0.03-0.27-0.05
	c-0.29-0.05-0.58-0.12-0.88-0.18c-0.02-0.01-0.04-0.01-0.06-0.02c-0.14-0.03-0.28-0.06-0.42-0.1c-0.24-0.05-0.45-0.11-0.68-0.18
	c-0.13-0.03-0.27-0.06-0.4-0.11c-0.23-0.06-0.46-0.13-0.68-0.21c-0.09-0.02-0.19-0.05-0.28-0.09c-0.1-0.03-0.2-0.07-0.31-0.11
	c-0.34-0.11-0.68-0.24-1.02-0.38c-0.34-0.14-0.68-0.28-1.01-0.43c-0.34-0.14-0.67-0.28-1-0.43
	C352.42,294.54,351.77,294.24,351.13,293.93z M314.39,262.73c0,0.05-0.14-0.09-0.04,0.1c-0.73,1.35-3.39,7.3-6.31,18.59
	c3-11.19,5.86-16.86,6.58-18.2v-0.01c0-0.01,0-0.01,0-0.01C314.52,263,314.44,262.85,314.39,262.73z"/>
<path class="st2" d="M467.96,230.07c-0.05,0.08-0.1,0.21-0.15,0.31c-0.36,0.67-0.76,1.44-1.2,2.27c-0.2,0.4-0.43,0.82-0.66,1.26
	c-0.05,0.11-0.12,0.23-0.18,0.35c-0.08,0.15-0.17,0.3-0.24,0.46c-0.09,0.16-0.17,0.32-0.27,0.48c-0.05,0.1-0.1,0.21-0.16,0.32
	c-0.11,0.21-0.22,0.43-0.33,0.64c-0.61,1.15-1.28,2.4-1.98,3.72c-0.16,0.32-0.34,0.63-0.5,0.95c-0.91,1.69-1.87,3.5-2.9,5.39
	c-0.27,0.5-0.55,1.01-0.82,1.54c-0.03,0.06-0.07,0.12-0.1,0.18c-0.22,0.4-0.44,0.8-0.65,1.21c-0.06,0.1-0.1,0.18-0.16,0.28
	c-0.21,0.4-0.43,0.8-0.65,1.2c-0.05,0.1-0.11,0.2-0.16,0.31c-0.2,0.37-0.4,0.74-0.61,1.12c-1.58,2.9-3.24,5.93-4.96,9.02
	c-0.32,0.59-0.64,1.17-0.97,1.76c-0.3,0.54-0.6,1.08-0.91,1.62c-0.18,0.34-0.37,0.68-0.56,1.02c-0.46,0.81-0.92,1.63-1.38,2.45
	c-0.23,0.42-0.47,0.85-0.71,1.26c-0.3,0.54-0.61,1.08-0.91,1.62c-0.52,0.91-1.05,1.83-1.57,2.75c-0.32,0.56-0.63,1.1-0.96,1.66
	c-0.7,1.23-1.41,2.45-2.11,3.67c-0.29,0.49-0.58,0.97-0.87,1.47c-0.34,0.6-0.69,1.19-1.04,1.79c-0.23,0.37-0.45,0.75-0.67,1.11
	c-0.11,0.19-0.22,0.38-0.33,0.56c-0.33,0.56-0.66,1.11-1,1.67c-0.48,0.82-0.98,1.63-1.47,2.43c-0.96,1.61-1.93,3.16-2.86,4.66
	c-0.48,0.75-0.94,1.48-1.4,2.2c-0.61,0.96-1.21,1.89-1.8,2.78c-0.3,0.44-0.57,0.88-0.86,1.3c-0.02,0.01-0.03,0.04-0.04,0.05
	c0.08,0.33,0.16,0.66,0.23,0.98c0.23-0.34,0.46-0.68,0.69-1.03c0.29-0.42,0.57-0.86,0.87-1.3c0.59-0.89,1.19-1.82,1.79-2.78
	c0.46-0.72,0.93-1.45,1.4-2.2c0.94-1.5,1.9-3.05,2.87-4.66c0.49-0.8,0.98-1.61,1.47-2.43c0.33-0.56,0.67-1.11,1-1.67
	c0.11-0.18,0.21-0.37,0.33-0.56c0.22-0.36,0.43-0.74,0.67-1.11c0.35-0.6,0.69-1.19,1.03-1.79c0.3-0.5,0.59-0.98,0.88-1.47
	c0.7-1.22,1.41-2.44,2.11-3.67c0.32-0.55,0.64-1.1,0.95-1.66c0.53-0.92,1.06-1.84,1.58-2.75c0.3-0.54,0.6-1.08,0.91-1.62
	c0.24-0.41,0.48-0.84,0.71-1.26c0.46-0.82,0.92-1.64,1.37-2.45c0.2-0.34,0.38-0.68,0.57-1.02c0.31-0.54,0.61-1.08,0.91-1.62
	c0.33-0.59,0.65-1.17,0.96-1.76c1.72-3.09,3.38-6.12,4.97-9.02c0.2-0.38,0.4-0.75,0.6-1.12c0.06-0.11,0.11-0.21,0.17-0.31
	c0.22-0.4,0.44-0.8,0.65-1.2c0.05-0.1,0.1-0.18,0.16-0.28c0.2-0.41,0.43-0.81,0.64-1.21c0.04-0.06,0.08-0.12,0.1-0.18
	c0.28-0.53,0.56-1.04,0.83-1.54c1.02-1.89,1.99-3.7,2.89-5.39c0.17-0.32,0.34-0.63,0.51-0.95c0.7-1.32,1.36-2.57,1.98-3.72
	c0.1-0.21,0.21-0.43,0.32-0.64c0.07-0.11,0.12-0.22,0.17-0.32c0.1-0.16,0.18-0.32,0.26-0.48c0.08-0.16,0.16-0.31,0.25-0.46
	c0.06-0.12,0.12-0.24,0.18-0.35c0.23-0.44,0.45-0.86,0.65-1.26c0.45-0.83,0.85-1.6,1.2-2.27c0.06-0.1,0.11-0.22,0.16-0.31
	c0.11-0.2,0.21-0.4,0.31-0.59l0.21-1.29l0.19-1.18C469.56,227.01,468.99,228.12,467.96,230.07z M439.51,178.6l-6.81,9.49
	c0.03,0.02,0.06,0.04,0.08,0.04c1.07,0.51,1.87,0.91,2.34,1.16c0.07,0.04,0.13,0.07,0.19,0.1c0.08,0.04,0.15,0.08,0.19,0.1
	s0.07,0.04,0.09,0.05c0.01,0.01,0.02,0.01,0.02,0.01l4.8-9.57l2.92-6.73L439.51,178.6z M361.15,249.59
	c-0.36-2.06-1.03-3.91-2.16-5.3c-3.55,0.39-12.92,1.19-18.71-0.45l-0.01-0.01h-0.01c-2.17-0.63-3.83-1.59-4.49-3.06
	c0,0,1.21-3.51,5.33-4.88h0.01c1.67-0.57,3.81-0.77,6.53-0.27c2.74,0.52,4.59,1.19,5.92,1.9c-2.53-5.95-1.94-14.07-0.62-21.9
	c1.82-10.74,0-34.11,0-49.01c0-0.19,0.01-0.39,0.02-0.6c0-0.23,0.01-0.46,0.02-0.69c0.01-0.22,0.02-0.44,0.04-0.67
	c0.01-0.3,0.04-0.61,0.07-0.92c0.03-0.39,0.07-0.79,0.12-1.2c0.05-0.39,0.1-0.79,0.16-1.19c0.05-0.36,0.1-0.72,0.17-1.09
	c0.21-1.28,0.47-2.6,0.78-3.94c0.81-3.51,1.91-7.11,3.09-10.56c-0.05,0-0.1,0.01-0.15,0.01c-2.99,0.14-5.92,0.32-8.77,0.55
	c-14.65,1.16-27.04,3.43-32.85,5.98c-4.98,2.19-9.58,6.66-13.59,12.53c1.7-0.55,4.04-1.28,6.67-1.97c0.03-0.01,0.07-0.01,0.09-0.02
	c4.39-1.15,9.59-2.18,13.96-2.06c0.44,0.01,0.9,0.04,1.35,0.07c1.14-0.07,2.24-0.1,3.3-0.07c0.68,0.02,1.38,0.06,2.08,0.11
	c0.35,0.02,0.7,0.06,1.06,0.09c0.35,0.04,0.7,0.08,1.06,0.13c2.55,0.31,5.13,0.83,7.56,1.42c0.91,0.21,1.79,0.44,2.64,0.68
	c2.9,0.78,5.45,1.62,7.26,2.26c0.2,0.07,0.39,0.14,0.57,0.2c0.18,0.07,0.35,0.13,0.51,0.19c0.18,0.07,0.35,0.13,0.51,0.19
	c0.08,0.03,0.16,0.06,0.23,0.08c0.08,0.03,0.15,0.06,0.21,0.08c0.26,0.1,0.46,0.18,0.6,0.23c0.15,0.06,0.23,0.09,0.23,0.09v25.33
	l-6.85-5.78v0.01c0.14,0.16,0.24,0.28,0.3,0.37l-0.02-0.01l-0.28-0.09c0.08,0.09,0.14,0.16,0.18,0.22h-0.02l-14.64-4.92v0.01
	c0.1,0.11,0.31,0.37,0.49,0.76c0.09,0.2,0.17,0.43,0.23,0.7c0.04,0.13,0.06,0.28,0.07,0.43c0.05,0.38,0.05,0.82-0.03,1.31
	c-0.02,0.09-0.03,0.17-0.04,0.26c-0.06,0.35-0.1,0.63-0.13,0.85c-0.02,0.07-0.02,0.15-0.03,0.21c-0.02,0.13-0.04,0.26-0.07,0.36
	c-0.04,0.22-0.09,0.41-0.18,0.65c-0.03,0.07-0.07,0.16-0.11,0.25c-0.11,0.28-0.29,0.65-0.54,1.19l-0.06,0.01
	c-0.02,0.03-0.04,0.08-0.06,0.11l-14.22,0.85c0,0-0.92-1.41,0-4.62c0,0,0.29-0.87,0.68-1.2c0.01-0.01,0.02-0.02,0.02-0.02l0.01-0.01
	c-1.01,0.32-2.05,0.65-3.15,0.98c-4.29,1.28-6.25,2.36-7.12,3.15h-0.01l-0.12,0.12c-0.7,0.79-0.28,1.23-0.28,1.23h-7.29
	c0,0,0,0,0.01-0.01c0.15-0.08,1.21-0.64,2.9-1.44l-6.8-9.49c-4.18,9.72-7.11,20.8-8.31,31.15c-1.45,12.43,2.46,42.18,2.56,42.94
	c0,0.01,0,0.02,0,0.02c3.1,7.16,7.08,15.82,11.62,24.59c0.09,0.17,0.17,0.33,0.26,0.5c1.59,3.05,3.24,6.11,4.97,9.12
	c0.21,0.37,0.42,0.74,0.63,1.1c0.1-0.48,0.21-0.96,0.33-1.43c0.1-0.45,0.21-0.89,0.31-1.33c0.11-0.43,0.2-0.84,0.31-1.25
	c0.09-0.4,0.2-0.8,0.29-1.18c0.1-0.37,0.19-0.74,0.29-1.1c2.92-11.29,5.58-17.24,6.31-18.59c-0.1-0.19,0.04-0.05,0.04-0.1
	c0-0.01,0-0.02-0.01-0.03c0-0.01-0.01-0.02-0.01-0.03c8.63-6.68,22.05-9.69,22.05-9.69s12.03-3.05,20.79-3.3
	c1.22-0.03,2.53-0.07,3.94-0.08c0.13,0,0.27,0,0.41-0.01H361.15z M340.76,215.43c0.27-0.24,0.46-0.4,0.54-0.47
	c-0.03,0.04-0.07,0.09-0.13,0.16c-0.06,0.06-0.1,0.12-0.17,0.18c0.02-0.02,0.03-0.04,0.04-0.06c0.06-0.07,0.11-0.12,0.14-0.16
	c-0.07,0.07-0.22,0.19-0.42,0.36V215.43z M310.86,191.09L310.5,191c-0.16-0.04-0.3-0.07-0.44-0.11l-0.74-0.19
	c0.09,0.01,0.21,0.04,0.35,0.06c0.1,0.02,0.22,0.04,0.34,0.06c0.23,0.04,0.49,0.09,0.8,0.14c0.19,0.03,0.39,0.07,0.6,0.1
	c0.15,0.03,0.3,0.05,0.46,0.08c0.2,0.03,0.42,0.06,0.64,0.09c0.32,0.05,0.65,0.1,1,0.14c0.15,0.03,0.31,0.05,0.47,0.07
	c0.72,0.1,1.5,0.2,2.35,0.3c0.29,0.03,0.6,0.06,0.91,0.1c0.07,0.01,0.14,0.02,0.22,0.02c0.74,0.08,1.51,0.15,2.32,0.23
	c0.05,0.01,0.1,0.01,0.15,0.01c0.84,0.07,1.72,0.14,2.64,0.2c0.03,0.01,0.05,0.01,0.07,0c0.47,0.03,0.94,0.06,1.43,0.08
	c2.08,0.11,4.05-0.02,5.86-0.28c0.01,0,0.02,0,0.03-0.01c0.45-0.07,0.89-0.14,1.32-0.22c0.89-0.17,1.73-0.37,2.5-0.58
	c0.33-0.09,0.65-0.18,0.95-0.27c3.5-1.06,5.65-2.3,5.58-2.16c-0.04,0.07-0.08,0.14-0.13,0.22c-0.03,0.06-0.07,0.12-0.12,0.17
	c-0.04,0.05-0.08,0.1-0.12,0.15c-0.03,0.04-0.06,0.08-0.1,0.12c-0.06,0.08-0.14,0.15-0.21,0.22s-0.16,0.15-0.25,0.23
	c-2.71,2.45-9.99,4.06-13.81,4.07c-3.55,0-14.67-2.79-16.42-3.22c0.34,0.05,1.03,0.19,2.02,0.35
	C311.06,191.14,310.96,191.12,310.86,191.09z M307.18,255.75c0,0,0,0,0.01,0c0.67-1.2,11.14-18.36,16.87-26.9
	c1.21-1.81,2.52-3.61,3.8-5.33c1.31-1.73,2.61-3.37,3.84-4.88c0.28-0.35,0.55-0.7,0.83-1.03c0.75-0.91,1.47-1.77,2.11-2.54
	c0.39-0.46,0.77-0.89,1.11-1.28c0.15-0.19,0.29-0.34,0.43-0.5c0.43-0.5,0.8-0.91,1.11-1.27c0.18-0.2,0.35-0.38,0.48-0.54
	c0.25-0.28,0.42-0.47,0.49-0.53c-0.03,0.03-0.06,0.09-0.12,0.17c-0.05,0.07-0.1,0.16-0.18,0.26c-0.03,0.04-0.06,0.08-0.1,0.13
	c-0.06,0.1-0.13,0.19-0.2,0.31c-0.19,0.27-0.41,0.57-0.65,0.94c-0.11,0.15-0.21,0.29-0.33,0.46c-0.11,0.17-0.23,0.34-0.36,0.52
	c-0.08,0.13-0.18,0.27-0.29,0.42c-0.22,0.32-0.47,0.68-0.73,1.07c-0.15,0.21-0.31,0.44-0.47,0.66c-1.5,2.16-3.38,4.89-5.47,7.88
	c-0.17,0.27-0.36,0.53-0.54,0.79c-0.59,0.86-1.21,1.74-1.83,2.63c-0.34,0.51-0.69,1.01-1.05,1.53c-0.35,0.5-0.71,1.01-1.06,1.52
	c-0.47,0.69-0.95,1.38-1.43,2.07c-0.24,0.34-0.48,0.69-0.72,1.03c-0.84,1.22-1.68,2.43-2.5,3.62c-0.17,0.26-0.34,0.5-0.52,0.74
	c-0.65,0.95-1.3,1.88-1.93,2.79c-0.23,0.33-0.46,0.67-0.69,0.99c-1.47,2.14-2.89,4.17-4.15,5.99c-0.17,0.24-0.34,0.49-0.5,0.73
	c-0.38,0.53-0.72,1.05-1.06,1.53c-0.18,0.26-0.34,0.49-0.51,0.72c-0.26,0.38-0.51,0.74-0.74,1.07c-0.14,0.2-0.26,0.38-0.38,0.57
	c-0.03,0.01-0.05,0.03-0.05,0.06c-0.12,0.17-0.25,0.35-0.36,0.51c-0.2,0.29-0.39,0.56-0.55,0.79c-0.06,0.09-0.11,0.17-0.17,0.25
	c-0.85,1.24-1.38,1.99-1.45,2.09C307.17,255.78,307.17,255.76,307.18,255.75z M307.16,255.8c0.01,0,0.01,0,0.01,0s0,0.01-0.01,0.01
	V255.8z"/>
<path class="st5" d="M412.51,272.01c-3.35,1.74-10.64,5.91-15.33,7.81c-0.47,0.19-0.91,0.36-1.33,0.5
	c-0.38,0.13-0.76,0.26-1.14,0.38c-0.19,0.06-0.37,0.12-0.56,0.18c-1.86,0.59-3.66,1.06-5.44,1.44c-6.11,1.33-11.91,1.59-18.71,1.61
	h-0.16c-3.5,0.01-7.27-0.04-11.48-0.04c-0.74,0-1.46-0.01-2.14-0.02c-4.13-0.08-7.21-0.37-10.23-0.82c-1.81-0.27-3.59-0.6-5.56-0.97
	c-0.42-0.08-1.01-0.29-1.73-0.6c-0.42-0.19-0.88-0.41-1.38-0.66c-2.31-1.16-5.34-2.95-8.16-4.69c-0.58-0.36-1.15-0.71-1.7-1.06
	c-0.04-0.03-0.08-0.05-0.12-0.09c-1.96-1.32-3.38-2.35-4.22-2.92c-0.26-0.16-0.84-0.48-1.3-0.72c-0.16-0.09-0.3-0.15-0.41-0.21
	c-0.09-0.05-0.16-0.09-0.22-0.11h-0.01c-0.01,0-0.01,0-0.01-0.01l2.19,0.23l5.42,0.57c0,0,5.31,3.81,10.44,5.08
	c0.22,1.92,0.63,3.8,1.4,4.22c1.4,0.1,2.79,0.13,4.24,0.13c4.16-0.01,8.79-0.34,15.31-0.34c12.64,0,19.88,0.5,29.43-0.43
	c1.34-0.13,2.71-0.29,4.16-0.48c0.4-0.74,0.65-1.66,0.79-2.64c3.04-0.74,3.98-2.06,9.31-4.89c0.09,0,0.19,0,0.29-0.01
	c0.45-0.01,0.89-0.04,1.33-0.05c0.14-0.01,0.28-0.01,0.41-0.01c0.15-0.01,0.26-0.01,0.31-0.01c0.01,0,0.03,0,0.03,0
	c0.36-0.01,0.69-0.03,1.03-0.04C409.52,272.23,411.33,272.13,412.51,272.01z"/>
<path class="st6" d="M394.57,277.35c-0.14,0.99-0.39,1.9-0.79,2.64c-1.45,0.19-2.83,0.35-4.16,0.48c0.26-0.75,0.45-1.55,0.58-2.36
	C390.95,278.05,392.44,277.87,394.57,277.35z"/>
<path class="st6" d="M412.51,272.01c-0.04,0.03-0.09,0.06-0.14,0.09c-0.12,0.08-0.25,0.17-0.39,0.26c-0.34,0.22-0.69,0.46-1.06,0.71
	c-0.09,0.06-0.17,0.11-0.26,0.17c-1.34,0.86-3.39,2.15-6.04,3.71c-0.01,0-0.01,0.01-0.02,0.01c-2.83,1.17-6.76,2.74-10.32,4.02
	c-0.61,0.22-1.2,0.43-1.78,0.63c-1.6,0.54-3.05,1-4.24,1.31c0.16-0.19,0.31-0.39,0.44-0.6c1.78-0.38,3.58-0.85,5.44-1.44
	c0.19-0.06,0.37-0.12,0.56-0.18c0.38-0.12,0.76-0.25,1.14-0.38c0.41-0.14,0.86-0.31,1.33-0.5
	C401.87,277.92,409.16,273.75,412.51,272.01z"/>
<path class="st6" d="M346.98,283.56c-0.92-0.09-1.79-0.19-2.61-0.3c-0.17-0.03-0.35-0.05-0.51-0.08c-2.71-0.43-4.78-1.03-6.21-1.73
	c-0.01-0.01-0.02-0.01-0.03-0.01c-0.06-0.04-0.11-0.07-0.16-0.1c-0.01-0.01-0.03-0.02-0.05-0.03c-1.66-0.82-2.5-1.46-2.65-1.59
	c-0.01-0.01-0.02-0.01-0.02-0.01c-0.01-0.01-0.01-0.01-0.01-0.01c-1.94-1.17-3.67-2.27-5.19-3.27c-0.74-0.49-1.44-0.95-2.07-1.37
	c0.55,0.34,1.12,0.7,1.7,1.06c2.82,1.74,5.85,3.52,8.16,4.69c0.5,0.26,0.96,0.47,1.38,0.66c0.71,0.31,1.31,0.52,1.73,0.6
	c1.97,0.37,3.76,0.7,5.56,0.97C346.28,283.26,346.61,283.43,346.98,283.56z"/>
<path class="st4" d="M284.11,268.59c-0.01,0-0.02-0.01-0.03-0.01"/>
<path class="st6" d="M290.9,172.86c-0.13-0.08-0.22-0.16-0.29-0.26c-0.01-0.02-0.03-0.05-0.04-0.08c-0.02-0.05-0.04-0.11-0.04-0.16
	L290.9,172.86z"/>
<path class="st2" d="M488.9,395.22c0,2.31-0.9,6.48-2.49,11.88c-8.08,27.5-33.66,86.83-45.27,94.23c-0.8,0.51-1.54,0.77-2.2,0.76
	c-1.78-0.05-4.03-0.55-6.69-1.48V329.17c0.44-0.43,0.88-0.84,1.32-1.27c0.38-0.36,0.74-0.72,1.12-1.09
	c0.03-0.02,0.05-0.04,0.08-0.07c0.13-0.12,0.27-0.26,0.39-0.38c0.14-0.14,0.28-0.28,0.42-0.42c0.65-0.64,1.29-1.29,1.92-1.95
	c0.4-0.4,0.79-0.81,1.16-1.21c0.38-0.4,0.76-0.8,1.13-1.21c0.53-0.56,1.05-1.14,1.56-1.72c0.71-0.8,1.41-1.61,2.09-2.43
	c0.5-0.59,0.99-1.18,1.46-1.78c0.48-0.59,0.95-1.19,1.41-1.81c0.46-0.61,0.92-1.22,1.36-1.83c0.31-0.43,0.63-0.86,0.92-1.3
	c0.03-0.04,0.06-0.08,0.08-0.12c0.32-0.45,0.63-0.91,0.93-1.38c0.25-0.36,0.49-0.73,0.72-1.11c0.69-1.06,1.34-2.14,1.94-3.24
	c0.16-0.28,0.31-0.55,0.46-0.83c0.03-0.04,0.06-0.08,0.07-0.12c0.02-0.03,0.04-0.05,0.04-0.08c0.19-0.34,0.38-0.69,0.54-1.03
	c0.07-0.11,0.13-0.22,0.18-0.33c0.04-0.07,0.07-0.14,0.1-0.2c0.31-0.59,0.59-1.19,0.87-1.79v-0.01c1.44-3.09,2.58-6.28,3.38-9.57
	l0.56-2.27c0,0,4.72,0.91,8.27-1v0.01c0.18,5.02,0.4,11.02,0.64,17.44c0.03,0.71,0.05,1.38,0.07,2c0.02,0.5,0.04,0.96,0.05,1.38
	c0.01,0.15,0.01,0.28,0.01,0.41c0.89,23.05,2.07,49.64,2.95,53.8c0.37,1.75,1.55,3.63,3.15,5.67l0.02,0.01
	c2.11,2.7,4.95,5.68,7.61,9.01C485.28,382.41,488.9,388.29,488.9,395.22z"/>
<linearGradient id="SVGID_1_" gradientUnits="userSpaceOnUse" x1="301.18" y1="414.2251" x2="441.14" y2="414.2251">
	<stop  offset="0" style="stop-color:#F2A86A"/>
	<stop  offset="0.9832" style="stop-color:#FABF8E"/>
</linearGradient>
<path class="st7" d="M441.14,501.33c-0.8,0.51-1.54,0.77-2.2,0.76c-1.78-0.05-4.03-0.55-6.69-1.48h-0.01v-0.17
	c-3.78-1.32-8.36-3.46-13.52-6.26c-14.72-8.6-32.59-20.49-47.51-31.72c-0.96-0.73-1.93-1.46-2.89-2.2h-0.01
	c-1.07-0.82-2.14-1.65-3.2-2.47c-0.13-0.12-0.27-0.22-0.4-0.32c-0.01,0-0.01-0.01-0.02-0.01c-0.01-0.01-0.01-0.01-0.02-0.02
	c-0.38-0.3-0.77-0.6-1.15-0.9c-9.56-7.49-18.91-15.28-27.35-22.83c-1.4-1.27-2.78-2.51-4.12-3.75c-0.9-0.82-1.79-1.65-2.67-2.47
	c-0.87-0.83-1.73-1.64-2.57-2.44c-2.11-2.01-4.13-4-6.05-5.95c-0.76-0.77-1.5-1.54-2.24-2.3c-0.37-0.38-0.73-0.76-1.08-1.14
	c-0.36-0.38-0.71-0.75-1.05-1.12c-0.3-0.32-0.6-0.65-0.9-0.97c-1.77-1.93-3.41-3.8-4.9-5.59c-0.25-0.29-0.49-0.59-0.73-0.88v-0.01
	c-0.83-1.02-1.61-2.02-2.33-2.98c-0.17-0.23-0.33-0.45-0.5-0.67c-0.04-0.06-0.09-0.13-0.13-0.19c-0.13-0.18-0.26-0.36-0.38-0.53
	c-0.13-0.17-0.25-0.34-0.36-0.5c-0.13-0.19-0.26-0.37-0.37-0.55c-0.08-0.12-0.17-0.25-0.26-0.37c-0.03-0.03-0.05-0.07-0.07-0.11
	c-0.02-0.02-0.02-0.03-0.03-0.05c-0.21-0.31-0.41-0.61-0.6-0.91c-0.07-0.11-0.14-0.21-0.2-0.31l-0.57-0.93v-0.01
	c-0.15-0.25-0.3-0.49-0.42-0.73c-0.42-0.73-0.78-1.43-1.09-2.1c-0.02-0.05-0.05-0.11-0.07-0.15c-0.09-0.21-0.18-0.42-0.26-0.62
	c-0.08-0.18-0.15-0.36-0.22-0.53c-0.12-0.32-0.23-0.64-0.32-0.95c-0.06-0.17-0.11-0.33-0.15-0.49c-0.01-0.01-0.01-0.03-0.02-0.04
	c0.01-0.01,0-0.01,0-0.02c-0.06-0.22-0.11-0.44-0.15-0.66c-0.01-0.06-0.03-0.13-0.04-0.19c-0.03-0.19-0.06-0.37-0.08-0.55
	c-0.01-0.09-0.02-0.17-0.03-0.26c-0.01-0.16-0.02-0.31-0.02-0.46c0-0.05-0.01-0.1-0.01-0.14c0-0.07,0.01-0.13,0.01-0.19
	c0-0.11,0.01-0.22,0.02-0.32c0-0.07,0.01-0.14,0.02-0.2c0-0.04,0-0.07,0.01-0.1c0.01-0.11,0.03-0.21,0.05-0.31
	c0.14-0.65,0.4-1.22,0.81-1.71v-0.01c0.38-0.45,0.74-0.93,1.09-1.44v-0.01c0.35-0.51,0.68-1.04,1.01-1.6c0,0,0,0,0-0.01
	c0.33-0.56,0.64-1.14,0.94-1.74c0.3-0.61,0.59-1.24,0.87-1.89c0.2-0.47,0.39-0.94,0.58-1.43c0.37-0.97,0.73-1.98,1.06-3.02
	c0.16-0.52,0.33-1.05,0.48-1.58c0.12-0.45,0.25-0.91,0.38-1.38l0.15-0.57c0.05-0.2,0.1-0.39,0.15-0.58c0-0.02,0-0.04,0.01-0.07
	c0.01-0.01,0.01-0.01,0.01-0.02v-0.01c3.94-15.85,3.73-36.04,3.59-41.32c0-0.11,0-0.21-0.01-0.3c0-0.18,0-0.34-0.01-0.48
	c0-0.35-0.01-0.53-0.01-0.53c3.09,4.45,6.33,8.59,9.69,12.21c0.42,0.45,0.84,0.89,1.27,1.33c0.93,0.95,1.87,1.86,2.81,2.73
	c0.32,0.29,0.63,0.57,0.95,0.84c0,0,0,0.01,0.01,0.01c0.03,0.02,0.05,0.05,0.08,0.07c0.28,0.25,0.57,0.5,0.86,0.73
	c0.3,0.26,0.61,0.51,0.92,0.75c0.17,0.15,0.34,0.28,0.51,0.4c0.16,0.13,0.32,0.25,0.48,0.37c0.23,0.18,0.46,0.35,0.69,0.52
	c0.36,0.26,0.73,0.52,1.09,0.76c0.23,0.16,0.45,0.31,0.68,0.46c0.71,0.46,1.42,0.9,2.14,1.33c0.45,0.27,0.91,0.53,1.37,0.79
	c0.22,0.13,0.44,0.25,0.67,0.37c0.05,0.03,0.1,0.06,0.15,0.08v0.01c0.05,0.03,0.1,0.06,0.16,0.08c0.1,0.06,0.2,0.11,0.31,0.16
	c0.06,0.04,0.12,0.07,0.17,0.1c0.15,0.08,0.31,0.16,0.47,0.24v0.01c0.36,0.19,0.72,0.37,1.08,0.55c0.01,0,0.02,0.01,0.03,0.01v0.01
	c0.23,0.11,0.45,0.22,0.67,0.32c0.13,0.07,0.26,0.13,0.39,0.19c0.4,0.19,0.8,0.37,1.21,0.56c0.76,0.35,1.52,0.68,2.29,0.99
	c0.56,0.23,1.13,0.45,1.7,0.67c0.18,0.07,0.36,0.14,0.53,0.2c0.06,0.02,0.11,0.04,0.17,0.06c0.23,0.09,0.45,0.17,0.68,0.25
	c0.08,0.03,0.16,0.06,0.23,0.08c0.06,0.02,0.12,0.04,0.18,0.06v0.01c0.4,0.14,0.79,0.27,1.18,0.4c0.39,0.13,0.79,0.25,1.18,0.37
	c0.04,0.01,0.08,0.03,0.12,0.04c1.15,0.36,2.3,0.68,3.46,0.98c0.79,0.21,1.59,0.4,2.4,0.57c0.8,0.18,1.6,0.34,2.4,0.49
	c2.12,0.39,4.24,0.69,6.36,0.89c0.4,0.04,0.79,0.08,1.19,0.11c1.51,0.12,3.01,0.19,4.51,0.22c0.32,0.01,0.63,0.01,0.93,0.01
	c0.39,0,0.78-0.01,1.16-0.01c0.15,0,0.3-0.01,0.45-0.01c9.15-0.15,17.9-2.11,25.25-5.77c0.11-0.06,0.21-0.11,0.32-0.17
	c0.49-0.24,0.99-0.5,1.47-0.77c0.55-0.28,1.1-0.6,1.63-0.94c0.5-0.29,0.99-0.6,1.47-0.93c0.04-0.02,0.07-0.05,0.11-0.07
	c0.28-0.18,0.55-0.37,0.82-0.56c0.89-0.63,1.76-1.29,2.58-1.98c0.42-0.36,0.85-0.72,1.28-1.08c0.82-0.68,1.65-1.37,2.5-2.06
	c0.42-0.34,0.86-0.7,1.3-1.06c1.3-1.07,2.64-2.16,4.01-3.28c0,0,0,0.01,0.01,0c0.57-0.47,1.14-0.94,1.71-1.41
	c0.55-0.44,1.1-0.9,1.66-1.36c0.73-0.61,1.47-1.22,2.21-1.84c0.94-0.79,1.9-1.6,2.85-2.42c0.72-0.6,1.43-1.22,2.14-1.84
	c0.11-0.1,0.23-0.2,0.35-0.31c0.49-0.42,0.97-0.84,1.44-1.27c0.6-0.52,1.19-1.06,1.79-1.6c0.35-0.32,0.69-0.63,1.04-0.94
	c0.34-0.32,0.69-0.64,1.03-0.96c0.02-0.02,0.05-0.05,0.09-0.08c0.12-0.1,0.24-0.21,0.35-0.34c0.01,0.01,0.01,0.01,0.01,0
	c0.15-0.14,0.31-0.28,0.45-0.43h0.01c0.44-0.43,0.88-0.84,1.32-1.27c0.38-0.36,0.74-0.72,1.12-1.09c0.03-0.02,0.05-0.04,0.08-0.07
	c0.13-0.12,0.27-0.26,0.39-0.38L441.14,501.33z"/>
<path class="st8" d="M303.19,386.81c-0.36,0.5-0.72,0.99-1.09,1.44C302.48,387.8,302.84,387.32,303.19,386.81z"/>
<line class="st3" x1="473.62" y1="368.34" x2="473.6" y2="368.34"/>
<path class="st9" d="M413.02,264.87c-0.03,0.18-0.1,0.36-0.2,0.51c-0.03,0.04-0.06,0.08-0.1,0.11c-0.01,0.02-0.02,0.03-0.03,0.03
	c-0.01,0.02-0.02,0.03-0.03,0.04c0.03-0.03,0.05-0.07,0.07-0.11c0.06-0.08,0.1-0.17,0.11-0.25c0.02-0.05,0.03-0.1,0.04-0.15
	c0.01-0.04,0.01-0.09,0.02-0.13v-0.06c0.02-0.13,0.01-0.27-0.01-0.39c-0.02-0.09-0.03-0.18-0.04-0.27v-0.03c0-0.01,0-0.01-0.01-0.02
	c-0.02-0.09-0.04-0.17-0.07-0.26c-0.02-0.09-0.05-0.17-0.08-0.24c-0.05-0.14-0.1-0.27-0.15-0.37c-0.01-0.01-0.01-0.02-0.02-0.03
	c-0.02-0.04-0.03-0.09-0.05-0.11c-0.02-0.04-0.03-0.07-0.04-0.09c-0.01-0.01-0.01-0.01-0.01-0.01s-0.02-0.03-0.06-0.1
	c-0.04-0.05-0.11-0.14-0.19-0.25c-0.08-0.11-0.18-0.24-0.3-0.4c-0.11-0.16-0.24-0.32-0.38-0.51c-0.1-0.13-0.21-0.28-0.33-0.43
	c-0.11-0.15-0.24-0.3-0.36-0.45c-0.01-0.03-0.03-0.04-0.05-0.06c-0.1-0.13-0.2-0.27-0.31-0.41c-0.08-0.09-0.14-0.17-0.21-0.27
	c-0.16-0.19-0.31-0.38-0.48-0.57c-0.1-0.15-0.23-0.28-0.34-0.42c0-0.01-0.01-0.01-0.01-0.01c-0.11-0.14-0.24-0.28-0.35-0.4
	c-0.03-0.04-0.06-0.07-0.1-0.11c-0.01,0-0.01-0.01-0.02-0.01c-0.14-0.16-0.27-0.3-0.4-0.45c-0.06-0.07-0.12-0.14-0.18-0.2
	c-0.13-0.13-0.25-0.26-0.37-0.38c-0.06-0.07-0.12-0.13-0.18-0.18c-0.12-0.12-0.24-0.24-0.36-0.33l-0.03-0.03
	c0.2,0.1,0.39,0.21,0.57,0.3c0.11,0.11,0.24,0.24,0.37,0.37c0.06,0.06,0.12,0.12,0.18,0.19c0.07,0.07,0.13,0.14,0.19,0.21
	c0,0,0,0.01,0.01,0.01c0.11,0.12,0.23,0.25,0.34,0.38c0,0,0.01,0,0.01,0.01c0.06,0.06,0.12,0.13,0.17,0.2
	c0.02,0.02,0.03,0.03,0.04,0.06c0,0,0,0,0.01,0c0.11,0.13,0.24,0.27,0.35,0.41c0.16,0.19,0.3,0.37,0.46,0.56
	c0.08,0.1,0.15,0.18,0.23,0.28c0.07,0.09,0.14,0.18,0.21,0.27c0.07,0.1,0.15,0.19,0.23,0.28c0.07,0.1,0.14,0.18,0.21,0.27
	c0.42,0.54,0.78,1.03,1.06,1.38c0.22,0.3,0.37,0.51,0.44,0.6c0.03,0.04,0.04,0.07,0.04,0.07s0,0,0.01,0.01
	c0.04,0.08,0.33,0.62,0.44,1.23c0.02,0.06,0.03,0.12,0.03,0.18C413.04,264.53,413.04,264.7,413.02,264.87z"/>
<line class="st3" x1="395.86" y1="266.03" x2="395.85" y2="266.03"/>
<path class="st3" d="M322.05,267.15"/>
<path class="st3" d="M322.72,267.14"/>
<path class="st3" d="M395.79,265.6c0-0.02,0-0.03,0-0.03"/>
<path class="st4" d="M475.31,146.42"/>
<path class="st4" d="M475.59,146.64"/>
<path class="st10" d="M412.16,124.97c-17.65-3.39-31.64-5.01-31.64-5.01c-18.55-2.53-35.18-3.24-49.27-3.04
	c1.01-0.29,23.37-6.4,38.82-4.98C385.87,113.39,400.39,116,412.16,124.97z"/>
<path class="st11" d="M463.9,139.82c-14.51-6.69-34.8-11.59-51.73-14.84l-0.01-0.01c-11.77-8.96-26.29-11.58-42.1-13.04
	c-15.44-1.42-37.8,4.69-38.82,4.98h-0.02c-18.32,0.26-32.35,2.06-40.69,3.38c0.59-0.64,25.42-27.82,64.54-29.27
	c39.59-1.46,75.58,17.02,75.58,17.02S466.16,132.28,463.9,139.82z"/>
<path class="st4" d="M290.54,120.29C290.53,120.29,290.53,120.29,290.54,120.29"/>
<path class="st4" d="M331.23,116.91c-0.01,0.01-0.01,0.01-0.01,0.01"/>
<path class="st9" d="M491.9,233.36c-1.05-4.23-2.66-8.05-4.69-10.91c-6.32-8.88-7.88-12.81-13.86-13l-1.05,6.35
	c0.31-12.31-8.67-34.14-14.15-46.27c-2.33-5.14-4.02-8.55-4.12-8.75c6.35,5.56,11.56,10.77,13.74,14.37
	c6.53,10.83,21.51,42.98,23.84,55.62c0,0.02,0.01,0.03,0.01,0.04c0,0.01,0.01,0.03,0.01,0.03c0.01,0.03,0.01,0.04,0.01,0.07
	c0.03,0.19,0.06,0.37,0.1,0.56c0.03,0.21,0.06,0.41,0.09,0.61c0,0.03,0,0.05,0.01,0.08c0.02,0.13,0.03,0.25,0.03,0.37
	c0.01,0.13,0.03,0.27,0.03,0.4c0.01,0.05,0.01,0.1,0.01,0.15v0.06C491.9,233.21,491.9,233.29,491.9,233.36z"/>
<path class="st4" d="M472.27,216.58"/>
<path class="st4" d="M472.29,215.8"/>
<path class="st4" d="M466.74,287.62c-0.01,0-0.01,0.01-0.01,0.01"/>
<path d="M345.37,186.44l-0.28-0.09l-14.73-4.94l-1.61-0.54l-0.14-0.04h0.4c2.11,0.04,4.14,0.79,6.6,1.47
	c4.16,1.17,8.14,3.28,9.39,3.94c0.03,0.01,0.06,0.03,0.08,0.04C345.23,186.37,345.32,186.42,345.37,186.44z"/>
<path class="st3" d="M322.45,123.84C322.45,123.84,322.45,123.84,322.45,123.84"/>
<path class="st12" d="M298.74,173.67c0.05,0,0.11,0,0.17-0.01c-0.09,0.01-0.16,0.01-0.24,0.01
	C298.7,173.68,298.72,173.68,298.74,173.67z"/>
<linearGradient id="SVGID_2_" gradientUnits="userSpaceOnUse" x1="306.0566" y1="238.1355" x2="492.4339" y2="238.1355">
	<stop  offset="0.0251" style="stop-color:#F2A86A"/>
	<stop  offset="0.5126" style="stop-color:#F5B27A"/>
	<stop  offset="1" style="stop-color:#FABF8E"/>
</linearGradient>
<path class="st13" d="M461.01,151.92c-0.58-0.12-10.44-0.56-22.87-4.49c-0.25-0.08-0.51-0.16-0.76-0.24
	c-21.06-6.63-47.68-13.54-67.98-8.61c-1.73,0.43-3.42,0.93-5.06,1.54c-1.05,0.38-2.08,0.8-3.08,1.27c-1.47,0.69-2.67,1.98-3.61,3.64
	c-0.14,0.23-0.27,0.46-0.39,0.71c-1.5,2.93-2.39,6.8-2.94,10.55c-0.27,1.82-0.45,3.61-0.59,5.24c-0.15,1.71-0.24,3.25-0.3,4.48
	c-0.01,0.21-0.02,0.41-0.02,0.6c0,14.89,1.82,38.27,0,49.01c-1.32,7.82-1.92,15.95,0.62,21.9c0.05,0.12,0.1,0.24,0.17,0.36
	c0.92,2.08,2.26,3.87,4.11,5.28c0.41,0.31,0.78,0.67,1.1,1.07c0.02,0.02,0.03,0.04,0.05,0.06c1.13,1.38,1.8,3.23,2.16,5.29v0.02
	c0.06,0.37,0.11,0.73,0.15,1.11v0.02c0.41,3.54-0.02,7.5-0.56,10.68c-0.01,0.01-0.01,0.02-0.01,0.03s0,0.01,0,0.02
	c-0.01,0.01-0.01,0.03-0.01,0.03c-0.05,0.3-0.1,0.58-0.16,0.86v0.01c-0.37,1.97-0.77,3.55-0.99,4.42v0.02
	c-0.04,0.17-0.09,0.3-0.11,0.4v0.01c-0.06,0.2-0.1,0.31-0.1,0.31l-16.56,2.26l-21.28,1.26h-0.01l-0.11,0.01h-0.03l-0.07,0.01h-0.03
	c-0.01,0-0.01,0-0.01,0h-0.01l-0.1,0.01h-0.02l-0.24,0.02h-0.07l-0.26,0.02l0.92,0.6c0.01,0.01,0.02,0.01,0.02,0.01l1.46,0.96
	c0,0,0.01,0.01,0.02,0.01l10.17,6.64l0.01,0.01l17.73,11.56l2.82,0.98l8.42,2.94l-0.04,2.6v0.03l-0.07,3.8v0.01l-0.24,14.24
	c0,0-1.83,1.05-3.86,2.8l-0.18,0.16c-3.93,3.45-8.41,9.49-1.72,15.62l0.01,0.01c0.07,0.06,0.13,0.11,0.2,0.17
	c0.02,0.02,0.03,0.03,0.06,0.05c0.04,0.04,0.09,0.08,0.13,0.12c0.02,0.01,0.03,0.03,0.04,0.04c0.04,0.03,0.1,0.07,0.14,0.11
	c0.78,0.65,1.7,1.31,2.75,1.96c16.56,10.21,1.74,18.24,1.74,18.24s-65.05-47.36-76.64-79.61c-0.35-0.96-0.64-1.9-0.89-2.83
	c-0.23-0.84-0.44-1.69-0.66-2.54c-0.14-0.55-0.28-1.1-0.41-1.65c-0.03-0.09-0.04-0.18-0.07-0.27c-3.33-13.37-6.01-28.2-7.35-42.39
	c-0.01-0.06-0.01-0.12-0.02-0.18c-0.12-1.32-0.24-2.65-0.33-3.95c0.01-0.02,0.01-0.03,0-0.03c-0.24-3.16-0.4-6.28-0.49-9.33
	c-0.01-0.23-0.03-0.47-0.03-0.7c-0.04-1.61-0.06-3.21-0.04-4.78v-0.15c0.04-11.26,1.32-21.36,4.25-28.98
	c7.68-20.02,13.56-33.1,19.29-41.52c0.26-0.38,0.52-0.74,0.77-1.11l0.01-0.02c3.71-5.21,7.38-8.49,11.46-10.48
	c0.02-0.01,0.03-0.02,0.03-0.02c0.01-0.01,0.01-0.01,0.02-0.01c5.71-2.77,12.24-3.04,20.82-2.48c8.08,0.53,15.08,1.38,20.61,2.24
	c0.02,0,0.03,0,0.04,0.01c5.78,0.87,35.82,2.87,54.17,4.08h0.09c0.27,0.03,0.54,0.04,0.8,0.06c7.84,0.51,13.34,0.87,13.51,0.91
	c0.01,0,0.98,0.55,2.6,1.46c0.05,0.03,0.1,0.06,0.17,0.1c0.01,0.01,0.01,0.01,0.01,0.01c0.01,0,0.01,0,0.01,0
	C432.29,135.68,460.04,151.36,461.01,151.92z"/>
<path class="st12" d="M298.74,173.67c0.05,0,0.11,0,0.17-0.01c-0.09,0.01-0.16,0.01-0.24,0.01
	C298.7,173.68,298.72,173.68,298.74,173.67z"/>
<line class="st3" x1="290.95" y1="172.93" x2="290.91" y2="172.87"/>
<path class="st6" d="M443.75,172.67c0,0.05-0.02,0.11-0.03,0.17c-0.02,0.03-0.03,0.05-0.04,0.08c-0.07,0.1-0.16,0.18-0.29,0.26
	l-0.01,0.01c-0.03,0.03-0.06,0.04-0.1,0.06c-1.35,0.73-5.15,0.71-5.6,0.78h-0.03c-0.02,0.01-0.1,0.01-0.24,0.01
	c-0.12,0-0.3,0-0.51-0.01h-0.22c-0.31-0.01-0.7-0.03-1.13-0.04c-0.04,0-0.1,0-0.17-0.01c-0.39-0.01-0.83-0.03-1.3-0.05
	c-0.24-0.01-0.48-0.02-0.73-0.03c-0.46-0.03-0.93-0.04-1.42-0.07c-0.19,0-0.39-0.02-0.59-0.03c-0.21-0.01-0.41-0.02-0.62-0.03
	c-0.24-0.01-0.49-0.03-0.73-0.03c-0.16-0.01-0.31-0.02-0.46-0.03c-0.27-0.02-0.54-0.03-0.81-0.03c-0.64-0.03-1.25-0.06-1.84-0.09
	c-0.19-0.01-0.38-0.02-0.57-0.03c-2.12-0.1-3.67-0.18-3.67-0.18s-10.17-1.39-21.98-1.63c-3.41-0.07-6.96-0.04-10.44,0.16h-0.12
	c-2.6,0.15-5.17,0.37-7.6,0.72c-0.05,0.01-0.1,0.02-0.14,0.03v-5.84c0,0,13.57-5.47,24.52-5.75c1.06-0.03,2.16,0,3.3,0.07
	c0.33,0.02,0.65,0.04,0.99,0.07c3.9,0.31,8.03,1.08,11.67,1.92c0.03,0.01,0.08,0.01,0.1,0.02c4.31,0.98,7.93,2.06,9.7,2.56
	c0.68,0.2,1.09,0.3,1.15,0.29c0.42-0.09,8.04,4.2,9.71,6.11c0.14,0.16,0.21,0.29,0.24,0.42
	C443.74,172.59,443.75,172.63,443.75,172.67z"/>
<path class="st12" d="M425.09,190.98c-0.3,0.08-1.02,0.26-1.99,0.5c0,0,0,0-0.01,0c-3.81,0.93-11.64,2.75-14.51,2.75
	c-3.76,0-10.88-1.58-13.68-3.95c-0.09-0.08-0.17-0.16-0.25-0.24c-0.3-0.29-0.52-0.58-0.68-0.88c-0.13-0.24,7,4.02,16.25,3.53
	C418.29,192.28,424.07,191.18,425.09,190.98z"/>
<path d="M428.32,189.55c0,0,0.42-0.44-0.29-1.23c-0.04-0.03-0.08-0.08-0.12-0.12c-0.79-0.81-2.74-1.93-7.25-3.28
	c-1.1-0.33-2.14-0.65-3.14-0.97l-3.14,0.31l-0.2,0.03l-1.07,0.1l-6.25,0.64h-0.01l-3.79,0.39l-0.11,0.01c0-0.09-0.02-0.17-0.03-0.26
	c-0.3-1.87,0.51-2.93,0.76-3.21c0.04-0.04,0.07-0.07,0.07-0.07s0.05-0.07,0.17-0.17l-14.73,4.93l-0.3,0.1
	c0.06-0.09,0.17-0.22,0.32-0.39c1.37-1.55,6.42-6.27,16.99-6.07c9.05,0.17,20.24,4.84,25.85,7.48c0.03,0.02,0.07,0.03,0.11,0.05
	c0,0,0.01,0.01,0.03,0.01c0.03,0.02,0.06,0.03,0.09,0.04c0.03,0.02,0.05,0.03,0.08,0.03c0.09,0.04,0.21,0.1,0.35,0.17
	c0.03,0.02,0.05,0.03,0.08,0.04c1.06,0.51,1.86,0.91,2.33,1.16c0.07,0.03,0.13,0.07,0.19,0.1c0.08,0.04,0.15,0.08,0.19,0.1
	c0.03,0.02,0.07,0.03,0.09,0.04c0.02,0.01,0.03,0.01,0.03,0.01H428.32z"/>
<path d="M418.23,189.79l-3.24-0.19l-0.08-0.01l-10.84-0.64l-0.06-0.01c-0.93-1.98-0.75-1.62-1.06-3.51c0-0.09-0.02-0.17-0.03-0.26
	c-0.3-1.87,0.51-2.93,0.76-3.21c0.04-0.04,0.07-0.07,0.07-0.07s0.05-0.07,0.17-0.17c0.21-0.16,0.61-0.41,1.34-0.59
	c0.02,0,0.03-0.01,0.03-0.01l0.03,0.01l0.2,0.04l3.75,0.86l0.02,0.01c0.01,0,0.01,0,0.01,0l2.68,0.62h0.01l5.53,1.28
	c0.04,0.03,0.09,0.07,0.12,0.12l0.03,0.02c0.32,0.38,0.56,1.08,0.56,1.08C419.15,188.38,418.23,189.79,418.23,189.79z"/>
<ellipse transform="matrix(0.0684 -0.9977 0.9977 0.0684 198.0088 580.3549)" class="st14" cx="409.77" cy="184.15" rx="2.09" ry="3.34"/>
<path class="st12" d="M443.33,173.25l-3.82,5.35l-6.8,9.49c-0.14-0.06-0.26-0.12-0.35-0.17c-0.03-0.01-0.05-0.02-0.08-0.03
	c-0.03-0.01-0.06-0.03-0.09-0.04c-0.02,0-0.03-0.01-0.03-0.01c-0.04-0.02-0.08-0.03-0.11-0.05c-5.61-2.64-16.8-7.31-25.85-7.48
	c-10.57-0.2-15.62,4.52-16.99,6.07l-6.87,5.79v-19.49c0.04-0.01,0.09-0.02,0.14-0.03c2.44-0.35,5-0.57,7.6-0.72h0.12
	c3.48-0.2,7.03-0.23,10.44-0.16c11.8,0.24,21.98,1.63,21.98,1.63s1.55,0.08,3.67,0.18c0.19,0.01,0.38,0.02,0.57,0.03
	c0.58,0.03,1.2,0.06,1.84,0.09c0.27,0.01,0.54,0.02,0.81,0.03c0.15,0.01,0.3,0.02,0.46,0.03c0.24,0,0.49,0.02,0.73,0.03
	c0.21,0.01,0.41,0.02,0.62,0.03c0.2,0.01,0.4,0.03,0.59,0.03c0.49,0.03,0.96,0.04,1.42,0.07c0.25,0.01,0.5,0.02,0.73,0.03
	c0.47,0.03,0.91,0.04,1.3,0.05c0.06,0.01,0.12,0.01,0.17,0.01c0.44,0.02,0.82,0.03,1.13,0.04h0.22c0.22,0.01,0.39,0.01,0.51,0.01
	c0.14,0,0.23,0,0.24-0.01h0.03c0.25,0.01,0.44,0.01,0.57,0.01c0.1,0,0.15,0,0.17-0.01C438.63,173.96,442.12,174,443.33,173.25z"/>
<path class="st12" d="M443.33,173.25l-2.92,6.73l-4.8,9.56c0,0-0.01,0-0.03-0.01c-0.02-0.01-0.05-0.03-0.09-0.04
	c-0.04-0.03-0.11-0.06-0.19-0.1c-0.06-0.03-0.12-0.06-0.19-0.1c-0.62-0.3-1.66-0.82-2.33-1.16c-0.03-0.01-0.05-0.03-0.08-0.04
	l6.8-9.49L443.33,173.25z"/>
<path class="st15" d="M404.17,272.45c0.34-0.01,0.88-0.04,1.33-0.05C405.06,272.41,404.62,272.43,404.17,272.45z"/>
<path class="st15" d="M406.23,272.37c-0.11,0.01-0.21,0.01-0.31,0.01C406.06,272.38,406.18,272.37,406.23,272.37z"/>
<path class="st1" d="M285.61,120.92"/>
<path class="st1" d="M290.53,113.33"/>
<path class="st16" d="M306.45,287.96c0-0.01,0-0.01,0-0.01c0.02-0.08,0.04-0.16,0.06-0.24"/>
<path class="st16" d="M314.78,262.9c0,0-0.06,0.1-0.17,0.31"/>
<path class="st2" d="M319.51,267.07L319.51,267.07z"/>
<path class="st16" d="M311.37,296.07c0-0.01,0-0.01,0-0.01c0-0.1,0-0.2,0.01-0.31"/>
<linearGradient id="SVGID_3_" gradientUnits="userSpaceOnUse" x1="464.9337" y1="289.7026" x2="459.887" y2="303.0531">
	<stop  offset="0" style="stop-color:#F2A86A"/>
	<stop  offset="0.9832" style="stop-color:#FABF8E"/>
</linearGradient>
<path class="st17" d="M467.5,308.86c-3.55,1.91-12.99-8.39-12.99-8.39l0.01-0.01l9.44-34.16c-0.12,0.76-0.86,6.15,2.29,7.29
	c0,0,0.84,23.6,1.18,33.49c0.02,0.49,0.04,0.96,0.05,1.38C467.5,308.6,467.5,308.73,467.5,308.86z"/>
<path class="st18" d="M340.56,243.97"/>
<g class="st19">
	<path class="st3" d="M425.77,280.11"/>
</g>
<g class="st19">
	<path class="st3" d="M425.83,259.9"/>
</g>
<g class="st19">
	<path class="st3" d="M439.91,265.09"/>
</g>
<g class="st19">
	<path class="st3" d="M430.69,235.33"/>
</g>
<line class="st20" x1="655.86" y1="471.22" x2="655.86" y2="471.22"/>
<path class="st9" d="M470.45,227.01l-6.46,39.21l-0.02,0.09l-9.44,34.15l-0.01,0.02c-4.94,10.66-13.27,20.23-22.27,28.7
	c-0.3,0.29-0.6,0.57-0.91,0.85c-0.69,0.63-1.37,1.26-2.06,1.89c-7.6,6.89-15.45,13.04-21.97,18.46c-0.44,0.36-0.86,0.71-1.29,1.07
	c-0.82,0.69-1.68,1.35-2.58,1.99c-0.27,0.19-0.54,0.37-0.82,0.56c-8.24,5.51-19.15,8.45-30.7,8.66c-0.38,0-0.78,0.01-1.16,0.01
	c-0.3,0-0.62,0-0.93-0.01c-12.76-0.22-26.11-3.88-37.4-11.2c-7.05-4.57-13.87-12.29-20.04-21.18c0,0,0.02,0.47,0.03,1.31
	c-0.3-0.44-0.61-0.87-0.92-1.31c-13.81-19.85-24.41-45.55-27.03-55.11c-0.13-0.51-0.24-0.95-0.34-1.36
	c-0.27-1.19-0.52-2.54-0.75-4.01c-0.06-0.4-0.12-0.8-0.18-1.22c-0.01-0.11-0.03-0.24-0.04-0.36c-1.83-12.98-2.19-32.82-2.19-33.22
	c0.05,0.08,0.37,0.88,0.92,2.27c0,0,0.01,0.01,0,0.02c0.01,0.01,0.01,0.01,0.02,0.02c1.14,2.9,3.31,8.32,6.25,15.08
	c0,0.01,0,0.02,0,0.02c3.09,7.16,7.06,15.82,11.62,24.59c0.08,0.17,0.17,0.33,0.25,0.5c1.79,3.42,3.65,6.86,5.59,10.23
	c0.08,0.11,0.15,0.24,0.23,0.38c0.53,0.96,1.24,2.27,1.99,3.7c0.02,0.03,0.03,0.05,0.04,0.09c1.59,2.97,3.41,6.39,4.48,8.07
	c0.01-0.3,0.02-0.61,0.04-0.97c0.01-0.08,0.02-0.17,0.02-0.27c0.04,0.06,0.08,0.11,0.11,0.17c0.33,0.49,0.66,0.98,1,1.45
	c0.2,0.29,0.41,0.58,0.62,0.87c0.21,0.31,0.44,0.61,0.65,0.91c0.27,0.37,0.54,0.75,0.81,1.11c1.07,1.45,2.16,2.86,3.26,4.21
	c0.28,0.33,0.55,0.67,0.83,1c0.28,0.34,0.57,0.67,0.84,1c0.27,0.32,0.55,0.64,0.83,0.96c0.27,0.31,0.55,0.63,0.83,0.93
	c0.24,0.28,0.48,0.54,0.72,0.8c0.24,0.26,0.47,0.52,0.71,0.78c0.08,0.09,0.16,0.17,0.24,0.25c0.4,0.44,0.8,0.86,1.21,1.27
	c0.4,0.43,0.81,0.83,1.21,1.23c0.27,0.27,0.54,0.54,0.81,0.8c0.05,0.04,0.1,0.1,0.15,0.14c0.29,0.28,0.57,0.56,0.85,0.82
	c0.61,0.57,1.21,1.14,1.83,1.68c0.24,0.23,0.49,0.44,0.73,0.65c0.85,0.75,1.71,1.48,2.57,2.17c0.42,0.36,0.84,0.7,1.28,1.03
	c0.43,0.33,0.84,0.66,1.27,0.98c0.03,0.02,0.05,0.03,0.07,0.06c0.55,0.39,1.1,0.79,1.64,1.18c0.28,0.2,0.57,0.4,0.85,0.59
	c0.24,0.17,0.48,0.32,0.71,0.49c0.04,0.03,0.1,0.06,0.13,0.09c0.29,0.19,0.57,0.38,0.85,0.56c0.84,0.56,1.69,1.08,2.53,1.58
	c0.57,0.33,1.12,0.65,1.68,0.95c0.28,0.17,0.56,0.32,0.84,0.46c0.28,0.15,0.56,0.3,0.83,0.44c0.28,0.14,0.56,0.29,0.83,0.42
	c0.56,0.27,1.11,0.53,1.65,0.78l0.81,0.37c0.27,0.11,0.54,0.24,0.82,0.34c0.27,0.11,0.53,0.23,0.8,0.33
	c0.27,0.11,0.55,0.22,0.81,0.31c0.24,0.09,0.48,0.17,0.71,0.27c0.06,0.02,0.12,0.04,0.17,0.06c0.51,0.17,0.99,0.35,1.49,0.51
	c0.26,0.08,0.53,0.17,0.78,0.24c0.51,0.16,1.04,0.3,1.54,0.44c0.03,0,0.05,0.01,0.08,0.02c0.22,0.05,0.44,0.11,0.64,0.17
	c0.02,0,0.03,0.01,0.05,0.01c0.33,0.09,0.67,0.17,1.01,0.23c0.16,0.04,0.33,0.07,0.5,0.1c0.21,0.04,0.41,0.08,0.61,0.11
	c0.15,0.03,0.3,0.06,0.44,0.08c0.15,0.03,0.29,0.05,0.44,0.08c0.18,0.03,0.37,0.06,0.56,0.08l0.13,0.03
	c1.49,0.24,2.94,0.37,4.35,0.41c11.16,0.28,32.35-8.52,46.98-18.62c0.32-0.23,0.64-0.44,0.96-0.67c0.31-0.21,0.63-0.44,0.94-0.67
	c0.31-0.22,0.62-0.44,0.92-0.67c0.41-0.3,0.8-0.59,1.19-0.9c0.52-0.4,1.03-0.8,1.52-1.21c0.45-0.37,0.9-0.75,1.32-1.11H419
	c0.44-0.39,0.86-0.77,1.28-1.15c1.98,4.76,4.74-2.77,6.59-7.62c0.1-0.16,0.2-0.31,0.32-0.46c0.61-0.85,1.24-1.76,1.89-2.72
	c0.23-0.34,0.46-0.68,0.69-1.03c0.29-0.43,0.57-0.86,0.87-1.31c0.59-0.89,1.19-1.82,1.79-2.78c0.46-0.71,0.92-1.45,1.39-2.2
	c0.94-1.5,1.9-3.05,2.87-4.66c0.49-0.8,0.98-1.61,1.47-2.43c0.33-0.56,0.66-1.11,0.99-1.67c0.11-0.18,0.22-0.37,0.33-0.56
	c0.22-0.37,0.44-0.74,0.67-1.11c0.35-0.59,0.7-1.18,1.04-1.79c0.3-0.5,0.58-0.98,0.87-1.47c0.71-1.22,1.41-2.44,2.12-3.67
	c0.31-0.55,0.64-1.11,0.95-1.66c0.53-0.91,1.05-1.84,1.58-2.75c0.3-0.54,0.6-1.07,0.91-1.61c0.24-0.42,0.48-0.84,0.71-1.26
	c0.46-0.82,0.92-1.64,1.37-2.45c0.2-0.34,0.38-0.68,0.57-1.02c0.3-0.54,0.61-1.09,0.91-1.63c0.33-0.58,0.65-1.17,0.97-1.75
	c1.72-3.09,3.38-6.12,4.97-9.02c0.2-0.38,0.4-0.75,0.6-1.12c0.06-0.1,0.11-0.21,0.17-0.3c0.23-0.4,0.44-0.8,0.65-1.2
	c0.05-0.1,0.1-0.18,0.16-0.28c0.21-0.41,0.44-0.81,0.64-1.21c0.04-0.06,0.08-0.12,0.1-0.18c0.28-0.52,0.56-1.04,0.83-1.54
	c1.02-1.89,1.99-3.69,2.88-5.38c0.17-0.32,0.35-0.64,0.51-0.95c0.7-1.32,1.36-2.57,1.98-3.73c0.1-0.21,0.22-0.43,0.32-0.64
	c0.07-0.11,0.12-0.22,0.17-0.32c0.1-0.16,0.17-0.31,0.26-0.48c0.08-0.16,0.16-0.3,0.24-0.45c0.06-0.12,0.12-0.24,0.18-0.36
	c0.23-0.44,0.45-0.85,0.65-1.25c0.44-0.84,0.84-1.6,1.19-2.27c0.06-0.1,0.11-0.22,0.17-0.31c0.1-0.2,0.21-0.39,0.3-0.58l0.21-1.29
	c0.53-0.62,0.94-1.02,1.03-1.1c-0.01,0.03-0.02,0.04-0.03,0.08l0.06-0.1C470.43,227.03,470.45,227.01,470.45,227.01z"/>
<path class="st9" d="M470.19,227.5c0.07-0.14,0.13-0.25,0.17-0.33L470.19,227.5z"/>
<path class="st9" d="M470.42,227.07l-0.06,0.1c0.02-0.03,0.03-0.05,0.03-0.08c0.01,0,0.01-0.01,0.01-0.01
	C470.41,227.08,470.42,227.07,470.42,227.07z"/>
<path class="st9" d="M312.41,298.99c-0.03,0.35-0.04,0.67-0.05,0.96c-1.07-1.67-2.89-5.1-4.47-8.06c-0.01-0.04-0.03-0.06-0.05-0.09
	c-0.76-1.43-1.46-2.74-1.99-3.7c1.5,2.61,3.06,5.17,4.65,7.66c0.2,0.33,0.41,0.66,0.62,0.98c0.44,0.67,0.87,1.33,1.31,1.98v0.01
	C312.42,298.81,312.41,298.9,312.41,298.99z"/>
<path class="st9" d="M332.43,351.45c11.29,7.33,24.64,10.99,37.4,11.21c-13.11-0.14-26.86-3.79-38.29-11.21
	c-6.69-4.34-13.19-11.53-19.12-19.86c-0.01-0.84-0.04-1.31-0.04-1.31C318.56,339.16,325.39,346.87,332.43,351.45z"/>
<path class="st9" d="M469.56,227.01l-0.19,1.18l-0.21,1.29c-0.1,0.19-0.2,0.38-0.3,0.58c-0.05,0.1-0.1,0.21-0.17,0.31
	c-0.35,0.67-0.75,1.44-1.19,2.27c-0.2,0.4-0.43,0.82-0.65,1.25c-0.06,0.11-0.12,0.24-0.18,0.36c-0.09,0.15-0.17,0.3-0.24,0.45
	c-0.09,0.17-0.17,0.32-0.26,0.48c-0.05,0.1-0.1,0.21-0.17,0.32c-0.1,0.21-0.22,0.43-0.32,0.64c-0.62,1.16-1.28,2.4-1.98,3.73
	c-0.17,0.31-0.34,0.63-0.51,0.95c-0.9,1.69-1.86,3.49-2.88,5.38c-0.27,0.51-0.55,1.02-0.83,1.54c-0.03,0.06-0.06,0.12-0.1,0.18
	c-0.21,0.4-0.44,0.8-0.64,1.21c-0.05,0.1-0.1,0.18-0.16,0.28c-0.21,0.4-0.43,0.8-0.65,1.2c-0.05,0.1-0.1,0.2-0.17,0.3
	c-0.2,0.37-0.4,0.74-0.6,1.12c-1.59,2.9-3.25,5.93-4.97,9.02c-0.31,0.58-0.64,1.17-0.97,1.75c-0.3,0.54-0.6,1.09-0.91,1.63
	c-0.19,0.34-0.37,0.68-0.57,1.02c-0.44,0.81-0.91,1.63-1.37,2.45c-0.23,0.42-0.47,0.84-0.71,1.26c-0.31,0.54-0.61,1.07-0.91,1.61
	c-0.52,0.91-1.05,1.84-1.58,2.75c-0.31,0.56-0.64,1.11-0.95,1.66c-0.71,1.23-1.41,2.45-2.12,3.67c-0.29,0.49-0.57,0.98-0.87,1.47
	c-0.34,0.6-0.69,1.19-1.04,1.79c-0.24,0.37-0.45,0.75-0.67,1.11c-0.11,0.19-0.22,0.37-0.33,0.56c-0.33,0.56-0.66,1.11-0.99,1.67
	c-0.5,0.82-0.98,1.63-1.47,2.43c-0.98,1.61-1.93,3.16-2.87,4.66c-0.47,0.75-0.93,1.48-1.39,2.2c-0.6,0.96-1.2,1.89-1.79,2.78
	c-0.3,0.44-0.58,0.88-0.87,1.31c-0.23,0.35-0.46,0.69-0.69,1.03c-0.65,0.96-1.28,1.86-1.89,2.72c-0.12,0.15-0.23,0.3-0.32,0.46
	c-1.86,4.85-4.62,12.39-6.59,7.62c-0.42,0.38-0.84,0.76-1.28,1.15h-0.01c-0.43,0.37-0.87,0.74-1.32,1.11c-0.5,0.4-1,0.8-1.52,1.21
	c-0.39,0.3-0.78,0.6-1.19,0.9c-0.3,0.23-0.61,0.45-0.92,0.67c-0.3,0.23-0.62,0.45-0.94,0.67c-0.31,0.23-0.64,0.44-0.96,0.67
	c-14.63,10.1-35.82,18.9-46.98,18.62c-1.4-0.03-2.86-0.17-4.35-0.41c0.23,0.03,0.46,0.06,0.69,0.09c0.26,0.03,0.52,0.05,0.79,0.09
	c0.24,0.02,0.47,0.03,0.7,0.04c0.23,0.03,0.44,0.03,0.66,0.04c0.24,0.02,0.5,0.03,0.74,0.03c0.29,0.01,0.57,0.01,0.89,0h0.24
	c12.97-0.34,37.42-11.34,51.27-22.62c0.45-0.37,0.9-0.75,1.32-1.11h0.01c0.68-0.59,1.32-1.18,1.94-1.75
	c0.37-0.36,0.75-0.72,1.1-1.08c0.1-0.1,0.2-0.21,0.3-0.31c0.81-0.84,1.7-1.9,2.67-3.14c0.24-0.3,0.47-0.61,0.71-0.93
	c0.25-0.34,0.51-0.67,0.77-1.03c0.23-0.32,0.46-0.64,0.71-0.98c0.61-0.85,1.25-1.76,1.89-2.72c0.22-0.32,0.44-0.64,0.66-0.98
	c0.01-0.01,0.02-0.03,0.03-0.04c0.29-0.43,0.57-0.86,0.86-1.31c0.59-0.89,1.19-1.82,1.8-2.78c0.45-0.71,0.91-1.45,1.39-2.2
	c0.93-1.5,1.9-3.05,2.87-4.66c0.49-0.8,0.98-1.61,1.47-2.43c0.33-0.56,0.66-1.11,0.99-1.67c0.11-0.18,0.23-0.37,0.33-0.56
	c0.22-0.37,0.44-0.74,0.67-1.11c0.35-0.59,0.7-1.18,1.05-1.79c0.29-0.5,0.57-0.98,0.86-1.47c0.71-1.22,1.41-2.44,2.12-3.67
	c0.32-0.56,0.64-1.11,0.96-1.66c0.52-0.91,1.05-1.84,1.57-2.75c0.3-0.54,0.61-1.07,0.91-1.61c0.24-0.42,0.48-0.84,0.71-1.26
	c0.46-0.82,0.92-1.64,1.38-2.45c0.19-0.34,0.38-0.68,0.57-1.02c0.3-0.54,0.61-1.09,0.91-1.63c0.33-0.58,0.65-1.17,0.98-1.75
	c1.72-3.09,3.38-6.12,4.96-9.02c0.21-0.38,0.41-0.75,0.61-1.12c0.05-0.1,0.11-0.21,0.16-0.3c0.23-0.4,0.44-0.8,0.65-1.2
	c0.06-0.1,0.1-0.18,0.16-0.28c0.22-0.41,0.44-0.81,0.65-1.21c0.03-0.06,0.07-0.12,0.1-0.18c0.28-0.52,0.56-1.04,0.83-1.54
	c1.03-1.89,1.99-3.69,2.89-5.38c0.17-0.32,0.34-0.64,0.51-0.95c0.7-1.32,1.37-2.57,1.98-3.73c0.11-0.21,0.23-0.43,0.33-0.64
	c0.06-0.11,0.11-0.22,0.17-0.32c0.1-0.16,0.17-0.31,0.26-0.48c0.08-0.16,0.17-0.3,0.24-0.45c0.06-0.12,0.13-0.24,0.18-0.36
	c0.23-0.44,0.45-0.85,0.66-1.25c0.44-0.84,0.84-1.6,1.19-2.27c0.05-0.1,0.1-0.23,0.16-0.31
	C468.99,228.12,469.56,227.01,469.56,227.01z"/>
<path class="st5" d="M390.19,278.1c-0.13,0.81-0.31,1.61-0.58,2.36c-9.55,0.93-16.79,0.43-29.43,0.43c-6.53,0-11.16,0.32-15.31,0.34
	c-1.45,0-2.84-0.03-4.24-0.13c-0.77-0.42-1.18-2.3-1.4-4.22c0.16,0.04,0.34,0.08,0.5,0.11c5.29,1.14,49.89,1.14,49.89,1.14
	S389.81,278.13,390.19,278.1z"/>
<path class="st21" d="M284.08,268.58c-1.06-0.32-10.6-3.93-11.21-17.54c-0.63-13.76,2.29-26.16,2.29-26.16l6.69,10.11
	C281.85,235.4,282.22,255.61,284.08,268.58z"/>
<path class="st6" d="M351.94,166.52v5.84c-0.05-0.01-0.09-0.01-0.14-0.02c-2.44-0.35-5-0.58-7.61-0.72
	c-0.04-0.01-0.08-0.01-0.12-0.01c-3.48-0.19-7.03-0.22-10.44-0.15c-12.41-0.29-24.64,1.63-24.64,1.63s-1.36,0.08-3.21,0.18
	c-3.06,0.16-7.45,0.4-9.18,0.45c-0.01,0-0.01,0-0.01,0c-0.45-0.06-4.24-0.05-5.59-0.78c-0.04-0.02-0.06-0.04-0.1-0.06l-0.01-0.01
	l-0.36-0.51c0-0.04,0.01-0.09,0.01-0.13c0.02-0.13,0.09-0.26,0.21-0.42c1.46-1.91,8.11-6.2,8.48-6.11c0.1,0.02,1.15-0.34,2.81-0.88
	c1.7-0.55,4.04-1.28,6.67-1.97c-0.01,0.04-0.02,0.06-0.03,0.1c4.39-1.15,9.59-2.18,13.95-2.06c0.16,0.01,0.32,0.01,0.49,0.02
	c0.34-0.03,0.66-0.05,0.99-0.07c1.14-0.07,2.24-0.1,3.3-0.07C338.37,161.05,351.94,166.52,351.94,166.52z"/>
<path class="st12" d="M340.31,188.86c-0.16,0.3-0.39,0.59-0.68,0.88c-0.08,0.08-0.16,0.16-0.26,0.24c-2.8,2.37-9.92,3.94-13.69,3.95
	c-2.87,0-10.7-1.82-14.51-2.76c-0.01,0-0.01,0-0.01,0c-0.97-0.24-1.69-0.41-1.99-0.49c1.01,0.2,6.8,1.29,14.87,1.71
	C333.31,192.87,340.44,188.61,340.31,188.86z"/>
<path class="st22" d="M342.68,218.61c0,0.01-0.01,0.01-0.01,0.02c-0.03,0.03-0.06,0.08-0.1,0.14c-0.04,0.06-0.09,0.13-0.16,0.22V219
	c-0.02,0.03-0.05,0.07-0.08,0.11c-0.05,0.08-0.11,0.16-0.18,0.26c-0.15,0.22-0.34,0.48-0.54,0.78c-0.09,0.13-0.17,0.25-0.28,0.39
	c-0.09,0.14-0.19,0.29-0.3,0.44c-0.07,0.11-0.16,0.23-0.24,0.35c-0.19,0.28-0.4,0.58-0.62,0.9c-0.13,0.18-0.26,0.37-0.39,0.56
	c-1.26,1.81-2.84,4.1-4.59,6.61c-0.15,0.23-0.31,0.44-0.46,0.67c-0.5,0.72-1.01,1.46-1.53,2.2c-0.29,0.42-0.58,0.84-0.88,1.28
	c-0.29,0.43-0.59,0.85-0.89,1.28c-0.4,0.58-0.8,1.15-1.2,1.74c-0.2,0.29-0.4,0.58-0.61,0.86c-0.7,1.02-1.41,2.04-2.1,3.03
	c-0.14,0.22-0.29,0.43-0.43,0.62c-0.55,0.8-1.09,1.58-1.62,2.34c-0.19,0.28-0.38,0.55-0.58,0.83c-1.24,1.8-2.43,3.5-3.48,5.03
	c-0.14,0.2-0.29,0.41-0.43,0.61c-0.31,0.44-0.61,0.88-0.89,1.29c-0.14,0.21-0.28,0.41-0.42,0.6c-0.22,0.32-0.43,0.62-0.62,0.9
	c-0.11,0.17-0.22,0.32-0.32,0.47c-0.02,0.02-0.03,0.03-0.03,0.05c-0.11,0.15-0.22,0.29-0.31,0.44c-0.17,0.24-0.32,0.46-0.46,0.66
	c-0.05,0.07-0.1,0.14-0.14,0.2c-0.73,1.05-1.17,1.69-1.22,1.76c-0.01,0.01-0.01,0.01-0.01,0.01v-0.01c0.01-0.01,0.01-0.02,0.02-0.04
	c0,0,0,0,0.01-0.01c0.56-1,9.35-15.39,14.15-22.56c1.02-1.51,2.11-3.02,3.19-4.46c1.1-1.45,2.18-2.83,3.21-4.1
	c0.23-0.29,0.47-0.58,0.7-0.86c0.64-0.77,1.23-1.48,1.77-2.13c0.33-0.38,0.64-0.74,0.93-1.07c0.13-0.15,0.25-0.29,0.37-0.42
	c0.35-0.41,0.66-0.76,0.92-1.06c0.16-0.17,0.29-0.32,0.41-0.46C342.48,218.82,342.63,218.66,342.68,218.61z"/>
<path d="M331.36,184.86c-0.01,0.09-0.03,0.18-0.04,0.26c-0.31,1.89-0.13,1.53-1.06,3.51l-0.06,0.01l-14.16,0.84
	c0,0-0.92-1.41,0-4.62c0,0,0.24-0.69,0.56-1.08c0.01-0.01,0.01-0.01,0.02-0.02c0.04-0.05,0.08-0.09,0.12-0.12l5.54-1.28h0.01
	l2.68-0.61l0.03-0.01l3.75-0.86l0.19-0.04l0.04-0.01c0.01,0,0.02,0.01,0.04,0.01c0.74,0.18,1.14,0.43,1.34,0.59
	c0.12,0.1,0.17,0.17,0.17,0.17s0.03,0.02,0.07,0.07C330.85,181.93,331.67,182.98,331.36,184.86z"/>
<ellipse transform="matrix(0.9977 -0.0684 0.0684 0.9977 -11.8225 22.6431)" class="st14" cx="324.5" cy="183.84" rx="3.34" ry="2.09"/>
<path class="st23" d="M412.52,272.04c-1.18,0.11-2.99,0.21-5.22,0.31c-0.34,0.01-0.67,0.03-1.03,0.04c0,0-0.01,0-0.03,0
	c-0.11,0.01-0.21,0.01-0.31,0.01c-0.14,0.01-0.27,0.01-0.41,0.01c-0.44,0.01-0.88,0.04-1.33,0.05c-0.09,0.01-0.19,0.01-0.29,0.01
	c-2.06,0.08-4.35,0.15-6.74,0.21c-0.74,0.02-1.49,0.04-2.25,0.06h-0.11c-1.44,0.04-2.91,0.08-4.38,0.11
	c-11.94,0.27-24.11,0.42-24.99,0.42l-18.6-0.36l-6.66-0.13l-1.16-0.02l-1.54-0.03l-0.67-0.07l-8-0.84l-5.42-0.57l-2.19-0.23
	c0.03-0.01,0.06-0.01,0.09-0.01c0.08-0.01,0.16-0.03,0.24-0.04c0.05-0.01,0.1-0.02,0.16-0.03c0.35-0.06,0.74-0.11,1.14-0.18
	c0.59-0.09,1.24-0.19,1.92-0.29h0.01c0.26-0.04,0.53-0.08,0.81-0.12c0.26-0.04,0.54-0.09,0.81-0.12
	c12.38-1.91,34.78-5.73,40.69-1.79c0.31,0.21,0.8,0.25,1.46,0.04c0.1-0.02,0.2-0.06,0.31-0.1c0.26-0.09,0.54-0.21,0.84-0.38
	c4.55-2.42,17.38-0.88,27.82,0.95c0.01,0.04,6.09,1.19,10.51,2.07C410.53,271.54,412.51,271.95,412.52,272.04z"/>
<path class="st23" d="M412.51,272.01c-0.04,0.03-0.07,0.06-0.11,0.09c-0.1,0.08-0.2,0.17-0.31,0.26c-0.27,0.22-0.55,0.46-0.84,0.71
	c-0.07,0.06-0.14,0.11-0.21,0.17c-6.72,5.74-19.24,16.39-34.34,22.26c-4.65,1.81-13.64,3.44-21.61,0.19
	c-17.01-6.96-26.38-17.81-33.89-24.68c0.04,0.04,0.09,0.06,0.16,0.11c0.09,0.06,0.19,0.12,0.31,0.21c1,0.66,3.16,2.06,5.69,3.64
	c0.04,0.04,0.08,0.06,0.12,0.09c0.55,0.34,1.12,0.7,1.7,1.06c2.82,1.74,5.85,3.52,8.16,4.69c0.5,0.26,0.96,0.47,1.38,0.66
	c0.71,0.31,1.31,0.52,1.73,0.6c1.97,0.37,3.76,0.7,5.56,0.97c3.02,0.45,6.1,0.74,10.23,0.82c0.68,0.01,1.39,0.02,2.14,0.02
	c4.21,0,7.98,0.05,11.48,0.04h0.16c6.79-0.02,12.6-0.28,18.71-1.61c1.78-0.38,3.58-0.85,5.44-1.44c0.19-0.06,0.37-0.12,0.56-0.18
	c0.38-0.12,0.76-0.25,1.14-0.38c0.41-0.14,0.86-0.31,1.33-0.5C401.87,277.92,409.16,273.75,412.51,272.01z"/>
<path class="st9" d="M378.13,301.24l-0.04,15.49c0,0-0.21,0.59-0.95,1.32c-1.2,1.16-3.79,2.69-9.17,2.64
	c-0.69-0.01-1.34-0.04-1.96-0.08c-6.61-0.51-9.36-3.23-9.46-3.43v-15.95H378.13z"/>
<path class="st15" d="M397.15,272.67c2.39-0.06,4.67-0.14,6.74-0.21c-5.34,2.83-6.28,4.16-9.31,4.89c-2.13,0.52-3.62,0.7-4.38,0.76
	c-0.38,0.03-0.58,0.03-0.58,0.03s-32.19,4.79-49.89-1.14c-0.16-0.05-0.34-0.08-0.5-0.11c-5.13-1.27-10.44-5.08-10.44-5.08l8,0.84
	l0.67,0.07l1.54,0.03l1.16,0.02l6.66,0.13l18.6,0.36c0.88,0,13.04-0.15,24.99-0.42c1.47-0.03,2.94-0.06,4.38-0.11h0.11
	C395.66,272.7,396.41,272.69,397.15,272.67z"/>
<path class="st24" d="M414.67,267.51c-0.01,0.01-0.01,0.02-0.02,0.03c-0.22,0.19-0.54,0.33-1.01,0.38c-0.76,0.09-1.9-0.07-3.59-0.61
	c-7.17-2.32-11.31-3.41-11.31-3.41l-28.08-2.67c0,0-0.36-0.01-1.03-0.02c-0.32,0-0.71,0-1.18,0.01c-0.25,0-0.51,0-0.8,0.01
	c-1.62,0.02-3.83,0.06-6.46,0.18c-0.16,0-0.31,0.01-0.47,0.02c-4.3,0.21-9.66,0.62-15.35,1.38c-12.13,1.62-20.79,4.12-25.29,4.3
	c-0.44,0.02-0.85,0.01-1.21-0.03c-0.09,0-0.17-0.02-0.25-0.02c-0.2-0.03-0.4-0.06-0.59-0.1c0,0,0,0.01,0,0.03
	c-0.03,0.12-0.19,0.87-0.44,2.06c-0.28,1.33-0.67,3.23-1.11,5.44c-1.41,7.06-3.36,17.33-3.96,23.04c0,0.09-0.01,0.17-0.03,0.26
	c-0.03,0.31-0.05,0.63-0.08,0.91v0.01c0,0.1-0.01,0.19-0.02,0.27c-0.03,0.36-0.03,0.67-0.04,0.97c-1.07-1.67-2.89-5.1-4.48-8.07
	c-0.01-0.03-0.03-0.06-0.04-0.09c-0.76-1.43-1.46-2.74-1.99-3.7c-0.08-0.14-0.15-0.27-0.23-0.38c0.07-0.3,0.13-0.58,0.2-0.87
	c0.02-0.08,0.03-0.16,0.06-0.24c0.02-0.1,0.04-0.21,0.07-0.32c3.36-14.45,6.69-21.93,7.51-23.46c-0.1-0.21,0.09,0,0.03-0.13
	c0-0.01-0.01-0.02-0.01-0.03c8.64-6.68,22.05-9.69,22.05-9.69s12.04-3.06,20.79-3.3c1.47-0.04,3.1-0.08,4.83-0.1h0.62
	c0.21-0.01,0.42-0.01,0.63-0.01c0.42-0.01,0.85-0.01,1.28-0.01c1.2-0.01,2.44-0.01,3.69,0c7.16,0.04,14.94,0.36,20.69,1.2
	c6.65,0.98,14.24,4.1,18.48,6.3c0.02,0.01,0.03,0.02,0.03,0.03c0.12,0.1,0.24,0.21,0.36,0.33l0.19,0.18
	c0.12,0.12,0.24,0.25,0.37,0.38c0.24,0.24,0.46,0.51,0.7,0.78c0.11,0.13,0.24,0.27,0.35,0.4c0,0,0.01,0,0.01,0.01
	c0.12,0.15,0.23,0.27,0.34,0.42c0.16,0.19,0.32,0.38,0.48,0.57c0.08,0.1,0.14,0.18,0.21,0.27c0.11,0.14,0.23,0.28,0.32,0.41
	c0.02,0.02,0.03,0.03,0.05,0.06c0.12,0.16,0.24,0.3,0.36,0.45c0.11,0.15,0.22,0.3,0.32,0.43c0.57,0.75,0.94,1.26,0.94,1.26
	s0.92,1.64,0.24,2.52c0.9-0.84-0.11-2.64-0.11-2.64s-0.02-0.03-0.05-0.07c-0.18-0.26-0.98-1.33-1.93-2.53
	c-0.14-0.17-0.29-0.36-0.44-0.55c-0.14-0.18-0.3-0.37-0.45-0.56c-0.31-0.37-0.62-0.72-0.92-1.06c-0.01,0-0.01-0.01-0.01-0.01
	c-0.26-0.28-0.51-0.54-0.74-0.78c0.56,0.3,1.04,0.57,1.43,0.82c0.2,0.13,0.38,0.24,0.54,0.35c0,0,0.01,0,0.01,0.01
	c0.21,0.13,0.37,0.26,0.49,0.37c0,0,0.01,0.01,0.01,0.02c0.01,0,0.01,0.01,0.02,0.01c0.07,0.06,0.14,0.12,0.21,0.2
	c0.08,0.07,0.16,0.15,0.24,0.22c0.93,0.92,2.09,2.34,2.99,3.5l0.24,0.3c0.18,0.24,0.35,0.45,0.5,0.65c0.1,0.12,0.18,0.24,0.27,0.36
	c0.32,0.44,0.52,0.71,0.52,0.71S415.57,266.68,414.67,267.51z"/>
<path class="st24" d="M428.2,299.89c-0.34,0.6-0.8,1.78-1.33,3.18c-1.85,4.86-4.61,12.39-6.59,7.63c-0.08-0.19-0.16-0.39-0.23-0.61
	l-7.42-41.89c-3.89,0.49-13.13-2.44-26.75-4.26c-13.61-1.82-25.29-1.58-25.29-1.58l-26.87,2.56h-0.01l-1.21,0.11
	c0,0-0.53,0.14-1.54,0.43c-1.81,0.51-5.16,1.49-9.76,2.98c-1.29,0.41-2.25,0.6-2.97,0.63c-0.24,0.01-0.44,0.01-0.63-0.01
	c-0.09-0.01-0.16-0.02-0.24-0.04c-0.34-0.06-0.59-0.19-0.76-0.34c-0.01-0.01-0.01-0.01-0.02-0.02c-0.9-0.84,0.11-2.64,0.11-2.64
	s3.16-4.37,4.99-5.96c0.41-0.36,1.27-0.9,2.46-1.54c-1.85,1.81-4.56,5.56-4.56,5.56s-1.01,1.8-0.11,2.64
	c-0.69-0.89,0.24-2.52,0.24-2.52s3.16-4.37,4.99-5.96c0.01-0.01,0.01-0.01,0.03-0.02c4.24-2.2,11.82-5.32,18.48-6.3
	c8.99-1.32,22.98-1.34,31.73-1.09c8.76,0.24,20.79,3.3,20.79,3.3s5.51,1.24,11.74,3.89c0.12,0.05,0.25,0.11,0.38,0.16
	c0,0,0,0.01,0.01,0.01c0.36,0.16,0.72,0.31,1.09,0.49c0.12,0.05,0.24,0.11,0.36,0.16c0,0,0,0,0.01,0.01
	c0.09,0.04,0.19,0.09,0.29,0.13c0.59,0.28,1.18,0.56,1.76,0.87c2.24,1.14,4.44,2.47,6.41,3.99c0,0.01-0.01,0.01-0.01,0.02
	c-0.05,0.13,0.14-0.08,0.04,0.14C418.65,265.53,424.72,284.49,428.2,299.89z"/>
<path class="st25" d="M384.59,241.99l-10.21,0.85C379.36,238.46,384.59,241.99,384.59,241.99z"/>
<path class="st25" d="M345.56,241.75l10.58,1.1C356.14,242.84,350.67,238.46,345.56,241.75z"/>
<g class="st26">
	<path class="st25" d="M382.99,227.82c1.52,1.13,2.83,2.49,4.02,3.96c1.17,1.48,2.21,3.11,2.96,4.95c0.36,0.93,0.65,1.91,0.74,2.98
		c0.1,1.06-0.04,2.23-0.59,3.27c-0.54,1.04-1.47,1.81-2.43,2.21c-0.96,0.43-1.97,0.51-2.94,0.46l-0.06-0.24
		c0.81-0.52,1.59-0.95,2.19-1.52c0.6-0.57,1.01-1.16,1.22-1.81c0.41-1.29,0.14-2.91-0.4-4.51c-0.55-1.61-1.34-3.21-2.2-4.79
		c-0.85-1.59-1.78-3.17-2.7-4.8L382.99,227.82z"/>
</g>
<g class="st26">
	<path class="st25" d="M351.18,191.85c0.27,3.11,0.32,6.23,0.31,9.35c-0.04,3.12-0.17,6.24-0.44,9.36
		c-0.28,3.12-0.68,6.23-1.26,9.32c-0.63,3.08-1.36,6.17-2.48,9.17l-0.08,0.22l-0.16,0.18c-1.17,1.29-2.28,2.75-3.31,4.19
		c-1.02,1.46-1.95,2.99-2.64,4.57c-0.65,1.58-1.12,3.29-0.6,4.79c0.49,1.52,2.13,2.53,3.84,3.14l-0.06,0.24
		c-0.93-0.11-1.87-0.31-2.76-0.76c-0.89-0.43-1.7-1.15-2.2-2.1c-0.51-0.95-0.64-2.03-0.6-3.04c0.03-1.02,0.27-2,0.57-2.93
		c0.6-1.87,1.51-3.57,2.52-5.18c1.01-1.62,2.14-3.1,3.41-4.57l-0.24,0.4c2.02-5.69,3.13-11.77,4.01-17.86
		c0.43-3.05,0.78-6.12,1.09-9.2c0.32-3.08,0.57-6.17,0.82-9.27L351.18,191.85z"/>
</g>
<path class="st9" d="M275.07,225.29c-1.05-13.56-3.47-59.86,8.35-74.33c7.87-9.62,15.49-16.45,20.71-20.63
	C274,192.78,275.07,225.29,275.07,225.29z"/>
<path class="st12" d="M351.94,172.36v19.5l-6.87-5.79c-1.37-1.55-6.42-6.27-16.99-6.07c-9.06,0.17-20.24,4.84-25.86,7.48
	c-0.04,0.01-0.07,0.04-0.11,0.05c-0.19,0.09-0.37,0.18-0.54,0.26l-6.8-9.49l-3.83-5.35c1.21,0.75,4.71,0.71,4.91,0.79
	c0.04,0.01,0.3,0.01,0.74-0.01c0,0,0,0,0.01,0c1.73-0.05,6.11-0.29,9.18-0.45c1.85-0.1,3.21-0.18,3.21-0.18s12.22-1.92,24.64-1.63
	c3.41-0.07,6.96-0.04,10.44,0.15c0.04,0,0.08,0,0.12,0.01c2.61,0.14,5.17,0.37,7.61,0.72C351.85,172.34,351.89,172.35,351.94,172.36
	z"/>
<path d="M345.39,186.45l-0.02-0.01l-0.28-0.09l-14.73-4.94c0.12,0.1,0.17,0.17,0.17,0.17s0.03,0.02,0.07,0.07
	c0.24,0.27,1.06,1.33,0.76,3.2c-0.01,0.09-0.03,0.18-0.04,0.26l-0.11-0.01l-3.79-0.39h-0.01l-6.25-0.64l-4.41-0.45
	c-1,0.31-2.04,0.64-3.14,0.97c-4.51,1.34-6.45,2.46-7.25,3.27c-0.04,0.04-0.08,0.09-0.12,0.12c-0.7,0.79-0.29,1.24-0.29,1.24h-7.29
	c0,0,1.09-0.59,2.91-1.46c0.17-0.08,0.36-0.17,0.54-0.26c0.04-0.01,0.07-0.04,0.11-0.05c5.61-2.64,16.8-7.31,25.86-7.48
	c10.56-0.2,15.61,4.52,16.99,6.07C345.22,186.23,345.33,186.36,345.39,186.45z"/>
<path class="st27" d="M491.9,233.36c0-0.07,0-0.15-0.01-0.22v-0.06c0-0.05,0-0.1-0.01-0.15c0-0.01,0-0.01,0.01-0.02v-0.02
	c0-0.03,0-0.06-0.01-0.09c0-0.12-0.01-0.24-0.03-0.36c-0.01-0.12-0.02-0.24-0.03-0.35c-0.03-0.16-0.04-0.31-0.07-0.47
	c-0.03-0.15-0.05-0.3-0.08-0.44c-0.02-0.1-0.03-0.19-0.06-0.29c0-0.03,0-0.04-0.01-0.07c0-0.01-0.01-0.03-0.01-0.03
	c0-0.02-0.01-0.03-0.01-0.04c-2.33-12.64-17.31-44.79-23.84-55.62c-2.18-3.61-7.39-8.82-13.74-14.37l-0.01-0.01
	c-5.04-4.42-10.8-9.09-16.32-13.34c-0.1-0.08-0.2-0.15-0.3-0.23c-9.91-7.62-19.01-13.94-21.8-15.32c-6.32-3.14-8.14-2.2-8.14-2.2
	s-20.65-1.53-42.2-3.03c-8.46-0.58-17.06-1.17-24.6-1.65c-7.53-0.49-14.02-0.87-18.23-1.05c0.03-0.05,0.03-0.09,0.03-0.1
	c1.94-0.04,3.9-0.07,5.88-0.09c3.77-0.03,7.6-0.03,11.49-0.01h0.2c1.79,0.02,3.6,0.04,5.41,0.08c0.56,0.01,1.11,0.02,1.67,0.03
	c1.45,0.03,2.89,0.06,4.34,0.1c0.17,0.01,0.34,0.01,0.51,0.02c3.14,0.09,6.29,0.2,9.46,0.34c2.4,0.1,4.82,0.23,7.23,0.36
	c1.15,0.07,2.31,0.14,3.47,0.21c1.83,0.11,3.67,0.24,5.51,0.37c0.48,0.03,0.95,0.06,1.43,0.1c4.63,0.34,9.25,0.74,13.84,1.2
	c1.15,0.11,2.3,0.23,3.44,0.35c1.14,0.12,2.28,0.24,3.42,0.37c1.08,0.12,2.16,0.25,3.23,0.37l0.18,0.03
	c0.98,0.12,1.98,0.24,2.96,0.37h0.09c0.44,0.06,0.87,0.11,1.3,0.17c1.05,0.14,2.08,0.28,3.12,0.42c1.78,0.24,3.54,0.5,5.29,0.77
	c1.17,0.17,2.33,0.36,3.48,0.54c0.49,0.07,0.98,0.16,1.45,0.24c0.82,0.13,1.64,0.27,2.45,0.41c0.01,0,0.01,0,0.01,0
	c7.87,1.35,15.44,2.91,22.57,4.7c0.91,0.24,1.83,0.47,2.73,0.71c0.51,0.13,1.01,0.27,1.52,0.41c1.39,0.37,2.74,0.76,4.08,1.15
	c0.67,0.2,1.33,0.4,1.99,0.6c1.34,0.41,2.67,0.83,3.96,1.26c0.62,0.2,1.23,0.41,1.83,0.62c1.25,0.43,2.49,0.87,3.69,1.32
	c0.44,0.16,0.88,0.32,1.32,0.5c0.51,0.19,1.01,0.39,1.51,0.59c0.78,0.31,1.54,0.63,2.3,0.94c0.01,0,0.01,0,0.02,0.01h0.01
	c0.01,0,0.02,0,0.03,0.01c0.01,0,0.02,0.01,0.03,0.01c0,0,0,0.01,0.01,0.01c1.62,0.98,3.1,1.97,4.43,2.98c0,0,5.21-3.61,35.84,21.01
	C541.8,192.05,491.9,233.36,491.9,233.36z"/>
<path class="st28" d="M315.26,124.03c-3.96,0.47-4.24,1.27-4.24,1.27s-2.66,1.65-6.89,5.02v0.01c-5.23,4.18-12.84,11.01-20.71,20.63
	c-11.83,14.46-9.69,56.02-8.64,69.58c0.19,2.39,0.34,3.91,0.37,4.26c0.01,0.05,0.01,0.08,0.01,0.08
	c-24.8-20.24-36.93-36.29-42.86-47.28c-3.07-5.69-6.7-11.59-5.66-16.91c0.64-3.26,22.19-20.34,42.02-32.17c0.01,0,0.01,0,0.02-0.01
	C279.8,126.26,296.2,124.67,315.26,124.03z"/>
<path class="st29" d="M470.84,143.43c-36.54-15.49-99.59-20.58-148.39-19.59c-0.61,0.01-1.23,0.02-1.84,0.04h-0.04
	c-1.45-0.05-2.47-0.06-2.98-0.04c-0.86,0.05-1.61,0.11-2.26,0.19h-0.07c-19.06,0.64-35.47,2.23-46.57,4.49
	c0.87-0.51,1.72-1.02,2.59-1.52c8.45-4.87,11.64-4.6,13.87-5.79c0,0,0,0,0.01-0.01c1.38-0.24,3.19-0.56,5.39-0.91
	c8.34-1.32,22.36-3.12,40.69-3.38h0.02c14.09-0.19,30.72,0.51,49.27,3.04c0,0,13.99,1.62,31.64,5.01l0.01,0.01
	c16.93,3.26,37.22,8.16,51.73,14.84C466.4,140.97,468.73,142.17,470.84,143.43z"/>
<linearGradient id="SVGID_4_" gradientUnits="userSpaceOnUse" x1="284.7393" y1="355.309" x2="591.9517" y2="621.9323">
	<stop  offset="0.0592" style="stop-color:#8B090B"/>
	<stop  offset="0.818" style="stop-color:#DB1F26"/>
</linearGradient>
<path class="st30" d="M616.42,429c-38.49,87.92-126.26,149.35-228.39,149.35c-94.6,0-176.87-52.7-219.07-130.33
	c1.59-0.84,3.11-1.51,4.52-1.96l112.67-60.62c13.44-7.42,22.68-12.53,22.68-12.53c0,0.01,0,0.01-0.01,0.02
	c0,0.02-0.01,0.05-0.02,0.08c-0.05,0.19-0.1,0.38-0.14,0.57l-0.15,0.57c-0.13,0.47-0.26,0.93-0.38,1.38
	c-0.15,0.53-0.32,1.06-0.48,1.58c-0.33,1.04-0.69,2.05-1.06,3.02c-0.19,0.49-0.38,0.96-0.58,1.43c-0.28,0.65-0.57,1.28-0.87,1.89
	c-0.3,0.6-0.61,1.18-0.94,1.74c0,0.01,0,0.01,0,0.01c-0.33,0.56-0.66,1.09-1.01,1.6v0.01c-0.36,0.5-0.72,0.99-1.09,1.44v0.01
	c-0.41,0.49-0.67,1.06-0.81,1.71c-0.02,0.1-0.04,0.2-0.05,0.31c-0.01,0.03-0.01,0.06-0.01,0.1c-0.01,0.06-0.02,0.13-0.02,0.2
	c-0.01,0.1-0.02,0.21-0.02,0.32c0,0.06-0.01,0.12-0.01,0.19c0,0.04,0.01,0.09,0.01,0.14c0,0.15,0.01,0.3,0.02,0.46
	c0.01,0.09,0.02,0.17,0.03,0.26c0.02,0.18,0.05,0.36,0.08,0.55c0.01,0.06,0.03,0.13,0.04,0.19c0.04,0.22,0.09,0.44,0.15,0.66
	c0,0.01,0.01,0.01,0,0.02c0.05,0.18,0.1,0.35,0.17,0.53c0.09,0.31,0.2,0.63,0.32,0.95c0.06,0.17,0.13,0.35,0.22,0.53
	c0.08,0.2,0.17,0.41,0.26,0.62c0.02,0.05,0.04,0.1,0.07,0.15c0.31,0.67,0.67,1.37,1.09,2.1c0.12,0.24,0.27,0.48,0.42,0.73v0.01
	l0.57,0.93c0.06,0.1,0.13,0.2,0.2,0.31c0.06,0.1,0.13,0.21,0.2,0.32c0.13,0.19,0.26,0.39,0.4,0.59c0.01,0.02,0.01,0.03,0.03,0.05
	c0.02,0.04,0.04,0.08,0.07,0.11c0.09,0.12,0.18,0.25,0.26,0.37c0.11,0.18,0.24,0.36,0.37,0.55c0.11,0.16,0.23,0.33,0.36,0.5
	c0.12,0.17,0.25,0.35,0.38,0.53c0.04,0.06,0.09,0.13,0.13,0.19c0.17,0.22,0.33,0.44,0.5,0.67c0.72,0.96,1.5,1.96,2.33,2.98v0.01
	c0.24,0.29,0.48,0.59,0.73,0.88c1.48,1.79,3.12,3.66,4.9,5.59c0.3,0.32,0.6,0.65,0.9,0.97c0.34,0.37,0.69,0.74,1.05,1.12
	c0.35,0.38,0.71,0.76,1.08,1.14c0.73,0.76,1.47,1.53,2.24,2.3c1.92,1.95,3.94,3.94,6.05,5.95c0.84,0.81,1.7,1.63,2.57,2.44
	c0.88,0.82,1.77,1.65,2.67,2.47c1.35,1.25,2.72,2.5,4.12,3.75c8.44,7.55,17.79,15.34,27.35,22.83c0.36,0.29,0.72,0.57,1.08,0.86
	c0.02,0.01,0.05,0.03,0.07,0.04c0.01,0.01,0.01,0.01,0.02,0.02c0.01,0,0.01,0.01,0.02,0.01v0.01c0.13,0.1,0.27,0.2,0.4,0.31
	c1.06,0.82,2.13,1.65,3.2,2.47h0.01c0.96,0.74,1.93,1.47,2.89,2.2c17.06,12.94,34.21,24.51,47.51,31.72
	c5.16,2.8,9.74,4.94,13.52,6.26v0.17h0.01c2.66,0.93,4.91,1.43,6.69,1.48c0.66,0.01,1.4-0.25,2.2-0.76
	c11.61-7.4,37.19-66.73,45.27-94.23c1.59-5.4,2.49-9.57,2.49-11.88c0-6.93-3.62-12.81-7.67-17.87c-2.66-3.33-5.5-6.31-7.61-9.01
	l103.92,45.11C577.54,413.45,577.54,413.45,616.42,429z"/>
<path class="st22" d="M417.22,255.26c-0.01,0-0.01,0-0.02-0.01c-0.03-0.06-0.48-0.7-1.21-1.75c-0.04-0.07-0.1-0.14-0.14-0.21
	c-0.15-0.2-0.3-0.43-0.46-0.66c-0.1-0.15-0.2-0.29-0.31-0.44c0-0.02-0.01-0.03-0.03-0.05c-0.1-0.16-0.21-0.3-0.32-0.47
	c-0.2-0.29-0.4-0.58-0.63-0.9c-0.14-0.19-0.28-0.39-0.42-0.6c-0.29-0.41-0.58-0.84-0.89-1.29c-0.14-0.2-0.29-0.41-0.43-0.61
	c-1.05-1.53-2.25-3.23-3.48-5.03c-0.19-0.28-0.38-0.55-0.57-0.83c-0.53-0.77-1.07-1.55-1.62-2.34c-0.15-0.2-0.29-0.41-0.44-0.63
	c-0.69-0.99-1.39-2.01-2.1-3.03c-0.2-0.29-0.4-0.57-0.6-0.86c-0.4-0.58-0.8-1.16-1.2-1.73c-0.3-0.44-0.59-0.85-0.89-1.28
	c-0.3-0.44-0.59-0.86-0.88-1.28c-0.52-0.75-1.04-1.48-1.53-2.2c-0.15-0.22-0.3-0.44-0.46-0.66c-1.74-2.51-3.33-4.8-4.58-6.61
	c-0.13-0.19-0.26-0.37-0.39-0.56c-0.22-0.32-0.43-0.62-0.62-0.9c-0.09-0.12-0.17-0.24-0.24-0.35c-0.11-0.15-0.21-0.3-0.3-0.44
	c-0.1-0.14-0.18-0.26-0.27-0.39c-0.21-0.3-0.39-0.56-0.54-0.78c-0.08-0.1-0.13-0.17-0.18-0.25c-0.03-0.04-0.05-0.08-0.08-0.11
	c-0.06-0.09-0.11-0.16-0.16-0.22c-0.04-0.07-0.07-0.11-0.1-0.15c0.06,0.06,0.21,0.22,0.41,0.44c0.11,0.13,0.25,0.28,0.41,0.45
	c0.25,0.3,0.57,0.65,0.92,1.06c0.11,0.13,0.24,0.27,0.37,0.42c0.29,0.33,0.59,0.69,0.92,1.07c0.55,0.65,1.14,1.37,1.78,2.13
	c0.24,0.29,0.46,0.57,0.7,0.86c0.57,0.7,1.16,1.43,1.75,2.2l0.01,0.01c0,0,0,0.01,0.01,0.01c0,0.01,0.01,0.01,0.02,0.02
	c0.47,0.61,0.95,1.24,1.43,1.87c1.08,1.44,2.18,2.95,3.2,4.46c4.8,7.17,13.58,21.56,14.15,22.56c0.01,0.02,0.01,0.02,0.01,0.02
	C417.2,255.24,417.21,255.25,417.22,255.26z"/>
<path class="st3" d="M707.74,4.35v577c-9.16-33.06-25.5-91.05-28.56-94.86c-0.07-0.09-0.21-0.24-0.34-0.41
	c-1.67-2.14-8.52-19.19-25.74-35.08c-5.84-5.4-12.87-10.66-21.29-15.16c-3.28-1.76-6.78-3.39-10.5-4.88
	c-1.69-0.68-3.32-1.33-4.89-1.96c-38.88-15.55-38.88-15.55-38.88-15.55l-103.92-45.11c2.11,2.7,4.95,5.68,7.61,9.01
	c4.05,5.06,7.67,10.94,7.67,17.87c0,2.31-0.9,6.48-2.49,11.88c-8.08,27.5-33.66,86.83-45.27,94.23c-0.8,0.51-1.54,0.77-2.2,0.76
	c-1.78-0.05-4.03-0.55-6.69-1.48h-0.01v-0.17c-3.78-1.32-8.36-3.46-13.52-6.26c-13.3-7.21-30.45-18.78-47.51-31.72
	c-0.96-0.73-1.93-1.46-2.89-2.2h-0.01c-1.07-0.82-2.14-1.65-3.2-2.47c-0.13-0.11-0.27-0.21-0.4-0.31v-0.01
	c-0.01,0-0.01-0.01-0.02-0.01c-0.01-0.01-0.01-0.01-0.02-0.02c-0.02-0.01-0.05-0.03-0.07-0.04c-0.36-0.29-0.72-0.57-1.08-0.86
	c-9.56-7.49-18.91-15.28-27.35-22.83c-1.4-1.27-2.78-2.51-4.12-3.75c-0.9-0.82-1.79-1.65-2.67-2.47c-0.87-0.83-1.73-1.64-2.57-2.44
	c-2.11-2.01-4.13-4-6.05-5.95c-0.76-0.77-1.5-1.54-2.24-2.3c-0.37-0.38-0.73-0.76-1.08-1.14c-0.36-0.38-0.71-0.75-1.05-1.12
	c-0.3-0.32-0.6-0.65-0.9-0.97c-1.78-1.93-3.42-3.8-4.9-5.59c-0.25-0.29-0.49-0.59-0.73-0.88v-0.01c-0.83-1.02-1.61-2.02-2.33-2.98
	c-0.17-0.23-0.33-0.45-0.5-0.67c-0.04-0.06-0.09-0.13-0.13-0.19c-0.13-0.18-0.26-0.36-0.38-0.53c-0.13-0.17-0.25-0.34-0.36-0.5
	c-0.13-0.19-0.26-0.37-0.37-0.55c-0.08-0.12-0.17-0.25-0.26-0.37c-0.03-0.03-0.05-0.07-0.07-0.11c-0.02-0.02-0.02-0.03-0.03-0.05
	c-0.14-0.2-0.27-0.4-0.4-0.59c-0.07-0.11-0.14-0.22-0.2-0.32c-0.07-0.11-0.14-0.21-0.2-0.31l-0.57-0.93v-0.01
	c-0.15-0.25-0.3-0.49-0.42-0.73c-0.42-0.73-0.78-1.43-1.09-2.1c-0.02-0.05-0.05-0.11-0.07-0.15c-0.09-0.21-0.18-0.42-0.26-0.62
	c-0.08-0.18-0.15-0.36-0.22-0.53c-0.12-0.32-0.23-0.64-0.32-0.95c-0.06-0.17-0.11-0.33-0.15-0.49c-0.01-0.01-0.01-0.03-0.02-0.04
	c0.01-0.01,0-0.01,0-0.02c-0.06-0.22-0.11-0.44-0.15-0.66c-0.01-0.06-0.03-0.13-0.04-0.19c-0.03-0.19-0.06-0.37-0.08-0.55
	c-0.01-0.09-0.02-0.17-0.03-0.26c-0.01-0.16-0.02-0.31-0.02-0.46c0-0.05-0.01-0.1-0.01-0.14c0-0.07,0.01-0.13,0.01-0.19
	c0-0.11,0.01-0.22,0.02-0.32c0-0.07,0.01-0.14,0.02-0.2c0-0.04,0-0.07,0.01-0.1c0.01-0.11,0.03-0.21,0.05-0.31
	c0.14-0.65,0.4-1.22,0.81-1.71v-0.01c0.38-0.45,0.74-0.93,1.09-1.44v-0.01c0.35-0.51,0.68-1.04,1.01-1.6c0,0,0,0,0-0.01
	c0.33-0.56,0.64-1.14,0.94-1.74c0.3-0.61,0.59-1.24,0.87-1.89c0.2-0.47,0.39-0.94,0.58-1.43c0.37-0.97,0.73-1.98,1.06-3.02
	c0.16-0.52,0.33-1.05,0.48-1.58c0.12-0.45,0.25-0.91,0.38-1.38l0.15-0.57c0.04-0.19,0.09-0.38,0.14-0.57
	c0.01-0.03,0.02-0.06,0.02-0.08c0.01-0.01,0.01-0.01,0.01-0.02c0,0-9.24,5.11-22.68,12.53l-112.67,60.62
	c-1.41,0.45-2.93,1.12-4.52,1.96c-4.4,2.3-9.3,5.82-13.7,9.33c-3.5,2.78-6.68,5.54-9.05,7.67c-2.42,2.18-3.98,3.68-4.16,3.86
	c-0.01,0.01-0.03,0.04-0.03,0.04l-33.93,79.92V4.35H707.74z"/>
<polyline class="st3" points="84.67,604 96.34,607.6 97.78,604 "/>
<path class="st3" d="M220.48,607.57c0,0-0.02-1.27-0.08-3.57"/>
<path class="st3" d="M146.21,465.02c-0.07,0.06-0.13,0.11-0.19,0.16"/>
<path class="st10" d="M475.31,146.42c-1.34-1.01-2.82-2.01-4.44-2.98c-0.01,0-0.01-0.01-0.01-0.01c-0.01,0-0.01-0.01-0.02-0.01
	c-2.11-1.26-4.44-2.46-6.94-3.61c2.26-7.54-33.24-31.78-33.24-31.78s-35.99-18.48-75.58-17.02c-39.12,1.45-63.96,28.63-64.54,29.27
	c-2.2,0.35-4.01,0.67-5.39,0.91c0.99-0.52,1.79-1.34,2.77-3.01c29.56-50.25,21.14-92.41,83.41-87.48
	c62.27,4.92,71.97,23.83,87.84,40.97C474.79,88.56,475.31,146.42,475.31,146.42z"/>
</svg>
